G04 #@! TF.GenerationSoftware,KiCad,Pcbnew,9.0.2*
G04 #@! TF.CreationDate,2026-03-05T02:20:32-08:00*
G04 #@! TF.ProjectId,PWM_amp,50574d5f-616d-4702-9e6b-696361645f70,rev?*
G04 #@! TF.SameCoordinates,Original*
G04 #@! TF.FileFunction,Paste,Top*
G04 #@! TF.FilePolarity,Positive*
%FSLAX46Y46*%
G04 Gerber Fmt 4.6, Leading zero omitted, Abs format (unit mm)*
G04 Created by KiCad (PCBNEW 9.0.2) date 2026-03-05 02:20:32*
%MOMM*%
%LPD*%
G01*
G04 APERTURE LIST*
G04 Aperture macros list*
%AMRoundRect*
0 Rectangle with rounded corners*
0 $1 Rounding radius*
0 $2 $3 $4 $5 $6 $7 $8 $9 X,Y pos of 4 corners*
0 Add a 4 corners polygon primitive as box body*
4,1,4,$2,$3,$4,$5,$6,$7,$8,$9,$2,$3,0*
0 Add four circle primitives for the rounded corners*
1,1,$1+$1,$2,$3*
1,1,$1+$1,$4,$5*
1,1,$1+$1,$6,$7*
1,1,$1+$1,$8,$9*
0 Add four rect primitives between the rounded corners*
20,1,$1+$1,$2,$3,$4,$5,0*
20,1,$1+$1,$4,$5,$6,$7,0*
20,1,$1+$1,$6,$7,$8,$9,0*
20,1,$1+$1,$8,$9,$2,$3,0*%
G04 Aperture macros list end*
%ADD10RoundRect,0.250000X-0.475000X0.337500X-0.475000X-0.337500X0.475000X-0.337500X0.475000X0.337500X0*%
%ADD11RoundRect,0.250000X0.350000X0.450000X-0.350000X0.450000X-0.350000X-0.450000X0.350000X-0.450000X0*%
%ADD12RoundRect,0.250000X1.275000X1.125000X-1.275000X1.125000X-1.275000X-1.125000X1.275000X-1.125000X0*%
%ADD13RoundRect,0.250000X0.850000X0.350000X-0.850000X0.350000X-0.850000X-0.350000X0.850000X-0.350000X0*%
%ADD14RoundRect,0.250000X-0.350000X-0.450000X0.350000X-0.450000X0.350000X0.450000X-0.350000X0.450000X0*%
%ADD15R,3.911600X1.498600*%
%ADD16RoundRect,0.100000X0.225000X0.100000X-0.225000X0.100000X-0.225000X-0.100000X0.225000X-0.100000X0*%
%ADD17RoundRect,0.250000X0.097227X-0.574524X0.574524X-0.097227X-0.097227X0.574524X-0.574524X0.097227X0*%
%ADD18RoundRect,0.250000X0.337500X0.475000X-0.337500X0.475000X-0.337500X-0.475000X0.337500X-0.475000X0*%
%ADD19R,1.350000X0.660000*%
%ADD20R,5.250000X10.300000*%
%ADD21R,5.250000X6.230000*%
G04 APERTURE END LIST*
D10*
X240503118Y-145845000D03*
X240503118Y-147920000D03*
D11*
X238173118Y-137390000D03*
X236173118Y-137390000D03*
D12*
X224955000Y-122445000D03*
X224955000Y-119395000D03*
X221605000Y-122445000D03*
X221605000Y-119395000D03*
D13*
X229580000Y-123200000D03*
X229580000Y-118640000D03*
D11*
X238173118Y-142010000D03*
X236173118Y-142010000D03*
D14*
X236143118Y-104815000D03*
X238143118Y-104815000D03*
X236153118Y-135395000D03*
X238153118Y-135395000D03*
D15*
X216511600Y-90123118D03*
X207418400Y-90123118D03*
D11*
X238143118Y-111779400D03*
X236143118Y-111779400D03*
X238173118Y-144320000D03*
X236173118Y-144320000D03*
X238143118Y-114085000D03*
X236143118Y-114085000D03*
D15*
X216401600Y-121103118D03*
X207308400Y-121103118D03*
D14*
X236143118Y-116415000D03*
X238143118Y-116415000D03*
D10*
X240583118Y-115840000D03*
X240583118Y-117915000D03*
D16*
X238093118Y-119770600D03*
X238093117Y-119120600D03*
X238093118Y-118470600D03*
X236193118Y-118470600D03*
X236193118Y-119770600D03*
D12*
X224985000Y-91442500D03*
X224985000Y-88392500D03*
X221635000Y-91442500D03*
X221635000Y-88392500D03*
D13*
X229610000Y-92197500D03*
X229610000Y-87637500D03*
D11*
X238173118Y-139690000D03*
X236173118Y-139690000D03*
D14*
X236203118Y-146590000D03*
X238203118Y-146590000D03*
D17*
X233193118Y-88825000D03*
X234660364Y-87357754D03*
D18*
X227813118Y-116415000D03*
X225738118Y-116415000D03*
D16*
X238173118Y-149922500D03*
X238173118Y-149272500D03*
X238173118Y-148622500D03*
X236273118Y-148622500D03*
X236273118Y-149922500D03*
D11*
X238143118Y-109475000D03*
X236143118Y-109475000D03*
D10*
X231533118Y-145705000D03*
X231533118Y-147780000D03*
D19*
X229695000Y-112000000D03*
X229695000Y-111000000D03*
X229695000Y-110000000D03*
X229695000Y-109000000D03*
X229695000Y-108000000D03*
X229695000Y-107000000D03*
X229695000Y-106000000D03*
X229695000Y-105000000D03*
X229695000Y-104000000D03*
X229695000Y-103000000D03*
X229695000Y-102000000D03*
X229695000Y-101000000D03*
X229695000Y-100000000D03*
X229695000Y-99000000D03*
X229695000Y-98000000D03*
X211445000Y-98000000D03*
X211445000Y-99000000D03*
X211445000Y-100000000D03*
X211445000Y-101000000D03*
X211445000Y-102000000D03*
X211445000Y-103000000D03*
X211445000Y-104000000D03*
X211445000Y-105000000D03*
X211445000Y-106000000D03*
X211445000Y-107000000D03*
X211445000Y-108000000D03*
X211445000Y-109000000D03*
X211445000Y-110000000D03*
X211445000Y-111000000D03*
X211445000Y-112000000D03*
D20*
X223620000Y-105000000D03*
D21*
X217520000Y-100835000D03*
X217520000Y-109165000D03*
D19*
X229735000Y-143000000D03*
X229735000Y-142000000D03*
X229735000Y-141000000D03*
X229735000Y-140000000D03*
X229735000Y-139000000D03*
X229735000Y-138000000D03*
X229735000Y-137000000D03*
X229735000Y-136000000D03*
X229735000Y-135000000D03*
X229735000Y-134000000D03*
X229735000Y-133000000D03*
X229735000Y-132000000D03*
X229735000Y-131000000D03*
X229735000Y-130000000D03*
X229735000Y-129000000D03*
X211485000Y-129000000D03*
X211485000Y-130000000D03*
X211485000Y-131000000D03*
X211485000Y-132000000D03*
X211485000Y-133000000D03*
X211485000Y-134000000D03*
X211485000Y-135000000D03*
X211485000Y-136000000D03*
X211485000Y-137000000D03*
X211485000Y-138000000D03*
X211485000Y-139000000D03*
X211485000Y-140000000D03*
X211485000Y-141000000D03*
X211485000Y-142000000D03*
X211485000Y-143000000D03*
D20*
X223660000Y-136000000D03*
D21*
X217560000Y-131835000D03*
X217560000Y-140165000D03*
D11*
X238143118Y-107130600D03*
X236143118Y-107130600D03*
D10*
X231603118Y-113685000D03*
X231603118Y-115760000D03*
M02*
