G04 #@! TF.GenerationSoftware,KiCad,Pcbnew,9.0.2*
G04 #@! TF.CreationDate,2026-03-05T02:20:33-08:00*
G04 #@! TF.ProjectId,PWM_amp,50574d5f-616d-4702-9e6b-696361645f70,rev?*
G04 #@! TF.SameCoordinates,Original*
G04 #@! TF.FileFunction,Soldermask,Top*
G04 #@! TF.FilePolarity,Negative*
%FSLAX46Y46*%
G04 Gerber Fmt 4.6, Leading zero omitted, Abs format (unit mm)*
G04 Created by KiCad (PCBNEW 9.0.2) date 2026-03-05 02:20:33*
%MOMM*%
%LPD*%
G01*
G04 APERTURE LIST*
G04 Aperture macros list*
%AMRoundRect*
0 Rectangle with rounded corners*
0 $1 Rounding radius*
0 $2 $3 $4 $5 $6 $7 $8 $9 X,Y pos of 4 corners*
0 Add a 4 corners polygon primitive as box body*
4,1,4,$2,$3,$4,$5,$6,$7,$8,$9,$2,$3,0*
0 Add four circle primitives for the rounded corners*
1,1,$1+$1,$2,$3*
1,1,$1+$1,$4,$5*
1,1,$1+$1,$6,$7*
1,1,$1+$1,$8,$9*
0 Add four rect primitives between the rounded corners*
20,1,$1+$1,$2,$3,$4,$5,0*
20,1,$1+$1,$4,$5,$6,$7,0*
20,1,$1+$1,$6,$7,$8,$9,0*
20,1,$1+$1,$8,$9,$2,$3,0*%
G04 Aperture macros list end*
%ADD10C,3.200000*%
%ADD11C,6.000000*%
%ADD12RoundRect,0.250000X-0.475000X0.337500X-0.475000X-0.337500X0.475000X-0.337500X0.475000X0.337500X0*%
%ADD13C,2.000000*%
%ADD14RoundRect,0.250000X0.350000X0.450000X-0.350000X0.450000X-0.350000X-0.450000X0.350000X-0.450000X0*%
%ADD15RoundRect,0.250000X0.850000X0.350000X-0.850000X0.350000X-0.850000X-0.350000X0.850000X-0.350000X0*%
%ADD16RoundRect,0.249997X2.950003X2.650003X-2.950003X2.650003X-2.950003X-2.650003X2.950003X-2.650003X0*%
%ADD17RoundRect,0.250000X-0.350000X-0.450000X0.350000X-0.450000X0.350000X0.450000X-0.350000X0.450000X0*%
%ADD18R,3.911600X1.498600*%
%ADD19R,1.700000X1.700000*%
%ADD20C,1.700000*%
%ADD21RoundRect,0.102000X1.858000X-1.858000X1.858000X1.858000X-1.858000X1.858000X-1.858000X-1.858000X0*%
%ADD22C,3.920000*%
%ADD23O,2.604000X1.404000*%
%ADD24C,3.054000*%
%ADD25RoundRect,0.102000X1.425000X1.425000X-1.425000X1.425000X-1.425000X-1.425000X1.425000X-1.425000X0*%
%ADD26RoundRect,0.250000X-2.000000X-1.400000X2.000000X-1.400000X2.000000X1.400000X-2.000000X1.400000X0*%
%ADD27RoundRect,0.250000X2.000000X1.400000X-2.000000X1.400000X-2.000000X-1.400000X2.000000X-1.400000X0*%
%ADD28RoundRect,0.100000X0.225000X0.100000X-0.225000X0.100000X-0.225000X-0.100000X0.225000X-0.100000X0*%
%ADD29RoundRect,0.250000X0.097227X-0.574524X0.574524X-0.097227X-0.097227X0.574524X-0.574524X0.097227X0*%
%ADD30RoundRect,0.250000X0.337500X0.475000X-0.337500X0.475000X-0.337500X-0.475000X0.337500X-0.475000X0*%
%ADD31R,1.350000X0.660000*%
%ADD32R,5.250000X10.300000*%
%ADD33R,5.250000X6.230000*%
%ADD34RoundRect,0.850000X0.650000X0.000010X-0.650000X0.000010X-0.650000X-0.000010X0.650000X-0.000010X0*%
G04 APERTURE END LIST*
D10*
X263625000Y-90940000D03*
D11*
X263625000Y-90940000D03*
D12*
X240503118Y-145845000D03*
X240503118Y-147920000D03*
D13*
X240453118Y-152015000D03*
X207175000Y-104983118D03*
D10*
X200625000Y-153940000D03*
D11*
X200625000Y-153940000D03*
D14*
X238173118Y-137390000D03*
X236173118Y-137390000D03*
D15*
X229580000Y-123200000D03*
D16*
X223280000Y-120920000D03*
D15*
X229580000Y-118640000D03*
D14*
X238173118Y-142010000D03*
X236173118Y-142010000D03*
D17*
X236143118Y-104815000D03*
X238143118Y-104815000D03*
X236153118Y-135395000D03*
X238153118Y-135395000D03*
D18*
X216511600Y-90123118D03*
X207418400Y-90123118D03*
D14*
X238143118Y-111779400D03*
X236143118Y-111779400D03*
X238173118Y-144320000D03*
X236173118Y-144320000D03*
X238143118Y-114085000D03*
X236143118Y-114085000D03*
D18*
X216401600Y-121103118D03*
X207308400Y-121103118D03*
D19*
X243303118Y-148725000D03*
D20*
X243303118Y-146185000D03*
X243303118Y-143645000D03*
X243303118Y-141105000D03*
X243303118Y-138565000D03*
X243303118Y-136025000D03*
D21*
X257725000Y-109183118D03*
D22*
X257725000Y-101983118D03*
D23*
X263725000Y-112333118D03*
X263725000Y-98833118D03*
D24*
X193550000Y-117790000D03*
D25*
X198550000Y-117790000D03*
D17*
X236143118Y-116415000D03*
X238143118Y-116415000D03*
D13*
X222250000Y-155090000D03*
X196105000Y-95353118D03*
D10*
X200625000Y-90940000D03*
D11*
X200625000Y-90940000D03*
D12*
X240583118Y-115840000D03*
X240583118Y-117915000D03*
D13*
X245875000Y-88033118D03*
D26*
X258375000Y-117253118D03*
D27*
X267175000Y-117253118D03*
D28*
X238093118Y-119770600D03*
X238093117Y-119120600D03*
X238093118Y-118470600D03*
X236193118Y-118470600D03*
X236193118Y-119770600D03*
D15*
X229610000Y-92197500D03*
D16*
X223310000Y-89917500D03*
D15*
X229610000Y-87637500D03*
D14*
X238173118Y-139690000D03*
X236173118Y-139690000D03*
D17*
X236203118Y-146590000D03*
X238203118Y-146590000D03*
D29*
X233193118Y-88825000D03*
X234660364Y-87357754D03*
D10*
X263625000Y-153940000D03*
D11*
X263625000Y-153940000D03*
D13*
X241925000Y-121933118D03*
X239275000Y-88033118D03*
X246873118Y-148735000D03*
D19*
X243373118Y-118355000D03*
D20*
X243373118Y-115815000D03*
X243373118Y-113275000D03*
X243373118Y-110735000D03*
X243373118Y-108195000D03*
X243373118Y-105655000D03*
D30*
X227813118Y-116415000D03*
X225738118Y-116415000D03*
D28*
X238173118Y-149922500D03*
X238173118Y-149272500D03*
X238173118Y-148622500D03*
X236273118Y-148622500D03*
X236273118Y-149922500D03*
D14*
X238143118Y-109475000D03*
X236143118Y-109475000D03*
D24*
X212510000Y-150460000D03*
D25*
X217510000Y-150460000D03*
D12*
X231533118Y-145705000D03*
X231533118Y-147780000D03*
D13*
X246953118Y-118345000D03*
D31*
X229695000Y-112000000D03*
X229695000Y-111000000D03*
X229695000Y-110000000D03*
X229695000Y-109000000D03*
X229695000Y-108000000D03*
X229695000Y-107000000D03*
X229695000Y-106000000D03*
X229695000Y-105000000D03*
X229695000Y-104000000D03*
X229695000Y-103000000D03*
X229695000Y-102000000D03*
X229695000Y-101000000D03*
X229695000Y-100000000D03*
X229695000Y-99000000D03*
X229695000Y-98000000D03*
X211445000Y-98000000D03*
X211445000Y-99000000D03*
X211445000Y-100000000D03*
X211445000Y-101000000D03*
X211445000Y-102000000D03*
X211445000Y-103000000D03*
X211445000Y-104000000D03*
X211445000Y-105000000D03*
X211445000Y-106000000D03*
X211445000Y-107000000D03*
X211445000Y-108000000D03*
X211445000Y-109000000D03*
X211445000Y-110000000D03*
X211445000Y-111000000D03*
X211445000Y-112000000D03*
D32*
X223620000Y-105000000D03*
D33*
X217520000Y-100835000D03*
X217520000Y-109165000D03*
D31*
X229735000Y-143000000D03*
X229735000Y-142000000D03*
X229735000Y-141000000D03*
X229735000Y-140000000D03*
X229735000Y-139000000D03*
X229735000Y-138000000D03*
X229735000Y-137000000D03*
X229735000Y-136000000D03*
X229735000Y-135000000D03*
X229735000Y-134000000D03*
X229735000Y-133000000D03*
X229735000Y-132000000D03*
X229735000Y-131000000D03*
X229735000Y-130000000D03*
X229735000Y-129000000D03*
X211485000Y-129000000D03*
X211485000Y-130000000D03*
X211485000Y-131000000D03*
X211485000Y-132000000D03*
X211485000Y-133000000D03*
X211485000Y-134000000D03*
X211485000Y-135000000D03*
X211485000Y-136000000D03*
X211485000Y-137000000D03*
X211485000Y-138000000D03*
X211485000Y-139000000D03*
X211485000Y-140000000D03*
X211485000Y-141000000D03*
X211485000Y-142000000D03*
X211485000Y-143000000D03*
D32*
X223660000Y-136000000D03*
D33*
X217560000Y-131835000D03*
X217560000Y-140165000D03*
D14*
X238143118Y-107130600D03*
X236143118Y-107130600D03*
D12*
X231603118Y-113685000D03*
X231603118Y-115760000D03*
D13*
X193250000Y-129590000D03*
D20*
X203550000Y-141610000D03*
X203550000Y-139070000D03*
X203550000Y-136530000D03*
X201010000Y-141610000D03*
X201010000Y-139070000D03*
X201010000Y-136530000D03*
X198470000Y-141610000D03*
X198470000Y-139070000D03*
X198470000Y-136530000D03*
X195930000Y-141610000D03*
X195930000Y-139070000D03*
X195930000Y-136530000D03*
D34*
X192890000Y-141610000D03*
X192890000Y-139070000D03*
X192890000Y-136530000D03*
D20*
X203550000Y-133990000D03*
X201010000Y-133990000D03*
X198470000Y-133990000D03*
X195930000Y-133990000D03*
D34*
X192890000Y-133990000D03*
D20*
X203550000Y-144150000D03*
X201010000Y-144150000D03*
X198470000Y-144150000D03*
X195930000Y-144150000D03*
D34*
X192890000Y-144150000D03*
D20*
X203510000Y-107530000D03*
X203510000Y-104990000D03*
X203510000Y-102450000D03*
X200970000Y-107530000D03*
X200970000Y-104990000D03*
X200970000Y-102450000D03*
X198430000Y-107530000D03*
X198430000Y-104990000D03*
X198430000Y-102450000D03*
X195890000Y-107530000D03*
X195890000Y-104990000D03*
X195890000Y-102450000D03*
D34*
X192850000Y-107530000D03*
X192850000Y-104990000D03*
X192850000Y-102450000D03*
D20*
X203510000Y-99910000D03*
X200970000Y-99910000D03*
X198430000Y-99910000D03*
X195890000Y-99910000D03*
D34*
X192850000Y-99910000D03*
D20*
X203510000Y-110070000D03*
X200970000Y-110070000D03*
X198430000Y-110070000D03*
X195890000Y-110070000D03*
D34*
X192850000Y-110070000D03*
M02*
