M48
; DRILL file {KiCad 9.0.2} date 2026-03-05T00:28:29-0800
; FORMAT={-:-/ absolute / metric / decimal}
; #@! TF.CreationDate,2026-03-05T00:28:29-08:00
; #@! TF.GenerationSoftware,Kicad,Pcbnew,9.0.2
; #@! TF.FileFunction,MixedPlating,1,4
FMAT,2
METRIC
; #@! TA.AperFunction,Plated,PTH,ViaDrill
T1C0.300
; #@! TA.AperFunction,Plated,PTH,ComponentDrill
T2C0.600
; #@! TA.AperFunction,Plated,PTH,ComponentDrill
T3C1.000
; #@! TA.AperFunction,Plated,PTH,ComponentDrill
T4C1.200
; #@! TA.AperFunction,Plated,PTH,ComponentDrill
T5C1.900
; #@! TA.AperFunction,Plated,PTH,ComponentDrill
T6C2.700
; #@! TA.AperFunction,NonPlated,NPTH,ComponentDrill
T7C3.200
%
G90
G05
T1
X191.225Y-112.733
X191.225Y-115.633
X191.225Y-119.633
X191.225Y-127.633
X192.475Y-124.66
X192.475Y-153.16
X192.475Y-157.66
X192.525Y-96.533
X193.125Y-149.633
X193.975Y-121.66
X194.625Y-146.733
X194.825Y-112.733
X194.825Y-115.633
X194.825Y-127.633
X195.475Y-156.16
X196.225Y-149.633
X196.525Y-130.333
X196.625Y-112.733
X196.625Y-115.633
X196.975Y-87.16
X196.975Y-124.66
X196.975Y-160.66
X197.625Y-96.533
X197.725Y-146.733
X198.025Y-127.633
X198.475Y-82.66
X198.475Y-94.66
X198.475Y-157.66
X199.525Y-149.633
X199.725Y-112.733
X199.725Y-115.633
X199.725Y-130.333
X199.975Y-85.66
X199.975Y-123.16
X200.625Y-96.533
X201.025Y-146.733
X201.225Y-127.633
X201.475Y-160.66
X202.425Y-112.733
X202.425Y-115.633
X202.625Y-149.633
X202.925Y-130.333
X202.975Y-82.66
X202.975Y-94.66
X202.975Y-117.16
X202.975Y-124.66
X202.975Y-157.66
X203.625Y-96.633
X204.125Y-146.733
X204.425Y-127.633
X204.475Y-85.66
X204.475Y-90.16
X204.475Y-121.66
X204.475Y-154.66
X205.525Y-97.133
X205.525Y-99.933
X205.525Y-102.833
X205.525Y-106.95
X205.525Y-109.733
X205.525Y-112.733
X205.825Y-130.333
X205.925Y-134.533
X205.925Y-136.433
X205.925Y-139.333
X205.925Y-142.033
X205.925Y-149.633
X205.975Y-93.16
X205.975Y-118.66
X205.975Y-160.66
X206.025Y-125.233
X207.325Y-127.633
X207.325Y-133.133
X207.425Y-143.833
X207.425Y-146.733
X207.425Y-152.533
X207.475Y-82.66
X207.475Y-115.66
X207.475Y-156.16
X208.425Y-97.133
X208.425Y-99.933
X208.425Y-102.833
X208.425Y-106.95
X208.425Y-109.733
X208.425Y-112.733
X208.825Y-134.533
X208.825Y-136.433
X208.825Y-139.333
X208.825Y-142.033
X208.825Y-149.633
X208.975Y-159.16
X209.8Y-108.065
X209.8Y-108.94
X209.8Y-109.94
X209.875Y-130.99
X209.875Y-131.99
X209.883Y-133.015
X209.9Y-100.04
X209.9Y-100.99
X209.9Y-102.04
X210.225Y-127.633
X210.325Y-146.733
X210.325Y-152.533
X210.475Y-154.66
X211.225Y-112.733
X211.225Y-115.133
X211.325Y-97.133
X211.975Y-82.66
X211.975Y-157.66
X211.975Y-162.16
X213.125Y-130.633
X213.125Y-142.033
X213.825Y-100.033
X213.825Y-109.733
X214.975Y-156.16
X214.975Y-160.66
X215.025Y-115.133
X216.125Y-127.633
X216.125Y-133.633
X216.125Y-138.033
X216.125Y-142.033
X216.125Y-146.033
X216.425Y-97.133
X216.425Y-99.933
X216.425Y-102.833
X216.425Y-106.95
X216.425Y-109.733
X216.425Y-112.733
X216.475Y-82.66
X217.453Y-117.875
X217.975Y-159.16
X218.125Y-88.633
X218.125Y-91.633
X218.125Y-93.113
X218.155Y-94.635
X218.193Y-119.525
X218.203Y-122.795
X218.213Y-124.435
X218.286Y-84.415
X218.825Y-99.933
X218.825Y-109.733
X218.925Y-130.633
X218.925Y-142.033
X218.943Y-115.125
X219.475Y-156.16
X219.525Y-121.233
X219.525Y-124.433
X219.543Y-122.785
X219.553Y-119.525
X219.633Y-88.645
X219.643Y-90.135
X219.653Y-91.635
X219.653Y-93.115
X220.033Y-125.617
X220.323Y-94.635
X220.975Y-82.66
X220.975Y-150.16
X220.975Y-162.16
X221.183Y-124.425
X221.183Y-126.745
X221.203Y-93.515
X221.463Y-96.225
X221.825Y-102.533
X221.825Y-108.033
X221.825Y-113.533
X221.833Y-105.255
X221.833Y-110.755
X222.123Y-135.955
X222.123Y-141.455
X222.125Y-133.233
X222.125Y-138.733
X222.125Y-144.233
X222.233Y-125.617
X222.243Y-94.635
X222.253Y-98.335
X222.293Y-116.335
X222.475Y-85.66
X222.475Y-153.16
X222.475Y-159.16
X222.683Y-129.135
X223.303Y-96.225
X223.305Y-93.503
X223.383Y-124.425
X223.383Y-126.745
X223.975Y-148.66
X224.463Y-94.635
X224.473Y-116.365
X224.543Y-125.605
X224.825Y-98.333
X224.825Y-103.833
X224.825Y-109.333
X224.833Y-101.135
X224.843Y-106.565
X224.843Y-112.065
X225.123Y-137.365
X225.125Y-129.133
X225.125Y-134.633
X225.125Y-140.133
X225.125Y-145.633
X225.133Y-132.085
X225.133Y-142.815
X225.475Y-82.66
X225.475Y-151.66
X225.475Y-157.66
X225.533Y-127.205
X225.623Y-93.495
X225.623Y-96.225
X225.693Y-124.413
X225.943Y-113.805
X226.975Y-85.66
X226.975Y-154.66
X227.723Y-107.785
X227.725Y-105.133
X227.725Y-110.633
X228.123Y-138.725
X228.123Y-144.205
X228.125Y-135.933
X228.125Y-141.433
X228.475Y-96.16
X228.475Y-127.66
X228.475Y-148.66
X229.743Y-115.495
X229.743Y-116.795
X229.753Y-113.775
X229.975Y-82.66
X229.975Y-124.66
X229.975Y-151.66
X230.203Y-89.735
X231.125Y-144.433
X231.14Y-106.01
X231.243Y-121.285
X231.475Y-85.66
X231.475Y-94.66
X231.475Y-99.16
X231.475Y-154.66
X231.563Y-118.435
X231.643Y-116.805
X231.673Y-87.575
X231.763Y-137.025
X232.923Y-91.135
X232.975Y-127.66
X233.486Y-152.755
X234.473Y-122.455
X234.475Y-82.66
X234.475Y-97.66
X234.475Y-130.66
X234.475Y-157.66
X234.475Y-162.16
X235.975Y-85.66
X235.975Y-94.66
X235.975Y-126.16
X235.975Y-154.66
X237.133Y-108.295
X237.181Y-140.845
X237.475Y-88.66
X237.475Y-91.66
X237.475Y-99.16
X237.475Y-129.16
X237.475Y-160.66
X238.951Y-147.925
X238.975Y-82.66
X238.975Y-96.16
X238.975Y-123.16
X238.975Y-132.16
X238.975Y-157.66
X239.013Y-117.785
X239.133Y-145.435
X239.163Y-115.295
X240.475Y-85.66
X240.475Y-93.16
X240.475Y-126.16
X240.475Y-154.66
X241.975Y-99.16
X241.975Y-129.16
X241.975Y-159.16
X243.475Y-82.66
X243.475Y-88.66
X243.475Y-91.66
X243.475Y-96.16
X243.475Y-124.66
X243.475Y-132.16
X243.475Y-162.16
X244.975Y-85.66
X244.975Y-102.16
X244.975Y-127.66
X244.975Y-157.66
X246.475Y-94.66
X246.475Y-99.16
X246.475Y-123.16
X246.475Y-130.66
X246.475Y-154.66
X246.475Y-160.66
X247.975Y-82.66
X247.975Y-88.66
X247.975Y-91.66
X247.975Y-106.66
X247.975Y-112.66
X247.975Y-126.16
X247.975Y-138.16
X249.475Y-85.66
X249.475Y-97.66
X249.475Y-102.16
X249.475Y-109.66
X249.475Y-117.16
X249.475Y-121.66
X249.475Y-129.16
X249.475Y-135.16
X249.475Y-144.16
X249.475Y-150.005
X249.475Y-153.16
X249.475Y-157.66
X250.975Y-91.66
X250.975Y-94.66
X250.975Y-105.16
X250.975Y-114.16
X250.975Y-124.66
X250.975Y-141.16
X250.975Y-160.66
X252.475Y-87.16
X252.475Y-100.66
X252.475Y-120.16
X252.475Y-127.66
X252.475Y-133.66
X252.475Y-138.16
X252.475Y-147.16
X252.475Y-151.66
X252.475Y-156.16
X253.975Y-90.16
X253.975Y-94.66
X253.975Y-97.66
X253.975Y-103.66
X253.975Y-108.16
X253.975Y-112.66
X253.975Y-117.16
X253.975Y-123.16
X253.975Y-144.16
X253.975Y-159.16
X255.475Y-126.16
X255.475Y-132.16
X255.475Y-136.66
X255.475Y-141.16
X255.475Y-150.16
X255.475Y-154.66
X256.975Y-87.16
X256.975Y-93.16
X256.975Y-120.16
X256.975Y-127.66
X256.975Y-147.16
X256.975Y-157.66
X256.975Y-162.16
X258.475Y-90.16
X258.475Y-96.16
X258.475Y-112.66
X258.475Y-123.16
X258.475Y-130.66
X258.475Y-135.16
X258.475Y-139.66
X258.475Y-144.16
X258.475Y-153.16
X259.975Y-84.16
X259.975Y-124.66
X259.975Y-150.16
X259.975Y-160.66
X261.475Y-87.16
X261.475Y-94.66
X261.475Y-99.16
X261.475Y-106.66
X261.475Y-111.16
X261.475Y-115.66
X261.475Y-120.16
X261.475Y-127.66
X261.475Y-133.66
X261.475Y-138.16
X261.475Y-142.66
X261.475Y-147.16
X261.475Y-157.66
X262.975Y-82.66
X262.975Y-103.66
X262.975Y-121.66
X262.975Y-130.66
X264.475Y-96.16
X264.475Y-100.66
X264.475Y-106.66
X264.475Y-124.66
X264.475Y-136.66
X264.475Y-141.16
X264.475Y-145.66
X264.475Y-160.66
X265.975Y-85.66
X265.975Y-112.66
X265.975Y-120.16
X265.975Y-127.66
X265.975Y-133.66
X265.975Y-148.66
X265.975Y-157.66
X267.475Y-82.66
X267.475Y-88.66
X267.475Y-93.16
X267.475Y-99.16
X267.475Y-103.66
X267.475Y-109.66
X267.475Y-123.16
X267.475Y-130.66
X267.475Y-139.66
X267.475Y-144.16
X267.475Y-154.66
X268.975Y-96.16
X268.975Y-106.66
X268.975Y-136.66
X268.975Y-147.16
X268.975Y-151.66
X268.975Y-160.66
X270.475Y-85.66
X270.475Y-91.66
X270.475Y-102.16
X270.475Y-112.66
X270.475Y-118.66
X270.475Y-132.16
X270.475Y-142.66
X270.475Y-157.66
X271.975Y-88.66
X271.975Y-94.66
X271.975Y-99.16
X271.975Y-105.16
X271.975Y-109.66
X271.975Y-115.66
X271.975Y-121.66
X271.975Y-135.16
X271.975Y-139.66
X271.975Y-145.66
X271.975Y-150.16
X271.975Y-154.66
T3
X193.25Y-129.59
X193.35Y-99.91
X193.35Y-102.45
X193.35Y-104.99
X193.35Y-107.53
X193.35Y-110.07
X193.39Y-133.99
X193.39Y-136.53
X193.39Y-139.07
X193.39Y-141.61
X193.39Y-144.15
X195.89Y-99.91
X195.89Y-102.45
X195.89Y-104.99
X195.89Y-107.53
X195.89Y-110.07
X195.93Y-133.99
X195.93Y-136.53
X195.93Y-139.07
X195.93Y-141.61
X195.93Y-144.15
X196.105Y-95.353
X198.43Y-99.91
X198.43Y-102.45
X198.43Y-104.99
X198.43Y-107.53
X198.43Y-110.07
X198.47Y-133.99
X198.47Y-136.53
X198.47Y-139.07
X198.47Y-141.61
X198.47Y-144.15
X200.97Y-99.91
X200.97Y-102.45
X200.97Y-104.99
X200.97Y-107.53
X200.97Y-110.07
X201.01Y-133.99
X201.01Y-136.53
X201.01Y-139.07
X201.01Y-141.61
X201.01Y-144.15
X203.51Y-99.91
X203.51Y-102.45
X203.51Y-104.99
X203.51Y-107.53
X203.51Y-110.07
X203.55Y-133.99
X203.55Y-136.53
X203.55Y-139.07
X203.55Y-141.61
X203.55Y-144.15
X207.175Y-104.983
X222.25Y-155.09
X239.275Y-88.033
X240.453Y-152.015
X241.925Y-121.933
X243.303Y-136.025
X243.303Y-138.565
X243.303Y-141.105
X243.303Y-143.645
X243.303Y-146.185
X243.303Y-148.725
X243.373Y-105.655
X243.373Y-108.195
X243.373Y-110.735
X243.373Y-113.275
X243.373Y-115.815
X243.373Y-118.355
X245.875Y-88.033
X246.873Y-148.735
X246.953Y-118.345
T4
X257.775Y-117.253
X267.775Y-117.253
T5
X193.55Y-117.79
X198.55Y-117.79
X212.51Y-150.46
X217.51Y-150.46
T6
X257.725Y-101.983
X257.725Y-109.183
T7
X200.625Y-90.94
X200.625Y-153.94
X263.625Y-90.94
X263.625Y-153.94
T2
X263.175Y-98.833G85X264.275Y-98.833
G05
X263.175Y-112.333G85X264.275Y-112.333
G05
M30
