M48
; DRILL file {KiCad 9.0.2} date 2026-03-25T19:39:51-0700
; FORMAT={-:-/ absolute / metric / decimal}
; #@! TF.CreationDate,2026-03-25T19:39:51-07:00
; #@! TF.GenerationSoftware,Kicad,Pcbnew,9.0.2
; #@! TF.FileFunction,MixedPlating,1,4
FMAT,2
METRIC
; #@! TA.AperFunction,Plated,PTH,ViaDrill
T1C0.300
; #@! TA.AperFunction,Plated,PTH,ComponentDrill
T2C0.600
; #@! TA.AperFunction,Plated,PTH,ComponentDrill
T3C1.000
; #@! TA.AperFunction,Plated,PTH,ComponentDrill
T4C1.200
; #@! TA.AperFunction,Plated,PTH,ComponentDrill
T5C1.500
; #@! TA.AperFunction,Plated,PTH,ComponentDrill
T6C2.700
; #@! TA.AperFunction,Plated,PTH,ComponentDrill
T7C2.800
; #@! TA.AperFunction,NonPlated,NPTH,ComponentDrill
T8C3.200
%
G90
G05
T1
X191.225Y-112.733
X191.225Y-115.633
X191.225Y-119.633
X191.225Y-127.633
X192.475Y-124.66
X192.475Y-153.16
X192.475Y-157.66
X192.823Y-96.715
X193.099Y-130.368
X193.125Y-149.633
X194.625Y-146.733
X194.643Y-123.125
X194.825Y-127.633
X195.243Y-115.225
X195.475Y-156.16
X195.893Y-96.715
X196.225Y-149.633
X196.525Y-130.333
X196.975Y-87.16
X196.975Y-124.66
X196.975Y-160.66
X197.725Y-146.733
X198.025Y-127.633
X198.423Y-96.695
X198.475Y-82.66
X198.475Y-94.66
X198.475Y-157.66
X199.525Y-149.633
X199.725Y-130.333
X199.975Y-85.66
X199.975Y-123.16
X200.973Y-96.695
X200.973Y-112.735
X201.025Y-146.733
X201.225Y-127.633
X201.475Y-160.66
X202.625Y-149.633
X202.925Y-130.333
X202.975Y-82.66
X202.975Y-94.66
X202.975Y-117.16
X202.975Y-124.66
X202.975Y-157.66
X203.493Y-96.695
X203.493Y-112.735
X204.125Y-146.733
X204.425Y-127.633
X204.475Y-85.66
X204.475Y-90.16
X204.475Y-121.66
X204.475Y-154.66
X205.825Y-130.333
X205.843Y-149.633
X205.943Y-143.825
X205.975Y-93.16
X205.975Y-118.66
X205.975Y-160.66
X206.025Y-125.233
X207.233Y-96.705
X207.233Y-99.145
X207.233Y-112.735
X207.243Y-101.725
X207.243Y-106.725
X207.243Y-109.725
X207.325Y-127.633
X207.325Y-133.133
X207.425Y-146.733
X207.443Y-152.525
X207.475Y-82.66
X207.475Y-115.66
X207.475Y-156.16
X208.825Y-149.633
X208.843Y-143.825
X208.975Y-159.16
X209.8Y-108.065
X209.8Y-108.94
X209.8Y-109.94
X209.843Y-138.925
X209.843Y-140.025
X209.843Y-141.125
X209.875Y-130.99
X209.875Y-131.99
X209.883Y-133.015
X209.9Y-100.04
X209.9Y-100.99
X209.9Y-102.04
X210.325Y-146.733
X210.475Y-154.66
X211.225Y-115.133
X211.243Y-96.725
X211.243Y-112.725
X211.975Y-82.66
X211.975Y-157.66
X211.975Y-162.16
X213.243Y-98.725
X213.243Y-100.725
X213.243Y-102.725
X213.243Y-106.725
X213.243Y-108.725
X213.243Y-110.725
X213.243Y-127.725
X213.243Y-129.725
X213.243Y-131.725
X213.243Y-133.725
X213.243Y-139.725
X213.243Y-141.725
X213.243Y-144.725
X214.975Y-156.16
X214.975Y-160.66
X215.025Y-115.133
X215.243Y-98.725
X215.243Y-100.725
X215.243Y-102.725
X215.243Y-106.725
X215.243Y-108.725
X215.243Y-110.725
X215.243Y-112.725
X215.243Y-129.725
X215.243Y-131.725
X215.243Y-133.725
X215.243Y-137.725
X215.243Y-139.725
X215.243Y-141.725
X216.243Y-99.725
X216.243Y-101.725
X216.243Y-107.725
X216.243Y-109.725
X216.243Y-111.725
X216.243Y-128.725
X216.243Y-130.725
X216.243Y-132.725
X216.243Y-138.725
X216.243Y-140.725
X216.243Y-142.725
X216.243Y-144.725
X216.475Y-82.66
X217.243Y-98.725
X217.243Y-100.725
X217.243Y-102.725
X217.243Y-106.725
X217.243Y-108.725
X217.243Y-110.725
X217.243Y-129.725
X217.243Y-131.725
X217.243Y-133.725
X217.243Y-137.725
X217.243Y-139.725
X217.243Y-141.725
X217.643Y-116.725
X217.975Y-159.16
X218.243Y-87.725
X218.243Y-89.725
X218.243Y-91.725
X218.243Y-93.725
X218.243Y-99.725
X218.243Y-101.725
X218.243Y-107.725
X218.243Y-109.725
X218.243Y-111.725
X218.243Y-118.725
X218.243Y-120.715
X218.243Y-122.715
X218.243Y-124.715
X218.243Y-128.725
X218.243Y-130.725
X218.243Y-132.725
X218.243Y-138.725
X218.243Y-140.725
X218.243Y-142.725
X218.243Y-144.725
X218.286Y-84.415
X218.943Y-115.125
X219.243Y-88.725
X219.243Y-90.725
X219.243Y-92.725
X219.243Y-98.725
X219.243Y-100.725
X219.243Y-102.725
X219.243Y-106.725
X219.243Y-108.725
X219.243Y-110.725
X219.243Y-112.725
X219.243Y-119.715
X219.243Y-121.715
X219.243Y-123.715
X219.243Y-129.725
X219.243Y-131.725
X219.243Y-133.725
X219.243Y-137.725
X219.243Y-139.725
X219.243Y-141.725
X219.475Y-156.16
X220.243Y-87.725
X220.243Y-89.725
X220.243Y-91.725
X220.243Y-93.725
X220.243Y-118.725
X220.243Y-120.715
X220.243Y-122.715
X220.243Y-124.715
X220.975Y-82.66
X220.975Y-162.16
X221.243Y-88.725
X221.243Y-90.725
X221.243Y-92.725
X221.243Y-119.715
X221.243Y-121.715
X221.243Y-123.715
X221.365Y-141.107
X221.366Y-135.303
X221.366Y-137.254
X221.37Y-131.508
X221.37Y-133.459
X221.373Y-139.145
X221.375Y-144.757
X221.543Y-150.745
X221.681Y-101.415
X221.682Y-103.427
X221.685Y-107.253
X221.69Y-105.27
X221.697Y-109.285
X221.7Y-111.175
X222.243Y-87.725
X222.243Y-89.725
X222.243Y-91.725
X222.243Y-93.725
X222.243Y-96.075
X222.243Y-118.725
X222.243Y-120.715
X222.243Y-122.715
X222.243Y-124.715
X222.243Y-126.725
X222.243Y-128.925
X222.293Y-116.335
X222.475Y-85.66
X222.475Y-153.16
X222.475Y-159.16
X222.692Y-99.175
X223.243Y-88.725
X223.243Y-90.725
X223.243Y-92.725
X223.243Y-119.715
X223.243Y-121.715
X223.243Y-123.715
X223.361Y-142.951
X223.366Y-135.303
X223.366Y-137.254
X223.37Y-131.508
X223.37Y-133.459
X223.373Y-139.145
X223.393Y-141.125
X223.681Y-101.415
X223.682Y-103.427
X223.685Y-107.253
X223.69Y-105.27
X223.697Y-109.285
X223.7Y-113.009
X224.243Y-87.725
X224.243Y-89.725
X224.243Y-91.725
X224.243Y-93.725
X224.243Y-96.075
X224.243Y-118.725
X224.243Y-120.715
X224.243Y-122.715
X224.243Y-124.715
X224.243Y-126.725
X224.243Y-128.925
X224.473Y-116.365
X224.613Y-147.775
X224.692Y-99.175
X225.243Y-88.725
X225.243Y-90.725
X225.243Y-92.725
X225.243Y-119.725
X225.243Y-121.725
X225.243Y-123.725
X225.365Y-141.107
X225.366Y-135.303
X225.366Y-137.254
X225.37Y-131.508
X225.37Y-133.459
X225.373Y-139.145
X225.375Y-144.757
X225.475Y-82.66
X225.475Y-151.66
X225.475Y-157.66
X225.681Y-101.415
X225.682Y-103.427
X225.685Y-107.253
X225.69Y-105.27
X225.697Y-109.285
X225.7Y-111.175
X226.243Y-87.725
X226.243Y-89.725
X226.243Y-91.725
X226.243Y-118.735
X226.243Y-120.725
X226.243Y-122.725
X226.975Y-85.66
X226.975Y-154.66
X227.293Y-142.985
X227.298Y-135.337
X227.305Y-139.179
X227.548Y-109.103
X227.552Y-105.286
X227.563Y-113.025
X228.475Y-96.16
X228.475Y-127.66
X228.475Y-148.66
X229.243Y-145.249
X229.743Y-115.495
X229.743Y-116.795
X229.753Y-113.775
X229.975Y-82.66
X229.975Y-124.66
X229.975Y-151.66
X230.203Y-89.735
X231.125Y-144.433
X231.133Y-106.005
X231.243Y-121.285
X231.475Y-94.66
X231.475Y-99.16
X231.475Y-154.66
X231.533Y-137.025
X231.543Y-149.305
X231.563Y-118.435
X231.643Y-116.805
X231.673Y-87.575
X232.923Y-91.135
X232.975Y-127.66
X233.486Y-152.755
X234.473Y-122.455
X234.475Y-82.66
X234.475Y-97.66
X234.475Y-130.66
X234.475Y-157.66
X234.475Y-162.16
X235.903Y-88.805
X235.975Y-85.66
X235.975Y-94.66
X235.975Y-126.16
X235.975Y-154.66
X237.133Y-110.615
X237.181Y-140.845
X237.475Y-91.66
X237.475Y-99.16
X237.475Y-129.16
X237.475Y-160.66
X238.951Y-147.925
X238.975Y-82.66
X238.975Y-96.16
X238.975Y-123.16
X238.975Y-132.16
X238.975Y-157.66
X239.013Y-117.785
X239.133Y-145.435
X239.163Y-115.295
X240.475Y-85.66
X240.475Y-93.16
X240.475Y-126.16
X240.475Y-154.66
X241.975Y-99.16
X241.975Y-129.16
X241.975Y-159.16
X243.475Y-82.66
X243.475Y-88.66
X243.475Y-91.66
X243.475Y-96.16
X243.475Y-124.66
X243.475Y-132.16
X243.475Y-162.16
X244.975Y-85.66
X244.975Y-102.16
X244.975Y-127.66
X244.975Y-157.66
X246.443Y-120.125
X246.475Y-94.66
X246.475Y-99.16
X246.475Y-123.16
X246.475Y-130.66
X246.475Y-154.66
X246.475Y-160.66
X247.975Y-82.66
X247.975Y-91.66
X247.975Y-106.66
X247.975Y-112.66
X247.975Y-126.16
X247.975Y-138.16
X248.343Y-89.025
X249.475Y-85.66
X249.475Y-97.66
X249.475Y-102.16
X249.475Y-109.66
X249.475Y-117.16
X249.475Y-121.66
X249.475Y-129.16
X249.475Y-135.16
X249.475Y-144.16
X249.475Y-150.005
X249.475Y-153.16
X249.475Y-157.66
X250.975Y-91.66
X250.975Y-94.66
X250.975Y-105.16
X250.975Y-114.16
X250.975Y-124.66
X250.975Y-141.16
X250.975Y-160.66
X252.475Y-87.16
X252.475Y-100.66
X252.475Y-120.16
X252.475Y-127.66
X252.475Y-133.66
X252.475Y-138.16
X252.475Y-147.16
X252.475Y-151.66
X252.475Y-156.16
X253.975Y-90.16
X253.975Y-94.66
X253.975Y-97.66
X253.975Y-103.66
X253.975Y-108.16
X253.975Y-112.66
X253.975Y-117.16
X253.975Y-123.16
X253.975Y-144.16
X253.975Y-159.16
X255.475Y-126.16
X255.475Y-132.16
X255.475Y-136.66
X255.475Y-141.16
X255.475Y-150.16
X255.475Y-154.66
X256.975Y-87.16
X256.975Y-93.16
X256.975Y-120.16
X256.975Y-127.66
X256.975Y-147.16
X256.975Y-157.66
X256.975Y-162.16
X258.475Y-90.16
X258.475Y-112.66
X258.475Y-123.16
X258.475Y-130.66
X258.475Y-135.16
X258.475Y-139.66
X258.475Y-144.16
X258.475Y-153.16
X259.975Y-84.16
X259.975Y-124.66
X259.975Y-150.16
X259.975Y-160.66
X261.475Y-87.16
X261.475Y-94.66
X261.475Y-99.16
X261.475Y-106.66
X261.475Y-111.16
X261.475Y-115.66
X261.475Y-120.16
X261.475Y-127.66
X261.475Y-133.66
X261.475Y-138.16
X261.475Y-142.66
X261.475Y-147.16
X261.475Y-157.66
X262.975Y-82.66
X262.975Y-103.66
X262.975Y-121.66
X262.975Y-130.66
X264.475Y-96.16
X264.475Y-100.66
X264.475Y-106.66
X264.475Y-124.66
X264.475Y-136.66
X264.475Y-141.16
X264.475Y-145.66
X264.475Y-160.66
X265.975Y-85.66
X265.975Y-112.66
X265.975Y-120.16
X265.975Y-127.66
X265.975Y-133.66
X265.975Y-148.66
X265.975Y-157.66
X267.475Y-82.66
X267.475Y-88.66
X267.475Y-93.16
X267.475Y-99.16
X267.475Y-103.66
X267.475Y-109.66
X267.475Y-123.16
X267.475Y-130.66
X267.475Y-139.66
X267.475Y-144.16
X267.475Y-154.66
X268.975Y-96.16
X268.975Y-106.66
X268.975Y-136.66
X268.975Y-147.16
X268.975Y-151.66
X268.975Y-160.66
X270.475Y-85.66
X270.475Y-91.66
X270.475Y-102.16
X270.475Y-112.66
X270.475Y-118.66
X270.475Y-132.16
X270.475Y-142.66
X270.475Y-157.66
X271.975Y-88.66
X271.975Y-94.66
X271.975Y-99.16
X271.975Y-105.16
X271.975Y-109.66
X271.975Y-115.66
X271.975Y-121.66
X271.975Y-135.16
X271.975Y-139.66
X271.975Y-145.66
X271.975Y-150.16
X271.975Y-154.66
T3
X193.623Y-99.91
X193.623Y-102.45
X193.623Y-104.99
X193.623Y-107.53
X193.623Y-110.07
X193.663Y-133.99
X193.663Y-136.53
X193.663Y-139.07
X193.663Y-141.61
X193.663Y-144.15
X196.163Y-99.91
X196.163Y-102.45
X196.163Y-104.99
X196.163Y-107.53
X196.163Y-110.07
X196.203Y-133.99
X196.203Y-136.53
X196.203Y-139.07
X196.203Y-141.61
X196.203Y-144.15
X198.703Y-99.91
X198.703Y-102.45
X198.703Y-104.99
X198.703Y-107.53
X198.703Y-110.07
X198.743Y-133.99
X198.743Y-136.53
X198.743Y-139.07
X198.743Y-141.61
X198.743Y-144.15
X201.243Y-99.91
X201.243Y-102.45
X201.243Y-104.99
X201.243Y-107.53
X201.243Y-110.07
X201.283Y-133.99
X201.283Y-136.53
X201.283Y-139.07
X201.283Y-141.61
X201.283Y-144.15
X203.783Y-99.91
X203.783Y-102.45
X203.783Y-104.99
X203.783Y-107.53
X203.783Y-110.07
X203.823Y-133.99
X203.823Y-136.53
X203.823Y-139.07
X203.823Y-141.61
X203.823Y-144.15
X243.313Y-135.985
X243.313Y-138.525
X243.313Y-141.065
X243.313Y-143.605
X243.313Y-146.145
X243.313Y-148.685
X243.313Y-151.225
X243.343Y-104.775
X243.343Y-107.315
X243.343Y-109.855
X243.343Y-112.395
X243.343Y-114.935
X243.343Y-117.475
X243.343Y-120.015
T4
X257.775Y-117.253
X267.775Y-117.253
T5
X193.543Y-113.125
X198.643Y-113.125
X207.343Y-150.425
X222.393Y-148.495
X238.593Y-88.725
X257.743Y-95.625
T6
X257.725Y-101.983
X257.725Y-109.183
T7
X193.55Y-118.525
X198.55Y-118.525
X212.51Y-150.46
X217.51Y-150.46
T8
X200.625Y-90.94
X200.625Y-153.94
X263.625Y-90.94
X263.625Y-153.94
T2
X263.175Y-98.833G85X264.275Y-98.833
G05
X263.175Y-112.333G85X264.275Y-112.333
G05
M30
