G04 #@! TF.GenerationSoftware,KiCad,Pcbnew,9.0.2*
G04 #@! TF.CreationDate,2026-03-25T19:39:52-07:00*
G04 #@! TF.ProjectId,PWM_amp,50574d5f-616d-4702-9e6b-696361645f70,rev?*
G04 #@! TF.SameCoordinates,Original*
G04 #@! TF.FileFunction,Soldermask,Bot*
G04 #@! TF.FilePolarity,Negative*
%FSLAX46Y46*%
G04 Gerber Fmt 4.6, Leading zero omitted, Abs format (unit mm)*
G04 Created by KiCad (PCBNEW 9.0.2) date 2026-03-25 19:39:52*
%MOMM*%
%LPD*%
G01*
G04 APERTURE LIST*
G04 Aperture macros list*
%AMRoundRect*
0 Rectangle with rounded corners*
0 $1 Rounding radius*
0 $2 $3 $4 $5 $6 $7 $8 $9 X,Y pos of 4 corners*
0 Add a 4 corners polygon primitive as box body*
4,1,4,$2,$3,$4,$5,$6,$7,$8,$9,$2,$3,0*
0 Add four circle primitives for the rounded corners*
1,1,$1+$1,$2,$3*
1,1,$1+$1,$4,$5*
1,1,$1+$1,$6,$7*
1,1,$1+$1,$8,$9*
0 Add four rect primitives between the rounded corners*
20,1,$1+$1,$2,$3,$4,$5,0*
20,1,$1+$1,$4,$5,$6,$7,0*
20,1,$1+$1,$6,$7,$8,$9,0*
20,1,$1+$1,$8,$9,$2,$3,0*%
%AMFreePoly0*
4,1,21,-1.900000,0.000000,-1.892219,0.114750,-1.847860,0.293119,-1.766195,0.457783,-1.651041,0.601041,-1.507783,0.716195,-1.343119,0.797860,-1.164750,0.842219,-1.050000,0.850000,1.900000,0.850000,1.900000,-0.850000,-1.050000,-0.850000,-1.164750,-0.842219,-1.343119,-0.797860,-1.507783,-0.716195,-1.651041,-0.601041,-1.766195,-0.457783,-1.847860,-0.293119,-1.892219,-0.114750,-1.900000,0.000000,
-1.900000,0.000000,-1.900000,0.000000,$1*%
G04 Aperture macros list end*
%ADD10C,1.700000*%
%ADD11FreePoly0,180.000000*%
%ADD12C,2.200000*%
%ADD13C,3.200000*%
%ADD14C,6.000000*%
%ADD15RoundRect,0.102000X1.858000X-1.858000X1.858000X1.858000X-1.858000X1.858000X-1.858000X-1.858000X0*%
%ADD16C,3.920000*%
%ADD17O,2.604000X1.404000*%
%ADD18C,4.004000*%
%ADD19RoundRect,0.250000X-2.000000X-1.400000X2.000000X-1.400000X2.000000X1.400000X-2.000000X1.400000X0*%
%ADD20RoundRect,0.250000X2.000000X1.400000X-2.000000X1.400000X-2.000000X-1.400000X2.000000X-1.400000X0*%
%ADD21RoundRect,0.250000X0.350000X0.450000X-0.350000X0.450000X-0.350000X-0.450000X0.350000X-0.450000X0*%
%ADD22RoundRect,0.250000X-0.450000X0.350000X-0.450000X-0.350000X0.450000X-0.350000X0.450000X0.350000X0*%
G04 APERTURE END LIST*
D10*
X203783118Y-107530000D03*
X203783118Y-104990000D03*
X203783118Y-102450000D03*
X201243118Y-107530000D03*
X201243118Y-104990000D03*
X201243118Y-102450000D03*
X198703118Y-107530000D03*
X198703118Y-104990000D03*
X198703118Y-102450000D03*
X196163118Y-107530000D03*
X196163118Y-104990000D03*
X196163118Y-102450000D03*
D11*
X192623118Y-107530000D03*
X192623118Y-104990000D03*
X192623118Y-102450000D03*
D10*
X203783118Y-99910000D03*
X201243118Y-99910000D03*
X198703118Y-99910000D03*
X196163118Y-99910000D03*
D11*
X192623118Y-99910000D03*
D10*
X203783118Y-110070000D03*
X201243118Y-110070000D03*
X198703118Y-110070000D03*
X196163118Y-110070000D03*
D11*
X192623118Y-110070000D03*
D10*
X203823118Y-141610000D03*
X203823118Y-139070000D03*
X203823118Y-136530000D03*
X201283118Y-141610000D03*
X201283118Y-139070000D03*
X201283118Y-136530000D03*
X198743118Y-141610000D03*
X198743118Y-139070000D03*
X198743118Y-136530000D03*
X196203118Y-141610000D03*
X196203118Y-139070000D03*
X196203118Y-136530000D03*
D11*
X192663118Y-141610000D03*
X192663118Y-139070000D03*
X192663118Y-136530000D03*
D10*
X203823118Y-133990000D03*
X201283118Y-133990000D03*
X198743118Y-133990000D03*
X196203118Y-133990000D03*
D11*
X192663118Y-133990000D03*
D10*
X203823118Y-144150000D03*
X201283118Y-144150000D03*
X198743118Y-144150000D03*
X196203118Y-144150000D03*
D11*
X192663118Y-144150000D03*
D12*
X238593118Y-88725000D03*
X257743118Y-95625000D03*
D13*
X263625000Y-90940000D03*
D14*
X263625000Y-90940000D03*
D13*
X200625000Y-153940000D03*
D14*
X200625000Y-153940000D03*
D10*
X243313118Y-151225000D03*
X243313118Y-148685000D03*
X243313118Y-146145000D03*
X243313118Y-143605000D03*
X243313118Y-141065000D03*
X243313118Y-138525000D03*
X243313118Y-135985000D03*
D12*
X193543118Y-113125000D03*
X198643118Y-113125000D03*
X207343118Y-150425000D03*
X222393118Y-148495000D03*
D10*
X243343118Y-120015000D03*
X243343118Y-117475000D03*
X243343118Y-114935000D03*
X243343118Y-112395000D03*
X243343118Y-109855000D03*
X243343118Y-107315000D03*
X243343118Y-104775000D03*
D15*
X257725000Y-109183118D03*
D16*
X257725000Y-101983118D03*
D17*
X263725000Y-112333118D03*
X263725000Y-98833118D03*
D18*
X193550000Y-118525000D03*
X198550000Y-118525000D03*
D13*
X200625000Y-90940000D03*
D14*
X200625000Y-90940000D03*
D19*
X258375000Y-117253118D03*
D20*
X267175000Y-117253118D03*
D13*
X263625000Y-153940000D03*
D14*
X263625000Y-153940000D03*
D18*
X212510000Y-150460000D03*
X217510000Y-150460000D03*
D21*
X241173118Y-104795000D03*
X239173118Y-104795000D03*
X241163118Y-135975000D03*
X239163118Y-135975000D03*
D22*
X237303118Y-135995000D03*
X237303118Y-137995000D03*
X237323118Y-104795000D03*
X237323118Y-106795000D03*
M02*
