G04 #@! TF.GenerationSoftware,KiCad,Pcbnew,9.0.2*
G04 #@! TF.CreationDate,2026-03-25T19:39:52-07:00*
G04 #@! TF.ProjectId,PWM_amp,50574d5f-616d-4702-9e6b-696361645f70,rev?*
G04 #@! TF.SameCoordinates,Original*
G04 #@! TF.FileFunction,Legend,Bot*
G04 #@! TF.FilePolarity,Positive*
%FSLAX46Y46*%
G04 Gerber Fmt 4.6, Leading zero omitted, Abs format (unit mm)*
G04 Created by KiCad (PCBNEW 9.0.2) date 2026-03-25 19:39:52*
%MOMM*%
%LPD*%
G01*
G04 APERTURE LIST*
%ADD10C,0.500000*%
%ADD11C,0.250000*%
%ADD12C,0.300000*%
%ADD13C,0.400000*%
%ADD14C,0.600000*%
%ADD15C,0.150000*%
%ADD16C,0.000000*%
%ADD17C,0.120000*%
G04 APERTURE END LIST*
D10*
X239688118Y-86635000D02*
X240688118Y-87635000D01*
X236518669Y-88934449D02*
X238797567Y-86635551D01*
X236498118Y-87635000D02*
X236498118Y-89825000D01*
X240688118Y-87635000D02*
X240688118Y-89825000D01*
X236498118Y-89825000D02*
X237498118Y-90825000D01*
X239688118Y-90825000D02*
X237498118Y-90825000D01*
X239688118Y-86635000D02*
X237498118Y-86635000D01*
X237638118Y-90765000D02*
X240618118Y-87785000D01*
X237498118Y-86635000D02*
X236498118Y-87635000D01*
X240688118Y-89825000D02*
X239688118Y-90825000D01*
D11*
X206343118Y-131055000D02*
X188543118Y-131055000D01*
D12*
G36*
X265083191Y-131630739D02*
G01*
X265299437Y-131630739D01*
X265299437Y-132443060D01*
X265303003Y-132485680D01*
X265316238Y-132521487D01*
X265328838Y-132541887D01*
X265410812Y-132655552D01*
X265505242Y-132514593D01*
X265516060Y-132498784D01*
X265535776Y-132468023D01*
X265545176Y-132434634D01*
X265545176Y-131940134D01*
X265755194Y-131940134D01*
X265755194Y-132434634D01*
X265764735Y-132468304D01*
X265784144Y-132498609D01*
X265795037Y-132514593D01*
X265889559Y-132655552D01*
X265971441Y-132541887D01*
X265990021Y-132509038D01*
X265998896Y-132476292D01*
X266000842Y-132443060D01*
X266000842Y-131630739D01*
X266217180Y-131630739D01*
X266217180Y-132440954D01*
X266214291Y-132488195D01*
X266205794Y-132530558D01*
X266173745Y-132605168D01*
X266141526Y-132653445D01*
X265986187Y-132861723D01*
X265797143Y-132861723D01*
X265650139Y-132645019D01*
X265503136Y-132861723D01*
X265314183Y-132861723D01*
X265158753Y-132653445D01*
X265124029Y-132600701D01*
X265099462Y-132546407D01*
X265088821Y-132505658D01*
X265083662Y-132460627D01*
X265083191Y-132440954D01*
X265083191Y-131630739D01*
G37*
G36*
X264622998Y-131958511D02*
G01*
X264703069Y-131991142D01*
X264738526Y-132014864D01*
X264769981Y-132042872D01*
X264797020Y-132074751D01*
X264819244Y-132110097D01*
X264836019Y-132147882D01*
X264847344Y-132188241D01*
X264853297Y-132247697D01*
X264853297Y-132565151D01*
X264850415Y-132607902D01*
X264841960Y-132648280D01*
X264809287Y-132721150D01*
X264756964Y-132781704D01*
X264686591Y-132827304D01*
X264645137Y-132843563D01*
X264600190Y-132854833D01*
X264523569Y-132861723D01*
X264086772Y-132861723D01*
X264086772Y-132672771D01*
X264538316Y-132672771D01*
X264588004Y-132662025D01*
X264610172Y-132648824D01*
X264627681Y-132631555D01*
X264638628Y-132612518D01*
X264643209Y-132591407D01*
X264643279Y-132588415D01*
X264643279Y-132493435D01*
X263973382Y-132493435D01*
X263973382Y-132247697D01*
X263975733Y-132230935D01*
X264183400Y-132230935D01*
X264183400Y-132310711D01*
X264643279Y-132310711D01*
X264643279Y-132230935D01*
X264632570Y-132193854D01*
X264599330Y-132158727D01*
X264576325Y-132146825D01*
X264550957Y-132140929D01*
X264542529Y-132140535D01*
X264277922Y-132140535D01*
X264238353Y-132151071D01*
X264200859Y-132183303D01*
X264188813Y-132204546D01*
X264183519Y-132227127D01*
X264183400Y-132230935D01*
X263975733Y-132230935D01*
X263984611Y-132167654D01*
X264017626Y-132094007D01*
X264071068Y-132030562D01*
X264104732Y-132004131D01*
X264142116Y-131982229D01*
X264182690Y-131965296D01*
X264226032Y-131953715D01*
X264292577Y-131947278D01*
X264534102Y-131947278D01*
X264622998Y-131958511D01*
G37*
G36*
X263409364Y-131632021D02*
G01*
X263644570Y-131632021D01*
X263644570Y-131850466D01*
X263409364Y-131849184D01*
X263409364Y-131632021D01*
G37*
G36*
X263235066Y-132667367D02*
G01*
X263419805Y-132667367D01*
X263419805Y-131941416D01*
X263806228Y-131941416D01*
X263806228Y-132132567D01*
X263629824Y-132132567D01*
X263629824Y-132667367D01*
X263806228Y-132667367D01*
X263806228Y-132850000D01*
X263235066Y-132850000D01*
X263235066Y-132667367D01*
G37*
G36*
X261451513Y-131630739D02*
G01*
X261663547Y-131630739D01*
X261663547Y-131946087D01*
X261666856Y-131987155D01*
X261678299Y-132012828D01*
X261688734Y-132023848D01*
X261917712Y-132221502D01*
X262150720Y-132023848D01*
X262166795Y-132006436D01*
X262174070Y-131985368D01*
X262175999Y-131946087D01*
X262175999Y-131630739D01*
X262385925Y-131630739D01*
X262385925Y-131952407D01*
X262382903Y-132000071D01*
X262373468Y-132044318D01*
X262359588Y-132079910D01*
X262340057Y-132112582D01*
X262306150Y-132149969D01*
X262024782Y-132395983D01*
X262024782Y-132850000D01*
X261810550Y-132850000D01*
X261810550Y-132395983D01*
X261531289Y-132149969D01*
X261501939Y-132119616D01*
X261480344Y-132088333D01*
X261457438Y-132024659D01*
X261451513Y-131952407D01*
X261451513Y-131630739D01*
G37*
G36*
X260368357Y-131957536D02*
G01*
X260578376Y-131959002D01*
X260578376Y-132551046D01*
X260683339Y-132643370D01*
X260707127Y-132660929D01*
X260734173Y-132671931D01*
X260777861Y-132676984D01*
X260947946Y-132676984D01*
X260989368Y-132666422D01*
X261026090Y-132635006D01*
X261037492Y-132614342D01*
X261042377Y-132592173D01*
X261042468Y-132588782D01*
X261042468Y-131959002D01*
X261252394Y-131959002D01*
X261252394Y-132563594D01*
X261249507Y-132606685D01*
X261241017Y-132647675D01*
X261227114Y-132686355D01*
X261208086Y-132722169D01*
X261184147Y-132754801D01*
X261155593Y-132783805D01*
X261122740Y-132808771D01*
X261085813Y-132829372D01*
X261045253Y-132845178D01*
X261001174Y-132855913D01*
X260933199Y-132861723D01*
X260794622Y-132861723D01*
X260725393Y-132850966D01*
X260656765Y-132818557D01*
X260578376Y-132758866D01*
X260578376Y-132851282D01*
X260368357Y-132850000D01*
X260368357Y-131957536D01*
G37*
G36*
X259907157Y-131958511D02*
G01*
X259987228Y-131991142D01*
X260022685Y-132014864D01*
X260054140Y-132042872D01*
X260081179Y-132074751D01*
X260103403Y-132110097D01*
X260120179Y-132147882D01*
X260131503Y-132188241D01*
X260137456Y-132247697D01*
X260137456Y-132565151D01*
X260134574Y-132607902D01*
X260126119Y-132648280D01*
X260093446Y-132721150D01*
X260041123Y-132781704D01*
X259970750Y-132827304D01*
X259929296Y-132843563D01*
X259884349Y-132854833D01*
X259807728Y-132861723D01*
X259370931Y-132861723D01*
X259370931Y-132672771D01*
X259822475Y-132672771D01*
X259872163Y-132662025D01*
X259894331Y-132648824D01*
X259911841Y-132631555D01*
X259922787Y-132612518D01*
X259927368Y-132591407D01*
X259927438Y-132588415D01*
X259927438Y-132493435D01*
X259257541Y-132493435D01*
X259257541Y-132247697D01*
X259259892Y-132230935D01*
X259467559Y-132230935D01*
X259467559Y-132310711D01*
X259927438Y-132310711D01*
X259927438Y-132230935D01*
X259916729Y-132193854D01*
X259883489Y-132158727D01*
X259860484Y-132146825D01*
X259835116Y-132140929D01*
X259826688Y-132140535D01*
X259562081Y-132140535D01*
X259522512Y-132151071D01*
X259485018Y-132183303D01*
X259472972Y-132204546D01*
X259467678Y-132227127D01*
X259467559Y-132230935D01*
X259259892Y-132230935D01*
X259268770Y-132167654D01*
X259301786Y-132094007D01*
X259355227Y-132030562D01*
X259388891Y-132004131D01*
X259426275Y-131982229D01*
X259466849Y-131965296D01*
X259510192Y-131953715D01*
X259576736Y-131947278D01*
X259818261Y-131947278D01*
X259907157Y-131958511D01*
G37*
G36*
X265324716Y-134150739D02*
G01*
X265536750Y-134150739D01*
X265536750Y-134466087D01*
X265540059Y-134507155D01*
X265551502Y-134532828D01*
X265561937Y-134543848D01*
X265790915Y-134741502D01*
X266023923Y-134543848D01*
X266039998Y-134526436D01*
X266047273Y-134505368D01*
X266049202Y-134466087D01*
X266049202Y-134150739D01*
X266259128Y-134150739D01*
X266259128Y-134472407D01*
X266256106Y-134520071D01*
X266246671Y-134564318D01*
X266232791Y-134599910D01*
X266213261Y-134632582D01*
X266179353Y-134669969D01*
X265897985Y-134915983D01*
X265897985Y-135370000D01*
X265683753Y-135370000D01*
X265683753Y-134915983D01*
X265404492Y-134669969D01*
X265375142Y-134639616D01*
X265353547Y-134608333D01*
X265330641Y-134544659D01*
X265324716Y-134472407D01*
X265324716Y-134150739D01*
G37*
G36*
X264241560Y-134477536D02*
G01*
X264451579Y-134479002D01*
X264451579Y-135071046D01*
X264556542Y-135163370D01*
X264580331Y-135180929D01*
X264607376Y-135191931D01*
X264651064Y-135196984D01*
X264821149Y-135196984D01*
X264862572Y-135186422D01*
X264899293Y-135155006D01*
X264910695Y-135134342D01*
X264915580Y-135112173D01*
X264915671Y-135108782D01*
X264915671Y-134479002D01*
X265125597Y-134479002D01*
X265125597Y-135083594D01*
X265122710Y-135126685D01*
X265114220Y-135167675D01*
X265100317Y-135206355D01*
X265081289Y-135242169D01*
X265057350Y-135274801D01*
X265028796Y-135303805D01*
X264995943Y-135328771D01*
X264959016Y-135349372D01*
X264918456Y-135365178D01*
X264874377Y-135375913D01*
X264806403Y-135381723D01*
X264667825Y-135381723D01*
X264598596Y-135370966D01*
X264529968Y-135338557D01*
X264451579Y-135278866D01*
X264451579Y-135371282D01*
X264241560Y-135370000D01*
X264241560Y-134477536D01*
G37*
G36*
X263139170Y-134742143D02*
G01*
X263142060Y-134699286D01*
X263150561Y-134659436D01*
X263164173Y-134623320D01*
X263182747Y-134590486D01*
X263233869Y-134535360D01*
X263303419Y-134494990D01*
X263391389Y-134471685D01*
X263456259Y-134467278D01*
X263676810Y-134467278D01*
X263725381Y-134470153D01*
X263771291Y-134478554D01*
X263814572Y-134492287D01*
X263854460Y-134510958D01*
X263890710Y-134534296D01*
X263922851Y-134561906D01*
X263950406Y-134593267D01*
X263973208Y-134628168D01*
X263990733Y-134665787D01*
X264002956Y-134706196D01*
X264010659Y-134776031D01*
X264010659Y-135073702D01*
X264007778Y-135117994D01*
X263999334Y-135159467D01*
X263985651Y-135197869D01*
X263967017Y-135233068D01*
X263915497Y-135293598D01*
X263845945Y-135339375D01*
X263759657Y-135367770D01*
X263674703Y-135375861D01*
X263223159Y-135375861D01*
X263223159Y-135182696D01*
X263685145Y-135182696D01*
X263717957Y-135179884D01*
X263745226Y-135171928D01*
X263766455Y-135159950D01*
X263782542Y-135144450D01*
X263799519Y-135105186D01*
X263800641Y-135090464D01*
X263800641Y-134761194D01*
X263797726Y-134735647D01*
X263789041Y-134712672D01*
X263775613Y-134693976D01*
X263757192Y-134678839D01*
X263734464Y-134668081D01*
X263707125Y-134661871D01*
X263685145Y-134660535D01*
X263447832Y-134660535D01*
X263411953Y-134663423D01*
X263384854Y-134671911D01*
X263368417Y-134683144D01*
X263357262Y-134697971D01*
X263349189Y-134736006D01*
X263349189Y-134832452D01*
X263139170Y-134832726D01*
X263139170Y-134742143D01*
G37*
G36*
X262025331Y-134752584D02*
G01*
X262036661Y-134669247D01*
X262069713Y-134593960D01*
X262122632Y-134530683D01*
X262155683Y-134504868D01*
X262192693Y-134483501D01*
X262232971Y-134467119D01*
X262276515Y-134455916D01*
X262344526Y-134449692D01*
X262478890Y-134449692D01*
X262543664Y-134460361D01*
X262603387Y-134491552D01*
X262676413Y-134553573D01*
X262709883Y-134584148D01*
X262709883Y-134150739D01*
X262919901Y-134150739D01*
X262919901Y-135370000D01*
X262709883Y-135370000D01*
X262709883Y-134809462D01*
X262562879Y-134674549D01*
X262537068Y-134656043D01*
X262510385Y-134644821D01*
X262460023Y-134638736D01*
X262329780Y-134638736D01*
X262291997Y-134649208D01*
X262253555Y-134682159D01*
X262240852Y-134703785D01*
X262235349Y-134726276D01*
X262235258Y-134729412D01*
X262235258Y-135370000D01*
X262025331Y-135370000D01*
X262025331Y-134752584D01*
G37*
G36*
X261574847Y-134478511D02*
G01*
X261654918Y-134511142D01*
X261690375Y-134534864D01*
X261721830Y-134562872D01*
X261748870Y-134594751D01*
X261771093Y-134630097D01*
X261787869Y-134667882D01*
X261799193Y-134708241D01*
X261805146Y-134767697D01*
X261805146Y-135085151D01*
X261802264Y-135127902D01*
X261793809Y-135168280D01*
X261761136Y-135241150D01*
X261708813Y-135301704D01*
X261638440Y-135347304D01*
X261596986Y-135363563D01*
X261552039Y-135374833D01*
X261475419Y-135381723D01*
X261038621Y-135381723D01*
X261038621Y-135192771D01*
X261490165Y-135192771D01*
X261539853Y-135182025D01*
X261562021Y-135168824D01*
X261579531Y-135151555D01*
X261590478Y-135132518D01*
X261595058Y-135111407D01*
X261595128Y-135108415D01*
X261595128Y-135013435D01*
X260925231Y-135013435D01*
X260925231Y-134767697D01*
X260927582Y-134750935D01*
X261135249Y-134750935D01*
X261135249Y-134830711D01*
X261595128Y-134830711D01*
X261595128Y-134750935D01*
X261584419Y-134713854D01*
X261551180Y-134678727D01*
X261528174Y-134666825D01*
X261502806Y-134660929D01*
X261494378Y-134660535D01*
X261229771Y-134660535D01*
X261190202Y-134671071D01*
X261152708Y-134703303D01*
X261140662Y-134724546D01*
X261135368Y-134747127D01*
X261135249Y-134750935D01*
X260927582Y-134750935D01*
X260936460Y-134687654D01*
X260969476Y-134614007D01*
X261022917Y-134550562D01*
X261056581Y-134524131D01*
X261093965Y-134502229D01*
X261134539Y-134485296D01*
X261177882Y-134473715D01*
X261244426Y-134467278D01*
X261485952Y-134467278D01*
X261574847Y-134478511D01*
G37*
G36*
X259823574Y-134765498D02*
G01*
X259834902Y-134684207D01*
X259868119Y-134610016D01*
X259921514Y-134547223D01*
X259954896Y-134521558D01*
X259992280Y-134500329D01*
X260032885Y-134484126D01*
X260076770Y-134473125D01*
X260142769Y-134467278D01*
X260264585Y-134467278D01*
X260331123Y-134477961D01*
X260391935Y-134509066D01*
X260466632Y-134571388D01*
X260495577Y-134597520D01*
X260495577Y-134477811D01*
X260705596Y-134477811D01*
X260705596Y-135370000D01*
X260495577Y-135370000D01*
X260495577Y-134820087D01*
X260348574Y-134689936D01*
X260320965Y-134670298D01*
X260292619Y-134658680D01*
X260256158Y-134654215D01*
X260128114Y-134654215D01*
X260089392Y-134664752D01*
X260051056Y-134697610D01*
X260038875Y-134718935D01*
X260033667Y-134741559D01*
X260033592Y-134744524D01*
X260033592Y-135370000D01*
X259823574Y-135370000D01*
X259823574Y-134765498D01*
G37*
G36*
X259362652Y-134478490D02*
G01*
X259442015Y-134511733D01*
X259511313Y-134565427D01*
X259540181Y-134598783D01*
X259564307Y-134635713D01*
X259582873Y-134674941D01*
X259595902Y-134716683D01*
X259604030Y-134786564D01*
X259604030Y-134904259D01*
X259592955Y-134986917D01*
X259560327Y-135064000D01*
X259507502Y-135131663D01*
X259452813Y-135175185D01*
X259530574Y-135276119D01*
X259562913Y-135336269D01*
X259568309Y-135366427D01*
X259565369Y-135398885D01*
X259556510Y-135426786D01*
X259543534Y-135447868D01*
X259525742Y-135465308D01*
X259475500Y-135489272D01*
X259394012Y-135498777D01*
X259007680Y-135498777D01*
X258980612Y-135501666D01*
X258957932Y-135510168D01*
X258941260Y-135522687D01*
X258928792Y-135539526D01*
X258917455Y-135585310D01*
X258917372Y-135590276D01*
X258920271Y-135621494D01*
X258928842Y-135646812D01*
X258941045Y-135664536D01*
X258957433Y-135677978D01*
X259003326Y-135692838D01*
X259028655Y-135694323D01*
X259307916Y-135694323D01*
X259340446Y-135691421D01*
X259366140Y-135682827D01*
X259382680Y-135671100D01*
X259394228Y-135655448D01*
X259402438Y-135617387D01*
X259402438Y-135581025D01*
X259604030Y-135581025D01*
X259604030Y-135612533D01*
X259601136Y-135657557D01*
X259592599Y-135699408D01*
X259579023Y-135736999D01*
X259560477Y-135771112D01*
X259537485Y-135801171D01*
X259510044Y-135827408D01*
X259442306Y-135867688D01*
X259357319Y-135890207D01*
X259299581Y-135893992D01*
X259037081Y-135893992D01*
X258987765Y-135891103D01*
X258941386Y-135882603D01*
X258898786Y-135868934D01*
X258859757Y-135850272D01*
X258825214Y-135827296D01*
X258794790Y-135799961D01*
X258769228Y-135769075D01*
X258748278Y-135734420D01*
X258732412Y-135696679D01*
X258721661Y-135655678D01*
X258715780Y-135591558D01*
X258718703Y-135545780D01*
X258727444Y-135502598D01*
X258741239Y-135464071D01*
X258760297Y-135428760D01*
X258783524Y-135398245D01*
X258811535Y-135371432D01*
X258843460Y-135349174D01*
X258879879Y-135331123D01*
X258920640Y-135317645D01*
X258965806Y-135309016D01*
X259022335Y-135305519D01*
X259318449Y-135305519D01*
X259247008Y-135223454D01*
X259064375Y-135223454D01*
X258974060Y-135212224D01*
X258892974Y-135179667D01*
X258824592Y-135127851D01*
X258796391Y-135095610D01*
X258772883Y-135059845D01*
X258754493Y-135021169D01*
X258741451Y-134979847D01*
X258732541Y-134904259D01*
X258732541Y-134790778D01*
X258735057Y-134776031D01*
X258934133Y-134776031D01*
X258934133Y-134914792D01*
X258945087Y-134961457D01*
X258977186Y-135001070D01*
X258999584Y-135014937D01*
X259025241Y-135023554D01*
X259049629Y-135026075D01*
X259284835Y-135026075D01*
X259336336Y-135015289D01*
X259376495Y-134985075D01*
X259390569Y-134963929D01*
X259399391Y-134940185D01*
X259402438Y-134914792D01*
X259402438Y-134776031D01*
X259391384Y-134726523D01*
X259377957Y-134705159D01*
X259359978Y-134687530D01*
X259338327Y-134674575D01*
X259313293Y-134666772D01*
X259291155Y-134664748D01*
X259045416Y-134664748D01*
X258996959Y-134675611D01*
X258958198Y-134706563D01*
X258944749Y-134728255D01*
X258936519Y-134752856D01*
X258934133Y-134776031D01*
X258735057Y-134776031D01*
X258743112Y-134728823D01*
X258756847Y-134696708D01*
X258774617Y-134669514D01*
X258789236Y-134654215D01*
X258694714Y-134654215D01*
X258694714Y-134467278D01*
X259278515Y-134467278D01*
X259362652Y-134478490D01*
G37*
G36*
X256869029Y-134150739D02*
G01*
X257081062Y-134150739D01*
X257081062Y-134466087D01*
X257084372Y-134507155D01*
X257095814Y-134532828D01*
X257106250Y-134543848D01*
X257335228Y-134741502D01*
X257568235Y-134543848D01*
X257584311Y-134526436D01*
X257591586Y-134505368D01*
X257593514Y-134466087D01*
X257593514Y-134150739D01*
X257803441Y-134150739D01*
X257803441Y-134472407D01*
X257800418Y-134520071D01*
X257790984Y-134564318D01*
X257777104Y-134599910D01*
X257757573Y-134632582D01*
X257723665Y-134669969D01*
X257442298Y-134915983D01*
X257442298Y-135370000D01*
X257228066Y-135370000D01*
X257228066Y-134915983D01*
X256948805Y-134669969D01*
X256919455Y-134639616D01*
X256897860Y-134608333D01*
X256874954Y-134544659D01*
X256869029Y-134472407D01*
X256869029Y-134150739D01*
G37*
G36*
X256558627Y-134656047D02*
G01*
X256140788Y-134656047D01*
X256098525Y-134658988D01*
X256065767Y-134667854D01*
X256045661Y-134679442D01*
X256030917Y-134695003D01*
X256016178Y-134736135D01*
X256014759Y-134758995D01*
X256014759Y-134857639D01*
X256040370Y-134837558D01*
X256082274Y-134805269D01*
X256126661Y-134776683D01*
X256175057Y-134756261D01*
X256228991Y-134748463D01*
X256394862Y-134748463D01*
X256476543Y-134759675D01*
X256553441Y-134792931D01*
X256587404Y-134817000D01*
X256617173Y-134845366D01*
X256641388Y-134876592D01*
X256660336Y-134911043D01*
X256672827Y-134946232D01*
X256679475Y-134983599D01*
X256680443Y-135004643D01*
X256680443Y-135124352D01*
X256677564Y-135164104D01*
X256669133Y-135201123D01*
X256636898Y-135266154D01*
X256585200Y-135318785D01*
X256514659Y-135357118D01*
X256426334Y-135377910D01*
X256378101Y-135380532D01*
X256214245Y-135380532D01*
X256149778Y-135369939D01*
X256077495Y-135336447D01*
X256016866Y-135294437D01*
X256016866Y-135370000D01*
X255806847Y-135370000D01*
X255806847Y-135076816D01*
X256016866Y-135076816D01*
X256016866Y-135097241D01*
X256107175Y-135168408D01*
X256135104Y-135189638D01*
X256165326Y-135201148D01*
X256197483Y-135204128D01*
X256388542Y-135205410D01*
X256418538Y-135202576D01*
X256441837Y-135194462D01*
X256457155Y-135183127D01*
X256467198Y-135168411D01*
X256472531Y-135142121D01*
X256472531Y-135009405D01*
X256469626Y-134984486D01*
X256461012Y-134963183D01*
X256448234Y-134947430D01*
X256430907Y-134935836D01*
X256388542Y-134927157D01*
X256247858Y-134927157D01*
X256216557Y-134930135D01*
X256190246Y-134939258D01*
X256149123Y-134967274D01*
X256016866Y-135076816D01*
X255806847Y-135076816D01*
X255806847Y-134756889D01*
X255809733Y-134715550D01*
X255818208Y-134676226D01*
X255851202Y-134604401D01*
X255904227Y-134544344D01*
X255937738Y-134519726D01*
X255975402Y-134499384D01*
X256017072Y-134483636D01*
X256062327Y-134472927D01*
X256132362Y-134467095D01*
X256558627Y-134467095D01*
X256558627Y-134656047D01*
G37*
G36*
X254684216Y-134765498D02*
G01*
X254695544Y-134684207D01*
X254728761Y-134610016D01*
X254782156Y-134547223D01*
X254815538Y-134521558D01*
X254852922Y-134500329D01*
X254893527Y-134484126D01*
X254937412Y-134473125D01*
X255003411Y-134467278D01*
X255125227Y-134467278D01*
X255191765Y-134477961D01*
X255252577Y-134509066D01*
X255327274Y-134571388D01*
X255356219Y-134597520D01*
X255356219Y-134477811D01*
X255566238Y-134477811D01*
X255566238Y-135370000D01*
X255356219Y-135370000D01*
X255356219Y-134820087D01*
X255209216Y-134689936D01*
X255181607Y-134670298D01*
X255153261Y-134658680D01*
X255116800Y-134654215D01*
X254988756Y-134654215D01*
X254950034Y-134664752D01*
X254911698Y-134697610D01*
X254899517Y-134718935D01*
X254894309Y-134741559D01*
X254894234Y-134744524D01*
X254894234Y-135370000D01*
X254684216Y-135370000D01*
X254684216Y-134765498D01*
G37*
G36*
X254223294Y-134478490D02*
G01*
X254302657Y-134511733D01*
X254371955Y-134565427D01*
X254400823Y-134598783D01*
X254424949Y-134635713D01*
X254443515Y-134674941D01*
X254456544Y-134716683D01*
X254464672Y-134786564D01*
X254464672Y-134904259D01*
X254453597Y-134986917D01*
X254420969Y-135064000D01*
X254368144Y-135131663D01*
X254313455Y-135175185D01*
X254391216Y-135276119D01*
X254423555Y-135336269D01*
X254428951Y-135366427D01*
X254426011Y-135398885D01*
X254417152Y-135426786D01*
X254404176Y-135447868D01*
X254386384Y-135465308D01*
X254336142Y-135489272D01*
X254254654Y-135498777D01*
X253868322Y-135498777D01*
X253841254Y-135501666D01*
X253818574Y-135510168D01*
X253801902Y-135522687D01*
X253789434Y-135539526D01*
X253778097Y-135585310D01*
X253778014Y-135590276D01*
X253780913Y-135621494D01*
X253789484Y-135646812D01*
X253801687Y-135664536D01*
X253818075Y-135677978D01*
X253863968Y-135692838D01*
X253889297Y-135694323D01*
X254168558Y-135694323D01*
X254201088Y-135691421D01*
X254226782Y-135682827D01*
X254243322Y-135671100D01*
X254254870Y-135655448D01*
X254263080Y-135617387D01*
X254263080Y-135581025D01*
X254464672Y-135581025D01*
X254464672Y-135612533D01*
X254461778Y-135657557D01*
X254453241Y-135699408D01*
X254439665Y-135736999D01*
X254421119Y-135771112D01*
X254398127Y-135801171D01*
X254370686Y-135827408D01*
X254302948Y-135867688D01*
X254217961Y-135890207D01*
X254160223Y-135893992D01*
X253897723Y-135893992D01*
X253848407Y-135891103D01*
X253802028Y-135882603D01*
X253759428Y-135868934D01*
X253720399Y-135850272D01*
X253685856Y-135827296D01*
X253655432Y-135799961D01*
X253629870Y-135769075D01*
X253608920Y-135734420D01*
X253593054Y-135696679D01*
X253582303Y-135655678D01*
X253576422Y-135591558D01*
X253579345Y-135545780D01*
X253588086Y-135502598D01*
X253601881Y-135464071D01*
X253620939Y-135428760D01*
X253644166Y-135398245D01*
X253672177Y-135371432D01*
X253704102Y-135349174D01*
X253740521Y-135331123D01*
X253781282Y-135317645D01*
X253826448Y-135309016D01*
X253882977Y-135305519D01*
X254179091Y-135305519D01*
X254107650Y-135223454D01*
X253925017Y-135223454D01*
X253834702Y-135212224D01*
X253753616Y-135179667D01*
X253685234Y-135127851D01*
X253657033Y-135095610D01*
X253633525Y-135059845D01*
X253615135Y-135021169D01*
X253602093Y-134979847D01*
X253593183Y-134904259D01*
X253593183Y-134790778D01*
X253595699Y-134776031D01*
X253794775Y-134776031D01*
X253794775Y-134914792D01*
X253805729Y-134961457D01*
X253837828Y-135001070D01*
X253860226Y-135014937D01*
X253885883Y-135023554D01*
X253910271Y-135026075D01*
X254145477Y-135026075D01*
X254196978Y-135015289D01*
X254237137Y-134985075D01*
X254251211Y-134963929D01*
X254260033Y-134940185D01*
X254263080Y-134914792D01*
X254263080Y-134776031D01*
X254252026Y-134726523D01*
X254238599Y-134705159D01*
X254220620Y-134687530D01*
X254198969Y-134674575D01*
X254173935Y-134666772D01*
X254151797Y-134664748D01*
X253906058Y-134664748D01*
X253857601Y-134675611D01*
X253818840Y-134706563D01*
X253805391Y-134728255D01*
X253797161Y-134752856D01*
X253794775Y-134776031D01*
X253595699Y-134776031D01*
X253603754Y-134728823D01*
X253617489Y-134696708D01*
X253635259Y-134669514D01*
X253649878Y-134654215D01*
X253555356Y-134654215D01*
X253555356Y-134467278D01*
X254139157Y-134467278D01*
X254223294Y-134478490D01*
G37*
G36*
X266196205Y-137890000D02*
G01*
X265986187Y-137890000D01*
X265986187Y-137380020D01*
X265633378Y-137380020D01*
X265584433Y-137377152D01*
X265538728Y-137368798D01*
X265496250Y-137355242D01*
X265457494Y-137336900D01*
X265422422Y-137313956D01*
X265391586Y-137286929D01*
X265343228Y-137221625D01*
X265326364Y-137184153D01*
X265314791Y-137144110D01*
X265307864Y-137077953D01*
X265307864Y-136969143D01*
X265308974Y-136952382D01*
X265517882Y-136952382D01*
X265517882Y-137088486D01*
X265520833Y-137119814D01*
X265529769Y-137145309D01*
X265542147Y-137162378D01*
X265559004Y-137175237D01*
X265606257Y-137188302D01*
X265622845Y-137188961D01*
X265986187Y-137188961D01*
X265986187Y-136856028D01*
X265618632Y-136856028D01*
X265590224Y-136858911D01*
X265565771Y-136867369D01*
X265546976Y-136880038D01*
X265532499Y-136897080D01*
X265518305Y-136941774D01*
X265517882Y-136952382D01*
X265308974Y-136952382D01*
X265310739Y-136925714D01*
X265319140Y-136884717D01*
X265351688Y-136810224D01*
X265403780Y-136747917D01*
X265473437Y-136700791D01*
X265514083Y-136683961D01*
X265557837Y-136672240D01*
X265633378Y-136664877D01*
X266196205Y-136664877D01*
X266196205Y-137890000D01*
G37*
G36*
X264164258Y-137528856D02*
G01*
X264378489Y-137528856D01*
X264378489Y-137638032D01*
X264381990Y-137662022D01*
X264394771Y-137681554D01*
X264433096Y-137698814D01*
X264483452Y-137703154D01*
X264790099Y-137703154D01*
X264837390Y-137692204D01*
X264874286Y-137661138D01*
X264886524Y-137639494D01*
X264893581Y-137614706D01*
X264895063Y-137596084D01*
X264895063Y-136968135D01*
X264892188Y-136939320D01*
X264883786Y-136914346D01*
X264871035Y-136894624D01*
X264853911Y-136879106D01*
X264808675Y-136862280D01*
X264790099Y-136861065D01*
X264483452Y-136861065D01*
X264453847Y-136862773D01*
X264428837Y-136869708D01*
X264408704Y-136881008D01*
X264393525Y-136895906D01*
X264378802Y-136933562D01*
X264378489Y-136940475D01*
X264378489Y-137028677D01*
X264164258Y-137028677D01*
X264164258Y-136961449D01*
X264175464Y-136880776D01*
X264208214Y-136807525D01*
X264261240Y-136744529D01*
X264332249Y-136695970D01*
X264373239Y-136678572D01*
X264416920Y-136666470D01*
X264489772Y-136659016D01*
X264779566Y-136659016D01*
X264826538Y-136661887D01*
X264870982Y-136670262D01*
X264952190Y-136702721D01*
X265019912Y-136754147D01*
X265047598Y-136786064D01*
X265070590Y-136821518D01*
X265088472Y-136859907D01*
X265101043Y-136901016D01*
X265109294Y-136974089D01*
X265109294Y-137586284D01*
X265097957Y-137671556D01*
X265064840Y-137748958D01*
X265011795Y-137814419D01*
X264978683Y-137841325D01*
X264941582Y-137863810D01*
X264901242Y-137881301D01*
X264857602Y-137893653D01*
X264779566Y-137901723D01*
X264493985Y-137901723D01*
X264441394Y-137898792D01*
X264390490Y-137889994D01*
X264344048Y-137875988D01*
X264301000Y-137856545D01*
X264264924Y-137833673D01*
X264233249Y-137806125D01*
X264208610Y-137776654D01*
X264188856Y-137743222D01*
X264175229Y-137708152D01*
X264166880Y-137669573D01*
X264164258Y-137630430D01*
X264164258Y-137528856D01*
G37*
G36*
X263913023Y-137895861D02*
G01*
X263345983Y-137895861D01*
X263290614Y-137892970D01*
X263239831Y-137884457D01*
X263195320Y-137871149D01*
X263155281Y-137853052D01*
X263120737Y-137831068D01*
X263090614Y-137804955D01*
X263044358Y-137741803D01*
X263016309Y-137663597D01*
X263007920Y-137581246D01*
X263007920Y-137493319D01*
X263222060Y-137493319D01*
X263222060Y-137600114D01*
X263224959Y-137629011D01*
X263233523Y-137653592D01*
X263246304Y-137672400D01*
X263263601Y-137687393D01*
X263312170Y-137705872D01*
X263350196Y-137709016D01*
X263705112Y-137709016D01*
X263705112Y-137371869D01*
X263312369Y-137371869D01*
X263281984Y-137375260D01*
X263256553Y-137387271D01*
X263242765Y-137401694D01*
X263232185Y-137422188D01*
X263222145Y-137485415D01*
X263222060Y-137493319D01*
X263007920Y-137493319D01*
X263007920Y-137474451D01*
X263019042Y-137396280D01*
X263051575Y-137325180D01*
X263098229Y-137273134D01*
X263072406Y-137247866D01*
X263050198Y-137216809D01*
X263033890Y-137183118D01*
X263022051Y-137143968D01*
X263014149Y-137067512D01*
X263014149Y-136985629D01*
X263015222Y-136968868D01*
X263228380Y-136968868D01*
X263228380Y-137065405D01*
X263231362Y-137111540D01*
X263240512Y-137143732D01*
X263251370Y-137159899D01*
X263265861Y-137170732D01*
X263307228Y-137180231D01*
X263325009Y-137180718D01*
X263705112Y-137180718D01*
X263705112Y-136859783D01*
X263337557Y-136859783D01*
X263308633Y-136862674D01*
X263283317Y-136871186D01*
X263263307Y-136884084D01*
X263247395Y-136901528D01*
X263236285Y-136922635D01*
X263229868Y-136947661D01*
X263228380Y-136968868D01*
X263015222Y-136968868D01*
X263017036Y-136940545D01*
X263025528Y-136897794D01*
X263039375Y-136857683D01*
X263058315Y-136820566D01*
X263082102Y-136786760D01*
X263110469Y-136756610D01*
X263143162Y-136730444D01*
X263179918Y-136708594D01*
X263220471Y-136691395D01*
X263264568Y-136679171D01*
X263348090Y-136670739D01*
X263913023Y-136670739D01*
X263913023Y-137895861D01*
G37*
G36*
X262043558Y-137890000D02*
G01*
X261833540Y-137890000D01*
X261833540Y-137795569D01*
X261769459Y-137847385D01*
X261699527Y-137885205D01*
X261662035Y-137896072D01*
X261621984Y-137900485D01*
X261617293Y-137900532D01*
X261468183Y-137900532D01*
X261420336Y-137897660D01*
X261375534Y-137889275D01*
X261333868Y-137875665D01*
X261295769Y-137857205D01*
X261261314Y-137834115D01*
X261230973Y-137806839D01*
X261183448Y-137740784D01*
X261166907Y-137702740D01*
X261155592Y-137661908D01*
X261148988Y-137595534D01*
X261148988Y-137274782D01*
X261152432Y-137249503D01*
X261358915Y-137249503D01*
X261358915Y-137622920D01*
X261369552Y-137660918D01*
X261402290Y-137696637D01*
X261424358Y-137708240D01*
X261448349Y-137713516D01*
X261453437Y-137713687D01*
X261634054Y-137713870D01*
X261665931Y-137711030D01*
X261692648Y-137702871D01*
X261728576Y-137680164D01*
X261833540Y-137582986D01*
X261833540Y-137329737D01*
X261686536Y-137194640D01*
X261660770Y-137176104D01*
X261634140Y-137164858D01*
X261583679Y-137158736D01*
X261453437Y-137158736D01*
X261415688Y-137169207D01*
X261377253Y-137202167D01*
X261364530Y-137223815D01*
X261359009Y-137246322D01*
X261358915Y-137249503D01*
X261152432Y-137249503D01*
X261160318Y-137191611D01*
X261193380Y-137116432D01*
X261246329Y-137053220D01*
X261279405Y-137027427D01*
X261316444Y-137006081D01*
X261356753Y-136989719D01*
X261400330Y-136978537D01*
X261468183Y-136972349D01*
X261602547Y-136972349D01*
X261668185Y-136983024D01*
X261728446Y-137014171D01*
X261802253Y-137076289D01*
X261833540Y-137104698D01*
X261833540Y-136672021D01*
X262043558Y-136672021D01*
X262043558Y-137890000D01*
G37*
G36*
X260067572Y-136999002D02*
G01*
X260277591Y-136999002D01*
X260277591Y-137598374D01*
X260367899Y-137667525D01*
X260409104Y-137693995D01*
X260458208Y-137703154D01*
X260647161Y-137703154D01*
X260676240Y-137700336D01*
X260699070Y-137692338D01*
X260714700Y-137680916D01*
X260725123Y-137666182D01*
X260731150Y-137638216D01*
X260731150Y-136999002D01*
X260939061Y-136999002D01*
X260939061Y-137629789D01*
X260936182Y-137670052D01*
X260927751Y-137707581D01*
X260895510Y-137773600D01*
X260843896Y-137827039D01*
X260773714Y-137865957D01*
X260686172Y-137887183D01*
X260636719Y-137890000D01*
X260474969Y-137890000D01*
X260408852Y-137879367D01*
X260335505Y-137845876D01*
X260277591Y-137806010D01*
X260277591Y-137887984D01*
X260280510Y-137921005D01*
X260289225Y-137950168D01*
X260302294Y-137973249D01*
X260320154Y-137992448D01*
X260368165Y-138017478D01*
X260424594Y-138024822D01*
X260794164Y-138024822D01*
X260794164Y-138218079D01*
X260422488Y-138218079D01*
X260327465Y-138206845D01*
X260241800Y-138174260D01*
X260169264Y-138122524D01*
X260139228Y-138090477D01*
X260113946Y-138054925D01*
X260093950Y-138016671D01*
X260079323Y-137975787D01*
X260070564Y-137933766D01*
X260067572Y-137890000D01*
X260067572Y-136999002D01*
G37*
G36*
X258375794Y-136670739D02*
G01*
X258865073Y-137213142D01*
X258865073Y-136670739D01*
X259081411Y-136670739D01*
X259081411Y-137890000D01*
X258865073Y-137890000D01*
X258865073Y-137513743D01*
X258718070Y-137347689D01*
X258380007Y-137890000D01*
X258121720Y-137890000D01*
X258577386Y-137192076D01*
X258109081Y-136670739D01*
X258375794Y-136670739D01*
G37*
G36*
X257748538Y-136998511D02*
G01*
X257828609Y-137031142D01*
X257864066Y-137054864D01*
X257895522Y-137082872D01*
X257922561Y-137114751D01*
X257944784Y-137150097D01*
X257961560Y-137187882D01*
X257972884Y-137228241D01*
X257978838Y-137287697D01*
X257978838Y-137605151D01*
X257975955Y-137647902D01*
X257967500Y-137688280D01*
X257934827Y-137761150D01*
X257882504Y-137821704D01*
X257812131Y-137867304D01*
X257770677Y-137883563D01*
X257725731Y-137894833D01*
X257649110Y-137901723D01*
X257212312Y-137901723D01*
X257212312Y-137712771D01*
X257663856Y-137712771D01*
X257713545Y-137702025D01*
X257735713Y-137688824D01*
X257753222Y-137671555D01*
X257764169Y-137652518D01*
X257768750Y-137631407D01*
X257768820Y-137628415D01*
X257768820Y-137533435D01*
X257098923Y-137533435D01*
X257098923Y-137287697D01*
X257101274Y-137270935D01*
X257308941Y-137270935D01*
X257308941Y-137350711D01*
X257768820Y-137350711D01*
X257768820Y-137270935D01*
X257758111Y-137233854D01*
X257724871Y-137198727D01*
X257701866Y-137186825D01*
X257676498Y-137180929D01*
X257668070Y-137180535D01*
X257403463Y-137180535D01*
X257363894Y-137191071D01*
X257326400Y-137223303D01*
X257314354Y-137244546D01*
X257309059Y-137267127D01*
X257308941Y-137270935D01*
X257101274Y-137270935D01*
X257110152Y-137207654D01*
X257143167Y-137134007D01*
X257196609Y-137070562D01*
X257230273Y-137044131D01*
X257267657Y-137022229D01*
X257308231Y-137005296D01*
X257351573Y-136993715D01*
X257418118Y-136987278D01*
X257659643Y-136987278D01*
X257748538Y-136998511D01*
G37*
G36*
X256012011Y-136999002D02*
G01*
X256226151Y-136999002D01*
X256226151Y-137406307D01*
X256230353Y-137450145D01*
X256253445Y-137486083D01*
X256453022Y-137710756D01*
X256648295Y-137486083D01*
X256669754Y-137454574D01*
X256675429Y-137420744D01*
X256675589Y-137406307D01*
X256675589Y-136999002D01*
X256889729Y-136999002D01*
X256889729Y-137412627D01*
X256886649Y-137463592D01*
X256876819Y-137507030D01*
X256843607Y-137570158D01*
X256812059Y-137607899D01*
X256541133Y-137901723D01*
X256360607Y-137901723D01*
X256089681Y-137607899D01*
X256055310Y-137566217D01*
X256031717Y-137524778D01*
X256013946Y-137453929D01*
X256012011Y-137412627D01*
X256012011Y-136999002D01*
G37*
G36*
X255427019Y-136672021D02*
G01*
X255662225Y-136672021D01*
X255662225Y-136890466D01*
X255427019Y-136889184D01*
X255427019Y-136672021D01*
G37*
G36*
X255252721Y-137707367D02*
G01*
X255437461Y-137707367D01*
X255437461Y-136981416D01*
X255823883Y-136981416D01*
X255823883Y-137172567D01*
X255647479Y-137172567D01*
X255647479Y-137707367D01*
X255823883Y-137707367D01*
X255823883Y-137890000D01*
X255252721Y-137890000D01*
X255252721Y-137707367D01*
G37*
G36*
X254193288Y-137285498D02*
G01*
X254204616Y-137204207D01*
X254237833Y-137130016D01*
X254291228Y-137067223D01*
X254324609Y-137041558D01*
X254361994Y-137020329D01*
X254402598Y-137004126D01*
X254446484Y-136993125D01*
X254512482Y-136987278D01*
X254634299Y-136987278D01*
X254700837Y-136997961D01*
X254761649Y-137029066D01*
X254836346Y-137091388D01*
X254865291Y-137117520D01*
X254865291Y-136997811D01*
X255075310Y-136997811D01*
X255075310Y-137890000D01*
X254865291Y-137890000D01*
X254865291Y-137340087D01*
X254718288Y-137209936D01*
X254690679Y-137190298D01*
X254662333Y-137178680D01*
X254625872Y-137174215D01*
X254497828Y-137174215D01*
X254459106Y-137184752D01*
X254420770Y-137217610D01*
X254408589Y-137238935D01*
X254403381Y-137261559D01*
X254403306Y-137264524D01*
X254403306Y-137890000D01*
X254193288Y-137890000D01*
X254193288Y-137285498D01*
G37*
G36*
X252346628Y-136670739D02*
G01*
X252558662Y-136670739D01*
X252558662Y-136986087D01*
X252561971Y-137027155D01*
X252573414Y-137052828D01*
X252583849Y-137063848D01*
X252812827Y-137261502D01*
X253045835Y-137063848D01*
X253061910Y-137046436D01*
X253069185Y-137025368D01*
X253071114Y-136986087D01*
X253071114Y-136670739D01*
X253281041Y-136670739D01*
X253281041Y-136992407D01*
X253278018Y-137040071D01*
X253268583Y-137084318D01*
X253254703Y-137119910D01*
X253235173Y-137152582D01*
X253201265Y-137189969D01*
X252919897Y-137435983D01*
X252919897Y-137890000D01*
X252705665Y-137890000D01*
X252705665Y-137435983D01*
X252426404Y-137189969D01*
X252397054Y-137159616D01*
X252375459Y-137128333D01*
X252352553Y-137064659D01*
X252346628Y-136992407D01*
X252346628Y-136670739D01*
G37*
G36*
X251792686Y-136672021D02*
G01*
X252027892Y-136672021D01*
X252027892Y-136890466D01*
X251792686Y-136889184D01*
X251792686Y-136672021D01*
G37*
G36*
X251618388Y-137707367D02*
G01*
X251803127Y-137707367D01*
X251803127Y-136981416D01*
X252189550Y-136981416D01*
X252189550Y-137172567D01*
X252013145Y-137172567D01*
X252013145Y-137707367D01*
X252189550Y-137707367D01*
X252189550Y-137890000D01*
X251618388Y-137890000D01*
X251618388Y-137707367D01*
G37*
G36*
X250558954Y-137285498D02*
G01*
X250570283Y-137204207D01*
X250603499Y-137130016D01*
X250656894Y-137067223D01*
X250690276Y-137041558D01*
X250727660Y-137020329D01*
X250768265Y-137004126D01*
X250812151Y-136993125D01*
X250878149Y-136987278D01*
X250999965Y-136987278D01*
X251066503Y-136997961D01*
X251127315Y-137029066D01*
X251202013Y-137091388D01*
X251230958Y-137117520D01*
X251230958Y-136997811D01*
X251440976Y-136997811D01*
X251440976Y-137890000D01*
X251230958Y-137890000D01*
X251230958Y-137340087D01*
X251083954Y-137209936D01*
X251056345Y-137190298D01*
X251028000Y-137178680D01*
X250991539Y-137174215D01*
X250863494Y-137174215D01*
X250824772Y-137184752D01*
X250786436Y-137217610D01*
X250774255Y-137238935D01*
X250769047Y-137261559D01*
X250768972Y-137264524D01*
X250768972Y-137890000D01*
X250558954Y-137890000D01*
X250558954Y-137285498D01*
G37*
G36*
X250098033Y-136998490D02*
G01*
X250177395Y-137031733D01*
X250246693Y-137085427D01*
X250275561Y-137118783D01*
X250299687Y-137155713D01*
X250318253Y-137194941D01*
X250331282Y-137236683D01*
X250339410Y-137306564D01*
X250339410Y-137424259D01*
X250328336Y-137506917D01*
X250295708Y-137584000D01*
X250242882Y-137651663D01*
X250188193Y-137695185D01*
X250265954Y-137796119D01*
X250298294Y-137856269D01*
X250303690Y-137886427D01*
X250300749Y-137918885D01*
X250291890Y-137946786D01*
X250278914Y-137967868D01*
X250261123Y-137985308D01*
X250210880Y-138009272D01*
X250129392Y-138018777D01*
X249743061Y-138018777D01*
X249715993Y-138021666D01*
X249693312Y-138030168D01*
X249676640Y-138042687D01*
X249664173Y-138059526D01*
X249652835Y-138105310D01*
X249652752Y-138110276D01*
X249655651Y-138141494D01*
X249664222Y-138166812D01*
X249676426Y-138184536D01*
X249692814Y-138197978D01*
X249738706Y-138212838D01*
X249764035Y-138214323D01*
X250043296Y-138214323D01*
X250075826Y-138211421D01*
X250101520Y-138202827D01*
X250118060Y-138191100D01*
X250129609Y-138175448D01*
X250137818Y-138137387D01*
X250137818Y-138101025D01*
X250339410Y-138101025D01*
X250339410Y-138132533D01*
X250336516Y-138177557D01*
X250327980Y-138219408D01*
X250314403Y-138256999D01*
X250295857Y-138291112D01*
X250272866Y-138321171D01*
X250245424Y-138347408D01*
X250177687Y-138387688D01*
X250092700Y-138410207D01*
X250034962Y-138413992D01*
X249772462Y-138413992D01*
X249723146Y-138411103D01*
X249676766Y-138402603D01*
X249634166Y-138388934D01*
X249595138Y-138370272D01*
X249560595Y-138347296D01*
X249530170Y-138319961D01*
X249504608Y-138289075D01*
X249483658Y-138254420D01*
X249467792Y-138216679D01*
X249457041Y-138175678D01*
X249451160Y-138111558D01*
X249454083Y-138065780D01*
X249462824Y-138022598D01*
X249476619Y-137984071D01*
X249495677Y-137948760D01*
X249518904Y-137918245D01*
X249546915Y-137891432D01*
X249578840Y-137869174D01*
X249615259Y-137851123D01*
X249656021Y-137837645D01*
X249701186Y-137829016D01*
X249757715Y-137825519D01*
X250053829Y-137825519D01*
X249982388Y-137743454D01*
X249799756Y-137743454D01*
X249709440Y-137732224D01*
X249628355Y-137699667D01*
X249559972Y-137647851D01*
X249531771Y-137615610D01*
X249508263Y-137579845D01*
X249489873Y-137541169D01*
X249476832Y-137499847D01*
X249467921Y-137424259D01*
X249467921Y-137310778D01*
X249470437Y-137296031D01*
X249669513Y-137296031D01*
X249669513Y-137434792D01*
X249680467Y-137481457D01*
X249712566Y-137521070D01*
X249734964Y-137534937D01*
X249760622Y-137543554D01*
X249785010Y-137546075D01*
X250020215Y-137546075D01*
X250071716Y-137535289D01*
X250111876Y-137505075D01*
X250125949Y-137483929D01*
X250134771Y-137460185D01*
X250137818Y-137434792D01*
X250137818Y-137296031D01*
X250126765Y-137246523D01*
X250113337Y-137225159D01*
X250095359Y-137207530D01*
X250073707Y-137194575D01*
X250048673Y-137186772D01*
X250026535Y-137184748D01*
X249780796Y-137184748D01*
X249732339Y-137195611D01*
X249693578Y-137226563D01*
X249680129Y-137248255D01*
X249671900Y-137272856D01*
X249669513Y-137296031D01*
X249470437Y-137296031D01*
X249478492Y-137248823D01*
X249492228Y-137216708D01*
X249509998Y-137189514D01*
X249524616Y-137174215D01*
X249430094Y-137174215D01*
X249430094Y-136987278D01*
X250013896Y-136987278D01*
X250098033Y-136998490D01*
G37*
G36*
X265259595Y-139190739D02*
G01*
X265473735Y-139190739D01*
X265473735Y-139762542D01*
X266017694Y-139190739D01*
X266196205Y-139190739D01*
X266196205Y-140410000D01*
X265981974Y-140410000D01*
X265981974Y-139529260D01*
X265473735Y-140063144D01*
X265473735Y-140410000D01*
X265259595Y-140410000D01*
X265259595Y-139190739D01*
G37*
G36*
X264643279Y-139192021D02*
G01*
X264878485Y-139192021D01*
X264878485Y-139410466D01*
X264643279Y-139409184D01*
X264643279Y-139192021D01*
G37*
G36*
X264468981Y-140227367D02*
G01*
X264653720Y-140227367D01*
X264653720Y-139501416D01*
X265040143Y-139501416D01*
X265040143Y-139692567D01*
X264863739Y-139692567D01*
X264863739Y-140227367D01*
X265040143Y-140227367D01*
X265040143Y-140410000D01*
X264468981Y-140410000D01*
X264468981Y-140227367D01*
G37*
G36*
X263669941Y-139499767D02*
G01*
X264081551Y-139890770D01*
X264081551Y-139190739D01*
X264291569Y-139190739D01*
X264291569Y-140410000D01*
X264081551Y-140410000D01*
X264081551Y-140157758D01*
X263932441Y-140014784D01*
X263657393Y-140410000D01*
X263407441Y-140410000D01*
X263783330Y-139874009D01*
X263390679Y-139499767D01*
X263669941Y-139499767D01*
G37*
G36*
X262902316Y-139192021D02*
G01*
X263137522Y-139192021D01*
X263137522Y-139410466D01*
X262902316Y-139409184D01*
X262902316Y-139192021D01*
G37*
G36*
X262728018Y-140227367D02*
G01*
X262912757Y-140227367D01*
X262912757Y-139501416D01*
X263299180Y-139501416D01*
X263299180Y-139692567D01*
X263122776Y-139692567D01*
X263122776Y-140227367D01*
X263299180Y-140227367D01*
X263299180Y-140410000D01*
X262728018Y-140410000D01*
X262728018Y-140227367D01*
G37*
G36*
X261851308Y-140214727D02*
G01*
X262122235Y-140214727D01*
X262166959Y-140211324D01*
X262196528Y-140199221D01*
X262215400Y-140169859D01*
X262220878Y-140118557D01*
X262220878Y-139706397D01*
X261981459Y-139706397D01*
X261981459Y-139513140D01*
X262220878Y-139513140D01*
X262220878Y-139190739D01*
X262430897Y-139190739D01*
X262430897Y-139513140D01*
X262624062Y-139513140D01*
X262624062Y-139706397D01*
X262430897Y-139706397D01*
X262430897Y-140116450D01*
X262428001Y-140166392D01*
X262419453Y-140211887D01*
X262406182Y-140251182D01*
X262388115Y-140286286D01*
X262366042Y-140316442D01*
X262339750Y-140342495D01*
X262274735Y-140382271D01*
X262191491Y-140405248D01*
X262124341Y-140410000D01*
X261851308Y-140410000D01*
X261851308Y-140214727D01*
G37*
G36*
X261551439Y-139696047D02*
G01*
X261133601Y-139696047D01*
X261091337Y-139698988D01*
X261058579Y-139707854D01*
X261038473Y-139719442D01*
X261023729Y-139735003D01*
X261008991Y-139776135D01*
X261007571Y-139798995D01*
X261007571Y-139897639D01*
X261033183Y-139877558D01*
X261075087Y-139845269D01*
X261119473Y-139816683D01*
X261167869Y-139796261D01*
X261221803Y-139788463D01*
X261387674Y-139788463D01*
X261469355Y-139799675D01*
X261546253Y-139832931D01*
X261580216Y-139857000D01*
X261609985Y-139885366D01*
X261634201Y-139916592D01*
X261653149Y-139951043D01*
X261665639Y-139986232D01*
X261672287Y-140023599D01*
X261673255Y-140044643D01*
X261673255Y-140164352D01*
X261670376Y-140204104D01*
X261661945Y-140241123D01*
X261629711Y-140306154D01*
X261578013Y-140358785D01*
X261507471Y-140397118D01*
X261419147Y-140417910D01*
X261370913Y-140420532D01*
X261207057Y-140420532D01*
X261142590Y-140409939D01*
X261070307Y-140376447D01*
X261009678Y-140334437D01*
X261009678Y-140410000D01*
X260799660Y-140410000D01*
X260799660Y-140116816D01*
X261009678Y-140116816D01*
X261009678Y-140137241D01*
X261099987Y-140208408D01*
X261127916Y-140229638D01*
X261158138Y-140241148D01*
X261190296Y-140244128D01*
X261381355Y-140245410D01*
X261411350Y-140242576D01*
X261434649Y-140234462D01*
X261449968Y-140223127D01*
X261460011Y-140208411D01*
X261465344Y-140182121D01*
X261465344Y-140049405D01*
X261462438Y-140024486D01*
X261453824Y-140003183D01*
X261441046Y-139987430D01*
X261423720Y-139975836D01*
X261381355Y-139967157D01*
X261240671Y-139967157D01*
X261209369Y-139970135D01*
X261183058Y-139979258D01*
X261141936Y-140007274D01*
X261009678Y-140116816D01*
X260799660Y-140116816D01*
X260799660Y-139796889D01*
X260802545Y-139755550D01*
X260811020Y-139716226D01*
X260844014Y-139644401D01*
X260897039Y-139584344D01*
X260930551Y-139559726D01*
X260968214Y-139539384D01*
X261009884Y-139523636D01*
X261055139Y-139512927D01*
X261125174Y-139507095D01*
X261551439Y-139507095D01*
X261551439Y-139696047D01*
G37*
G36*
X259055766Y-140214727D02*
G01*
X259605953Y-140214727D01*
X259605953Y-139190739D01*
X259824398Y-139190739D01*
X259824398Y-140410000D01*
X259055766Y-140410000D01*
X259055766Y-140214727D01*
G37*
G36*
X257984059Y-139517536D02*
G01*
X258194077Y-139519002D01*
X258194077Y-140111046D01*
X258299040Y-140203370D01*
X258322829Y-140220929D01*
X258349874Y-140231931D01*
X258393562Y-140236984D01*
X258563647Y-140236984D01*
X258605070Y-140226422D01*
X258641791Y-140195006D01*
X258653193Y-140174342D01*
X258658079Y-140152173D01*
X258658169Y-140148782D01*
X258658169Y-139519002D01*
X258868096Y-139519002D01*
X258868096Y-140123594D01*
X258865208Y-140166685D01*
X258856718Y-140207675D01*
X258842816Y-140246355D01*
X258823787Y-140282169D01*
X258799849Y-140314801D01*
X258771294Y-140343805D01*
X258738442Y-140368771D01*
X258701514Y-140389372D01*
X258660954Y-140405178D01*
X258616875Y-140415913D01*
X258548901Y-140421723D01*
X258410324Y-140421723D01*
X258341094Y-140410966D01*
X258272467Y-140378557D01*
X258194077Y-140318866D01*
X258194077Y-140411282D01*
X257984059Y-140410000D01*
X257984059Y-139517536D01*
G37*
G36*
X257110555Y-139499767D02*
G01*
X257522165Y-139890770D01*
X257522165Y-139190739D01*
X257732183Y-139190739D01*
X257732183Y-140410000D01*
X257522165Y-140410000D01*
X257522165Y-140157758D01*
X257373055Y-140014784D01*
X257098007Y-140410000D01*
X256848055Y-140410000D01*
X257223944Y-139874009D01*
X256831294Y-139499767D01*
X257110555Y-139499767D01*
G37*
G36*
X255792742Y-139792584D02*
G01*
X255804072Y-139709247D01*
X255837124Y-139633960D01*
X255890043Y-139570683D01*
X255923094Y-139544868D01*
X255960104Y-139523501D01*
X256000382Y-139507119D01*
X256043926Y-139495916D01*
X256111937Y-139489692D01*
X256246301Y-139489692D01*
X256311075Y-139500361D01*
X256370798Y-139531552D01*
X256443824Y-139593573D01*
X256477294Y-139624148D01*
X256477294Y-139190739D01*
X256687312Y-139190739D01*
X256687312Y-140410000D01*
X256477294Y-140410000D01*
X256477294Y-139849462D01*
X256330290Y-139714549D01*
X256304479Y-139696043D01*
X256277796Y-139684821D01*
X256227434Y-139678736D01*
X256097191Y-139678736D01*
X256059408Y-139689208D01*
X256020966Y-139722159D01*
X256008263Y-139743785D01*
X256002760Y-139766276D01*
X256002669Y-139769412D01*
X256002669Y-140410000D01*
X255792742Y-140410000D01*
X255792742Y-139792584D01*
G37*
G36*
X255450741Y-139696047D02*
G01*
X255032903Y-139696047D01*
X254990639Y-139698988D01*
X254957881Y-139707854D01*
X254937775Y-139719442D01*
X254923031Y-139735003D01*
X254908293Y-139776135D01*
X254906874Y-139798995D01*
X254906874Y-139897639D01*
X254932485Y-139877558D01*
X254974389Y-139845269D01*
X255018775Y-139816683D01*
X255067172Y-139796261D01*
X255121105Y-139788463D01*
X255286977Y-139788463D01*
X255368657Y-139799675D01*
X255445555Y-139832931D01*
X255479518Y-139857000D01*
X255509287Y-139885366D01*
X255533503Y-139916592D01*
X255552451Y-139951043D01*
X255564941Y-139986232D01*
X255571589Y-140023599D01*
X255572557Y-140044643D01*
X255572557Y-140164352D01*
X255569678Y-140204104D01*
X255561247Y-140241123D01*
X255529013Y-140306154D01*
X255477315Y-140358785D01*
X255406773Y-140397118D01*
X255318449Y-140417910D01*
X255270215Y-140420532D01*
X255106359Y-140420532D01*
X255041893Y-140409939D01*
X254969609Y-140376447D01*
X254908980Y-140334437D01*
X254908980Y-140410000D01*
X254698962Y-140410000D01*
X254698962Y-140116816D01*
X254908980Y-140116816D01*
X254908980Y-140137241D01*
X254999289Y-140208408D01*
X255027218Y-140229638D01*
X255057440Y-140241148D01*
X255089598Y-140244128D01*
X255280657Y-140245410D01*
X255310653Y-140242576D01*
X255333951Y-140234462D01*
X255349270Y-140223127D01*
X255359313Y-140208411D01*
X255364646Y-140182121D01*
X255364646Y-140049405D01*
X255361740Y-140024486D01*
X255353126Y-140003183D01*
X255340348Y-139987430D01*
X255323022Y-139975836D01*
X255280657Y-139967157D01*
X255139973Y-139967157D01*
X255108671Y-139970135D01*
X255082360Y-139979258D01*
X255041238Y-140007274D01*
X254908980Y-140116816D01*
X254698962Y-140116816D01*
X254698962Y-139796889D01*
X254701847Y-139755550D01*
X254710323Y-139716226D01*
X254743316Y-139644401D01*
X254796341Y-139584344D01*
X254829853Y-139559726D01*
X254867517Y-139539384D01*
X254909186Y-139523636D01*
X254954441Y-139512927D01*
X255024477Y-139507095D01*
X255450741Y-139507095D01*
X255450741Y-139696047D01*
G37*
G36*
X253576330Y-139805498D02*
G01*
X253587659Y-139724207D01*
X253620875Y-139650016D01*
X253674271Y-139587223D01*
X253707652Y-139561558D01*
X253745036Y-139540329D01*
X253785641Y-139524126D01*
X253829527Y-139513125D01*
X253895525Y-139507278D01*
X254017341Y-139507278D01*
X254083880Y-139517961D01*
X254144691Y-139549066D01*
X254219389Y-139611388D01*
X254248334Y-139637520D01*
X254248334Y-139517811D01*
X254458352Y-139517811D01*
X254458352Y-140410000D01*
X254248334Y-140410000D01*
X254248334Y-139860087D01*
X254101330Y-139729936D01*
X254073721Y-139710298D01*
X254045376Y-139698680D01*
X254008915Y-139694215D01*
X253880870Y-139694215D01*
X253842148Y-139704752D01*
X253803813Y-139737610D01*
X253791631Y-139758935D01*
X253786423Y-139781559D01*
X253786348Y-139784524D01*
X253786348Y-140410000D01*
X253576330Y-140410000D01*
X253576330Y-139805498D01*
G37*
G36*
X252991430Y-139192021D02*
G01*
X253226635Y-139192021D01*
X253226635Y-139410466D01*
X252991430Y-139409184D01*
X252991430Y-139192021D01*
G37*
G36*
X252817132Y-140227367D02*
G01*
X253001871Y-140227367D01*
X253001871Y-139501416D01*
X253388294Y-139501416D01*
X253388294Y-139692567D01*
X253211889Y-139692567D01*
X253211889Y-140227367D01*
X253388294Y-140227367D01*
X253388294Y-140410000D01*
X252817132Y-140410000D01*
X252817132Y-140227367D01*
G37*
G36*
X251757698Y-139805498D02*
G01*
X251769027Y-139724207D01*
X251802243Y-139650016D01*
X251855638Y-139587223D01*
X251889020Y-139561558D01*
X251926404Y-139540329D01*
X251967009Y-139524126D01*
X252010895Y-139513125D01*
X252076893Y-139507278D01*
X252198709Y-139507278D01*
X252265247Y-139517961D01*
X252326059Y-139549066D01*
X252400756Y-139611388D01*
X252429702Y-139637520D01*
X252429702Y-139517811D01*
X252639720Y-139517811D01*
X252639720Y-140410000D01*
X252429702Y-140410000D01*
X252429702Y-139860087D01*
X252282698Y-139729936D01*
X252255089Y-139710298D01*
X252226743Y-139698680D01*
X252190283Y-139694215D01*
X252062238Y-139694215D01*
X252023516Y-139704752D01*
X251985180Y-139737610D01*
X251972999Y-139758935D01*
X251967791Y-139781559D01*
X251967716Y-139784524D01*
X251967716Y-140410000D01*
X251757698Y-140410000D01*
X251757698Y-139805498D01*
G37*
G36*
X266196205Y-142935861D02*
G01*
X265601871Y-142935861D01*
X265506045Y-142924632D01*
X265419416Y-142892032D01*
X265380742Y-142868330D01*
X265346125Y-142840353D01*
X265315912Y-142808473D01*
X265290528Y-142773135D01*
X265270607Y-142735323D01*
X265256115Y-142694951D01*
X265244849Y-142612728D01*
X265244849Y-142044497D01*
X265246567Y-142031857D01*
X265459081Y-142031857D01*
X265459081Y-142623169D01*
X265461936Y-142650398D01*
X265470201Y-142674613D01*
X265501017Y-142712707D01*
X265549504Y-142735673D01*
X265591338Y-142740589D01*
X265986187Y-142740589D01*
X265986187Y-141906103D01*
X265595551Y-141906103D01*
X265565380Y-141908934D01*
X265538057Y-141917027D01*
X265492836Y-141947584D01*
X265476520Y-141968872D01*
X265465290Y-141993189D01*
X265459081Y-142031857D01*
X265246567Y-142031857D01*
X265256122Y-141961577D01*
X265289535Y-141883644D01*
X265344041Y-141814718D01*
X265378556Y-141785163D01*
X265417071Y-141759912D01*
X265459056Y-141739448D01*
X265504164Y-141724143D01*
X265550979Y-141714573D01*
X265599978Y-141710786D01*
X265606084Y-141710739D01*
X266196205Y-141710739D01*
X266196205Y-142935861D01*
G37*
G36*
X264649141Y-141712021D02*
G01*
X264884347Y-141712021D01*
X264884347Y-141930466D01*
X264649141Y-141929184D01*
X264649141Y-141712021D01*
G37*
G36*
X264474843Y-142747367D02*
G01*
X264659582Y-142747367D01*
X264659582Y-142021416D01*
X265046005Y-142021416D01*
X265046005Y-142212567D01*
X264869600Y-142212567D01*
X264869600Y-142747367D01*
X265046005Y-142747367D01*
X265046005Y-142930000D01*
X264474843Y-142930000D01*
X264474843Y-142747367D01*
G37*
G36*
X263430155Y-142039002D02*
G01*
X263644295Y-142039002D01*
X263644295Y-142446307D01*
X263648497Y-142490145D01*
X263671589Y-142526083D01*
X263871166Y-142750756D01*
X264066438Y-142526083D01*
X264087897Y-142494574D01*
X264093573Y-142460744D01*
X264093732Y-142446307D01*
X264093732Y-142039002D01*
X264307872Y-142039002D01*
X264307872Y-142452627D01*
X264304793Y-142503592D01*
X264294963Y-142547030D01*
X264261751Y-142610158D01*
X264230203Y-142647899D01*
X263959277Y-142941723D01*
X263778751Y-142941723D01*
X263507824Y-142647899D01*
X263473454Y-142606217D01*
X263449861Y-142564778D01*
X263432089Y-142493929D01*
X263430155Y-142452627D01*
X263430155Y-142039002D01*
G37*
G36*
X262845163Y-141712021D02*
G01*
X263080369Y-141712021D01*
X263080369Y-141930466D01*
X262845163Y-141929184D01*
X262845163Y-141712021D01*
G37*
G36*
X262670865Y-142747367D02*
G01*
X262855604Y-142747367D01*
X262855604Y-142021416D01*
X263242027Y-142021416D01*
X263242027Y-142212567D01*
X263065623Y-142212567D01*
X263065623Y-142747367D01*
X263242027Y-142747367D01*
X263242027Y-142930000D01*
X262670865Y-142930000D01*
X262670865Y-142747367D01*
G37*
G36*
X262098604Y-141712021D02*
G01*
X262333810Y-141712021D01*
X262333810Y-141932573D01*
X262098604Y-141931290D01*
X262098604Y-141712021D01*
G37*
G36*
X262109137Y-142027278D02*
G01*
X262497667Y-142027278D01*
X262497667Y-142218428D01*
X262321262Y-142218428D01*
X262321262Y-142972864D01*
X262332212Y-143013793D01*
X262363805Y-143045776D01*
X262386078Y-143055816D01*
X262411607Y-143060595D01*
X262419906Y-143060883D01*
X262713913Y-143060883D01*
X262713913Y-143258262D01*
X262419906Y-143258262D01*
X262336306Y-143247031D01*
X262257082Y-143213651D01*
X262221239Y-143189192D01*
X262189265Y-143160284D01*
X262162102Y-143127812D01*
X262139911Y-143091856D01*
X262123830Y-143054430D01*
X262113418Y-143014557D01*
X262109137Y-142966636D01*
X262109137Y-142027278D01*
G37*
G36*
X260075083Y-141710739D02*
G01*
X260255700Y-141710739D01*
X260418458Y-141914919D01*
X260532131Y-142061049D01*
X260587535Y-142139569D01*
X260931917Y-141710739D01*
X261112535Y-141710739D01*
X261112535Y-142930000D01*
X260898303Y-142930000D01*
X260898303Y-142072341D01*
X260648443Y-142381369D01*
X260539175Y-142381369D01*
X260289314Y-142072341D01*
X260289314Y-142930000D01*
X260075083Y-142930000D01*
X260075083Y-141710739D01*
G37*
G36*
X258929279Y-142037536D02*
G01*
X259139297Y-142039002D01*
X259139297Y-142631046D01*
X259244260Y-142723370D01*
X259268049Y-142740929D01*
X259295094Y-142751931D01*
X259338782Y-142756984D01*
X259508867Y-142756984D01*
X259550290Y-142746422D01*
X259587011Y-142715006D01*
X259598413Y-142694342D01*
X259603299Y-142672173D01*
X259603389Y-142668782D01*
X259603389Y-142039002D01*
X259813316Y-142039002D01*
X259813316Y-142643594D01*
X259810428Y-142686685D01*
X259801938Y-142727675D01*
X259788035Y-142766355D01*
X259769007Y-142802169D01*
X259745069Y-142834801D01*
X259716514Y-142863805D01*
X259683662Y-142888771D01*
X259646734Y-142909372D01*
X259606174Y-142925178D01*
X259562095Y-142935913D01*
X259494121Y-142941723D01*
X259355543Y-142941723D01*
X259286314Y-142930966D01*
X259217686Y-142898557D01*
X259139297Y-142838866D01*
X259139297Y-142931282D01*
X258929279Y-142930000D01*
X258929279Y-142037536D01*
G37*
G36*
X257978105Y-142734727D02*
G01*
X258249032Y-142734727D01*
X258293756Y-142731324D01*
X258323325Y-142719221D01*
X258342197Y-142689859D01*
X258347675Y-142638557D01*
X258347675Y-142226397D01*
X258108256Y-142226397D01*
X258108256Y-142033140D01*
X258347675Y-142033140D01*
X258347675Y-141710739D01*
X258557694Y-141710739D01*
X258557694Y-142033140D01*
X258750859Y-142033140D01*
X258750859Y-142226397D01*
X258557694Y-142226397D01*
X258557694Y-142636450D01*
X258554798Y-142686392D01*
X258546250Y-142731887D01*
X258532979Y-142771182D01*
X258514912Y-142806286D01*
X258492839Y-142836442D01*
X258466547Y-142862495D01*
X258401532Y-142902271D01*
X258318287Y-142925248D01*
X258251138Y-142930000D01*
X257978105Y-142930000D01*
X257978105Y-142734727D01*
G37*
G36*
X256884508Y-142312584D02*
G01*
X256895838Y-142229247D01*
X256928890Y-142153960D01*
X256981808Y-142090683D01*
X257014859Y-142064868D01*
X257051870Y-142043501D01*
X257092148Y-142027119D01*
X257135691Y-142015916D01*
X257203703Y-142009692D01*
X257338067Y-142009692D01*
X257402841Y-142020361D01*
X257462564Y-142051552D01*
X257535590Y-142113573D01*
X257569060Y-142144148D01*
X257569060Y-141710739D01*
X257779078Y-141710739D01*
X257779078Y-142930000D01*
X257569060Y-142930000D01*
X257569060Y-142369462D01*
X257422056Y-142234549D01*
X257396244Y-142216043D01*
X257369562Y-142204821D01*
X257319199Y-142198736D01*
X257188957Y-142198736D01*
X257151173Y-142209208D01*
X257112731Y-142242159D01*
X257100028Y-142263785D01*
X257094526Y-142286276D01*
X257094435Y-142289412D01*
X257094435Y-142930000D01*
X256884508Y-142930000D01*
X256884508Y-142312584D01*
G37*
G36*
X255769753Y-142037536D02*
G01*
X255979771Y-142039002D01*
X255979771Y-142631046D01*
X256084735Y-142723370D01*
X256108523Y-142740929D01*
X256135568Y-142751931D01*
X256179257Y-142756984D01*
X256349341Y-142756984D01*
X256390764Y-142746422D01*
X256427486Y-142715006D01*
X256438888Y-142694342D01*
X256443773Y-142672173D01*
X256443863Y-142668782D01*
X256443863Y-142039002D01*
X256653790Y-142039002D01*
X256653790Y-142643594D01*
X256650902Y-142686685D01*
X256642413Y-142727675D01*
X256628510Y-142766355D01*
X256609482Y-142802169D01*
X256585543Y-142834801D01*
X256556989Y-142863805D01*
X256524136Y-142888771D01*
X256487209Y-142909372D01*
X256446649Y-142925178D01*
X256402569Y-142935913D01*
X256334595Y-142941723D01*
X256196018Y-142941723D01*
X256126789Y-142930966D01*
X256058161Y-142898557D01*
X255979771Y-142838866D01*
X255979771Y-142931282D01*
X255769753Y-142930000D01*
X255769753Y-142037536D01*
G37*
G36*
X265316290Y-144230739D02*
G01*
X266280194Y-144230739D01*
X266280194Y-144426103D01*
X265910533Y-144426103D01*
X265910533Y-145450000D01*
X265687967Y-145450000D01*
X265687967Y-144426103D01*
X265316290Y-144426103D01*
X265316290Y-144230739D01*
G37*
G36*
X264898466Y-144558497D02*
G01*
X264982091Y-144591602D01*
X265054215Y-144644560D01*
X265083870Y-144677091D01*
X265108630Y-144713099D01*
X265127526Y-144751025D01*
X265140834Y-144791408D01*
X265149320Y-144860428D01*
X265149320Y-145150771D01*
X265138024Y-145231386D01*
X265104755Y-145305779D01*
X265050674Y-145370358D01*
X265016392Y-145397632D01*
X264978052Y-145420624D01*
X264935998Y-145438941D01*
X264890666Y-145452146D01*
X264802831Y-145461723D01*
X264588599Y-145461723D01*
X264493723Y-145450496D01*
X264408279Y-145417945D01*
X264370379Y-145394346D01*
X264336601Y-145366504D01*
X264307397Y-145334902D01*
X264283084Y-145299892D01*
X264264340Y-145262575D01*
X264251066Y-145222749D01*
X264242110Y-145150771D01*
X264242110Y-144860428D01*
X264243874Y-144847788D01*
X264452128Y-144847788D01*
X264452128Y-145161304D01*
X264463219Y-145206329D01*
X264495779Y-145244058D01*
X264518963Y-145257409D01*
X264545947Y-145265850D01*
X264573944Y-145268558D01*
X264817577Y-145268558D01*
X264846713Y-145265746D01*
X264872550Y-145257785D01*
X264913799Y-145228191D01*
X264927795Y-145207830D01*
X264936440Y-145185016D01*
X264939301Y-145161304D01*
X264939301Y-144847788D01*
X264928253Y-144800946D01*
X264896523Y-144763484D01*
X264874142Y-144750627D01*
X264848222Y-144742757D01*
X264823805Y-144740535D01*
X264567625Y-144740535D01*
X264516482Y-144751390D01*
X264476090Y-144782028D01*
X264462494Y-144803031D01*
X264454309Y-144826793D01*
X264452128Y-144847788D01*
X264243874Y-144847788D01*
X264253379Y-144779659D01*
X264286670Y-144704519D01*
X264340792Y-144638996D01*
X264374980Y-144611348D01*
X264413107Y-144588080D01*
X264454620Y-144569676D01*
X264499201Y-144556491D01*
X264582371Y-144547278D01*
X264809150Y-144547278D01*
X264898466Y-144558497D01*
G37*
G36*
X262690740Y-145265260D02*
G01*
X262875571Y-145265260D01*
X262875571Y-144605896D01*
X263644112Y-144605896D01*
X263644112Y-144488019D01*
X263641210Y-144463850D01*
X263632617Y-144444079D01*
X263620136Y-144430314D01*
X263603297Y-144420657D01*
X263566443Y-144414379D01*
X263228380Y-144414379D01*
X263228380Y-144219016D01*
X263553895Y-144219016D01*
X263603399Y-144221911D01*
X263649585Y-144230453D01*
X263691022Y-144244000D01*
X263728592Y-144262505D01*
X263760978Y-144284979D01*
X263789078Y-144311741D01*
X263812030Y-144341774D01*
X263830308Y-144375540D01*
X263843495Y-144412443D01*
X263851531Y-144452674D01*
X263854130Y-144494338D01*
X263854130Y-144603881D01*
X264095656Y-144603881D01*
X264095656Y-144801260D01*
X263854130Y-144801260D01*
X263854130Y-145450000D01*
X263644112Y-145450000D01*
X263644112Y-144801260D01*
X263085590Y-144801260D01*
X263085590Y-145265260D01*
X263261994Y-145265260D01*
X263261994Y-145450000D01*
X262690740Y-145450000D01*
X262690740Y-145265260D01*
G37*
G36*
X261661990Y-144822143D02*
G01*
X261664879Y-144779286D01*
X261673380Y-144739436D01*
X261686993Y-144703320D01*
X261705566Y-144670486D01*
X261756688Y-144615360D01*
X261826238Y-144574990D01*
X261914208Y-144551685D01*
X261979078Y-144547278D01*
X262199629Y-144547278D01*
X262248200Y-144550153D01*
X262294110Y-144558554D01*
X262337391Y-144572287D01*
X262377279Y-144590958D01*
X262413529Y-144614296D01*
X262445671Y-144641906D01*
X262473225Y-144673267D01*
X262496028Y-144708168D01*
X262513552Y-144745787D01*
X262525775Y-144786196D01*
X262533479Y-144856031D01*
X262533479Y-145153702D01*
X262530598Y-145197994D01*
X262522154Y-145239467D01*
X262508470Y-145277869D01*
X262489836Y-145313068D01*
X262438317Y-145373598D01*
X262368764Y-145419375D01*
X262282476Y-145447770D01*
X262197523Y-145455861D01*
X261745979Y-145455861D01*
X261745979Y-145262696D01*
X262207964Y-145262696D01*
X262240777Y-145259884D01*
X262268045Y-145251928D01*
X262289275Y-145239950D01*
X262305361Y-145224450D01*
X262322338Y-145185186D01*
X262323460Y-145170464D01*
X262323460Y-144841194D01*
X262320545Y-144815647D01*
X262311860Y-144792672D01*
X262298432Y-144773976D01*
X262280011Y-144758839D01*
X262257284Y-144748081D01*
X262229945Y-144741871D01*
X262207964Y-144740535D01*
X261970652Y-144740535D01*
X261934772Y-144743423D01*
X261907673Y-144751911D01*
X261891236Y-144763144D01*
X261880081Y-144777971D01*
X261872008Y-144816006D01*
X261872008Y-144912452D01*
X261661990Y-144912726D01*
X261661990Y-144822143D01*
G37*
G36*
X259903716Y-145254727D02*
G01*
X260498050Y-145254727D01*
X260498050Y-144940295D01*
X260033958Y-144940295D01*
X260033958Y-144740718D01*
X260498050Y-144740718D01*
X260498050Y-144426103D01*
X259903716Y-144426103D01*
X259903716Y-144230739D01*
X260708069Y-144230739D01*
X260708069Y-145450000D01*
X259903716Y-145450000D01*
X259903716Y-145254727D01*
G37*
G36*
X258829719Y-145184935D02*
G01*
X258841044Y-145112118D01*
X258875180Y-145041808D01*
X258900443Y-145009809D01*
X258930561Y-144981244D01*
X258964668Y-144957093D01*
X259002809Y-144937580D01*
X259043088Y-144923759D01*
X259086497Y-144915427D01*
X259125833Y-144913093D01*
X259268623Y-144913093D01*
X259381472Y-144907736D01*
X259428728Y-144898311D01*
X259465576Y-144881962D01*
X259481963Y-144867328D01*
X259492165Y-144848790D01*
X259495403Y-144827638D01*
X259484659Y-144788415D01*
X259453663Y-144757706D01*
X259433640Y-144749368D01*
X259411414Y-144746397D01*
X258905282Y-144746397D01*
X258905282Y-144553140D01*
X259407201Y-144553140D01*
X259493071Y-144564214D01*
X259569025Y-144596106D01*
X259632084Y-144646596D01*
X259677957Y-144712063D01*
X259692991Y-144748540D01*
X259702248Y-144786524D01*
X259705421Y-144825532D01*
X259702549Y-144865030D01*
X259694166Y-144902083D01*
X259661706Y-144968958D01*
X259609104Y-145025024D01*
X259537199Y-145067664D01*
X259448146Y-145092978D01*
X259396668Y-145097923D01*
X259134168Y-145108456D01*
X259103268Y-145112420D01*
X259078189Y-145121813D01*
X259061016Y-145134489D01*
X259048781Y-145151072D01*
X259039737Y-145191346D01*
X259042593Y-145213562D01*
X259050859Y-145233336D01*
X259064080Y-145249971D01*
X259081807Y-145262780D01*
X259103508Y-145271047D01*
X259128788Y-145274138D01*
X259130046Y-145274145D01*
X259650833Y-145274145D01*
X259650833Y-145467402D01*
X259132061Y-145467402D01*
X259046380Y-145456309D01*
X258970300Y-145424305D01*
X258906676Y-145373448D01*
X258859713Y-145307100D01*
X258843934Y-145269865D01*
X258833857Y-145230954D01*
X258829719Y-145184935D01*
G37*
G36*
X257765797Y-145184935D02*
G01*
X257777122Y-145112118D01*
X257811258Y-145041808D01*
X257836521Y-145009809D01*
X257866640Y-144981244D01*
X257900746Y-144957093D01*
X257938888Y-144937580D01*
X257979167Y-144923759D01*
X258022575Y-144915427D01*
X258061911Y-144913093D01*
X258204702Y-144913093D01*
X258317550Y-144907736D01*
X258364807Y-144898311D01*
X258401654Y-144881962D01*
X258418041Y-144867328D01*
X258428243Y-144848790D01*
X258431481Y-144827638D01*
X258420737Y-144788415D01*
X258389741Y-144757706D01*
X258369718Y-144749368D01*
X258347492Y-144746397D01*
X257841360Y-144746397D01*
X257841360Y-144553140D01*
X258343279Y-144553140D01*
X258429149Y-144564214D01*
X258505103Y-144596106D01*
X258568162Y-144646596D01*
X258614035Y-144712063D01*
X258629069Y-144748540D01*
X258638326Y-144786524D01*
X258641499Y-144825532D01*
X258638627Y-144865030D01*
X258630245Y-144902083D01*
X258597784Y-144968958D01*
X258545182Y-145025024D01*
X258473277Y-145067664D01*
X258384224Y-145092978D01*
X258332746Y-145097923D01*
X258070246Y-145108456D01*
X258039346Y-145112420D01*
X258014267Y-145121813D01*
X257997094Y-145134489D01*
X257984859Y-145151072D01*
X257975816Y-145191346D01*
X257978671Y-145213562D01*
X257986937Y-145233336D01*
X258000159Y-145249971D01*
X258017885Y-145262780D01*
X258039586Y-145271047D01*
X258064867Y-145274138D01*
X258066124Y-145274145D01*
X258586911Y-145274145D01*
X258586911Y-145467402D01*
X258068139Y-145467402D01*
X257982459Y-145456309D01*
X257906378Y-145424305D01*
X257842754Y-145373448D01*
X257795791Y-145307100D01*
X257780012Y-145269865D01*
X257769936Y-145230954D01*
X257765797Y-145184935D01*
G37*
G36*
X257336745Y-144558511D02*
G01*
X257416816Y-144591142D01*
X257452273Y-144614864D01*
X257483728Y-144642872D01*
X257510768Y-144674751D01*
X257532991Y-144710097D01*
X257549767Y-144747882D01*
X257561091Y-144788241D01*
X257567045Y-144847697D01*
X257567045Y-145165151D01*
X257564162Y-145207902D01*
X257555707Y-145248280D01*
X257523034Y-145321150D01*
X257470711Y-145381704D01*
X257400338Y-145427304D01*
X257358884Y-145443563D01*
X257313938Y-145454833D01*
X257237317Y-145461723D01*
X256800519Y-145461723D01*
X256800519Y-145272771D01*
X257252063Y-145272771D01*
X257301752Y-145262025D01*
X257323920Y-145248824D01*
X257341429Y-145231555D01*
X257352376Y-145212518D01*
X257356956Y-145191407D01*
X257357026Y-145188415D01*
X257357026Y-145093435D01*
X256687129Y-145093435D01*
X256687129Y-144847697D01*
X256689481Y-144830935D01*
X256897148Y-144830935D01*
X256897148Y-144910711D01*
X257357026Y-144910711D01*
X257357026Y-144830935D01*
X257346317Y-144793854D01*
X257313078Y-144758727D01*
X257290072Y-144746825D01*
X257264704Y-144740929D01*
X257256276Y-144740535D01*
X256991669Y-144740535D01*
X256952100Y-144751071D01*
X256914606Y-144783303D01*
X256902561Y-144804546D01*
X256897266Y-144827127D01*
X256897148Y-144830935D01*
X256689481Y-144830935D01*
X256698359Y-144767654D01*
X256731374Y-144694007D01*
X256784815Y-144630562D01*
X256818479Y-144604131D01*
X256855863Y-144582229D01*
X256896437Y-144565296D01*
X256939780Y-144553715D01*
X257006324Y-144547278D01*
X257247850Y-144547278D01*
X257336745Y-144558511D01*
G37*
G36*
X255623299Y-145184935D02*
G01*
X255634624Y-145112118D01*
X255668760Y-145041808D01*
X255694023Y-145009809D01*
X255724141Y-144981244D01*
X255758248Y-144957093D01*
X255796389Y-144937580D01*
X255836668Y-144923759D01*
X255880076Y-144915427D01*
X255919413Y-144913093D01*
X256062203Y-144913093D01*
X256175052Y-144907736D01*
X256222308Y-144898311D01*
X256259156Y-144881962D01*
X256275542Y-144867328D01*
X256285745Y-144848790D01*
X256288983Y-144827638D01*
X256278238Y-144788415D01*
X256247243Y-144757706D01*
X256227220Y-144749368D01*
X256204994Y-144746397D01*
X255698862Y-144746397D01*
X255698862Y-144553140D01*
X256200781Y-144553140D01*
X256286651Y-144564214D01*
X256362605Y-144596106D01*
X256425664Y-144646596D01*
X256471537Y-144712063D01*
X256486571Y-144748540D01*
X256495828Y-144786524D01*
X256499001Y-144825532D01*
X256496129Y-144865030D01*
X256487746Y-144902083D01*
X256455286Y-144968958D01*
X256402684Y-145025024D01*
X256330779Y-145067664D01*
X256241726Y-145092978D01*
X256190248Y-145097923D01*
X255927748Y-145108456D01*
X255896848Y-145112420D01*
X255871769Y-145121813D01*
X255854596Y-145134489D01*
X255842361Y-145151072D01*
X255833317Y-145191346D01*
X255836173Y-145213562D01*
X255844439Y-145233336D01*
X255857660Y-145249971D01*
X255875387Y-145262780D01*
X255897088Y-145271047D01*
X255922368Y-145274138D01*
X255923626Y-145274145D01*
X256444413Y-145274145D01*
X256444413Y-145467402D01*
X255925641Y-145467402D01*
X255839960Y-145456309D01*
X255763879Y-145424305D01*
X255700256Y-145373448D01*
X255653293Y-145307100D01*
X255637514Y-145269865D01*
X255627437Y-145230954D01*
X255623299Y-145184935D01*
G37*
G36*
X264662029Y-126874455D02*
G01*
X265762404Y-126874455D01*
X265762404Y-124826479D01*
X266199293Y-124826479D01*
X266199293Y-127265000D01*
X264662029Y-127265000D01*
X264662029Y-126874455D01*
G37*
G36*
X263577041Y-124829043D02*
G01*
X264047453Y-124829043D01*
X264047453Y-125265933D01*
X263577041Y-125263368D01*
X263577041Y-124829043D01*
G37*
G36*
X263228445Y-126899734D02*
G01*
X263597924Y-126899734D01*
X263597924Y-125447833D01*
X264370769Y-125447833D01*
X264370769Y-125830134D01*
X264017960Y-125830134D01*
X264017960Y-126899734D01*
X264370769Y-126899734D01*
X264370769Y-127265000D01*
X263228445Y-127265000D01*
X263228445Y-126899734D01*
G37*
G36*
X261109578Y-126055997D02*
G01*
X261132235Y-125893414D01*
X261198668Y-125745032D01*
X261305459Y-125619446D01*
X261372221Y-125568116D01*
X261446990Y-125525659D01*
X261528199Y-125493252D01*
X261615971Y-125471250D01*
X261747967Y-125459556D01*
X261991600Y-125459556D01*
X262124677Y-125480923D01*
X262246300Y-125543133D01*
X262395695Y-125667776D01*
X262453585Y-125720041D01*
X262453585Y-125480622D01*
X262873622Y-125480622D01*
X262873622Y-127265000D01*
X262453585Y-127265000D01*
X262453585Y-126165174D01*
X262159578Y-125904872D01*
X262104360Y-125865596D01*
X262047669Y-125842360D01*
X261974747Y-125833431D01*
X261718658Y-125833431D01*
X261641214Y-125854505D01*
X261564542Y-125920220D01*
X261540180Y-125962870D01*
X261529764Y-126008118D01*
X261529614Y-126014049D01*
X261529614Y-127265000D01*
X261109578Y-127265000D01*
X261109578Y-126055997D01*
G37*
G36*
X257621973Y-126874455D02*
G01*
X258722348Y-126874455D01*
X258722348Y-124826479D01*
X259159238Y-124826479D01*
X259159238Y-127265000D01*
X257621973Y-127265000D01*
X257621973Y-126874455D01*
G37*
G36*
X257024067Y-125837095D02*
G01*
X256188390Y-125837095D01*
X256103863Y-125842977D01*
X256038346Y-125860709D01*
X255998134Y-125883884D01*
X255968647Y-125915006D01*
X255939169Y-125997270D01*
X255936331Y-126042991D01*
X255936331Y-126240279D01*
X255987553Y-126200116D01*
X256071362Y-126135539D01*
X256160134Y-126078367D01*
X256256927Y-126037523D01*
X256364794Y-126021926D01*
X256696537Y-126021926D01*
X256859898Y-126044351D01*
X257013694Y-126110863D01*
X257081620Y-126159001D01*
X257141158Y-126215733D01*
X257189589Y-126278185D01*
X257227485Y-126347086D01*
X257252466Y-126417464D01*
X257265763Y-126492198D01*
X257267699Y-126534286D01*
X257267699Y-126773705D01*
X257261940Y-126853208D01*
X257245079Y-126927247D01*
X257180610Y-127057309D01*
X257077213Y-127162570D01*
X256936130Y-127239237D01*
X256759482Y-127280821D01*
X256663015Y-127286065D01*
X256335302Y-127286065D01*
X256206369Y-127264879D01*
X256061803Y-127197895D01*
X255940544Y-127113874D01*
X255940544Y-127265000D01*
X255520508Y-127265000D01*
X255520508Y-126678633D01*
X255940544Y-126678633D01*
X255940544Y-126719483D01*
X256121162Y-126861816D01*
X256177020Y-126904276D01*
X256237464Y-126927297D01*
X256301779Y-126933257D01*
X256683897Y-126935821D01*
X256743889Y-126930153D01*
X256790486Y-126913924D01*
X256821124Y-126891254D01*
X256841209Y-126861822D01*
X256851875Y-126809242D01*
X256851875Y-126543811D01*
X256846065Y-126493972D01*
X256828836Y-126451367D01*
X256803281Y-126419861D01*
X256768627Y-126396673D01*
X256683897Y-126379314D01*
X256402530Y-126379314D01*
X256339927Y-126385270D01*
X256287304Y-126403517D01*
X256205059Y-126459548D01*
X255940544Y-126678633D01*
X255520508Y-126678633D01*
X255520508Y-126038778D01*
X255526279Y-125956101D01*
X255543229Y-125877452D01*
X255609216Y-125733802D01*
X255715266Y-125613689D01*
X255782289Y-125564453D01*
X255857617Y-125523769D01*
X255940957Y-125492273D01*
X256031467Y-125470854D01*
X256171537Y-125459190D01*
X257024067Y-125459190D01*
X257024067Y-125837095D01*
G37*
G36*
X255039288Y-127265000D02*
G01*
X254619251Y-127265000D01*
X254619251Y-127076139D01*
X254491090Y-127179770D01*
X254351227Y-127255410D01*
X254276241Y-127277144D01*
X254196140Y-127285970D01*
X254186758Y-127286065D01*
X253888538Y-127286065D01*
X253792844Y-127280320D01*
X253703240Y-127263550D01*
X253619907Y-127236330D01*
X253543710Y-127199411D01*
X253474801Y-127153230D01*
X253414119Y-127098678D01*
X253319068Y-126966569D01*
X253285986Y-126890481D01*
X253263356Y-126808816D01*
X253250148Y-126676069D01*
X253250148Y-126034565D01*
X253257035Y-125984007D01*
X253670002Y-125984007D01*
X253670002Y-126730840D01*
X253691276Y-126806836D01*
X253756752Y-126878275D01*
X253800887Y-126901480D01*
X253848870Y-126912033D01*
X253859046Y-126912374D01*
X254220281Y-126912740D01*
X254284034Y-126907060D01*
X254337467Y-126890742D01*
X254409325Y-126845329D01*
X254619251Y-126650973D01*
X254619251Y-126144474D01*
X254325244Y-125874281D01*
X254273713Y-125837208D01*
X254220451Y-125814716D01*
X254119531Y-125802473D01*
X253859046Y-125802473D01*
X253783548Y-125823414D01*
X253706678Y-125889335D01*
X253681233Y-125932630D01*
X253670189Y-125977645D01*
X253670002Y-125984007D01*
X253257035Y-125984007D01*
X253272807Y-125868222D01*
X253338931Y-125717864D01*
X253444830Y-125591440D01*
X253510982Y-125539855D01*
X253585060Y-125497163D01*
X253665678Y-125464439D01*
X253752832Y-125442075D01*
X253888538Y-125429698D01*
X254157266Y-125429698D01*
X254288542Y-125451048D01*
X254409065Y-125513342D01*
X254556677Y-125637578D01*
X254619251Y-125694396D01*
X254619251Y-124829043D01*
X255039288Y-124829043D01*
X255039288Y-127265000D01*
G37*
D13*
G36*
X240137622Y-98814637D02*
G01*
X241044740Y-98814637D01*
X241020741Y-98747523D01*
X240961925Y-98674586D01*
X240852476Y-98586675D01*
X240661670Y-98465888D01*
X240478766Y-98351308D01*
X240392335Y-98289950D01*
X240313862Y-98224881D01*
X240246807Y-98155353D01*
X240194629Y-98080617D01*
X240160785Y-97999924D01*
X240148735Y-97912526D01*
X240148735Y-97803349D01*
X240163784Y-97700301D01*
X240207787Y-97607200D01*
X240278774Y-97528792D01*
X240323521Y-97496830D01*
X240373493Y-97470803D01*
X240428159Y-97451257D01*
X240487015Y-97438726D01*
X240557598Y-97433688D01*
X240955225Y-97433688D01*
X241065511Y-97448505D01*
X241164470Y-97491503D01*
X241247737Y-97560168D01*
X241309126Y-97649973D01*
X241329544Y-97700354D01*
X241342395Y-97753184D01*
X241347235Y-97811775D01*
X241347235Y-97940491D01*
X241061593Y-97940491D01*
X241061593Y-97803349D01*
X241047583Y-97752052D01*
X241007453Y-97711893D01*
X240963529Y-97699790D01*
X240537936Y-97699790D01*
X240508947Y-97703512D01*
X240484196Y-97713935D01*
X240447663Y-97752485D01*
X240434377Y-97806524D01*
X240434377Y-97907519D01*
X240449221Y-97964559D01*
X240498158Y-98028185D01*
X240599137Y-98109342D01*
X240772808Y-98219633D01*
X240972176Y-98346059D01*
X241068742Y-98416252D01*
X241157456Y-98492316D01*
X241233991Y-98575160D01*
X241294019Y-98665698D01*
X241333209Y-98764840D01*
X241347235Y-98873499D01*
X241347235Y-99075000D01*
X240137622Y-99075000D01*
X240137622Y-98814637D01*
G37*
G36*
X238523299Y-98425436D02*
G01*
X238527146Y-98359377D01*
X238538443Y-98298548D01*
X238556341Y-98244192D01*
X238580670Y-98194954D01*
X238646970Y-98112336D01*
X238736745Y-98049708D01*
X238850907Y-98008297D01*
X238990187Y-97991555D01*
X239004946Y-97991416D01*
X239405496Y-97999139D01*
X239427730Y-97999842D01*
X239416495Y-97711514D01*
X238610127Y-97711514D01*
X238610127Y-97451029D01*
X239685284Y-97449319D01*
X239707755Y-98260327D01*
X239382284Y-98255193D01*
X238979667Y-98249092D01*
X238928651Y-98253092D01*
X238886032Y-98265462D01*
X238857487Y-98282243D01*
X238834840Y-98305332D01*
X238808566Y-98367190D01*
X238803323Y-98423970D01*
X238803323Y-98686409D01*
X238807171Y-98724313D01*
X238818477Y-98756694D01*
X238835524Y-98781889D01*
X238858513Y-98801962D01*
X238922600Y-98826490D01*
X238968554Y-98830268D01*
X239326858Y-98830268D01*
X239365905Y-98826557D01*
X239399301Y-98816213D01*
X239427143Y-98799976D01*
X239448027Y-98779291D01*
X239461402Y-98755512D01*
X239466833Y-98729834D01*
X239466931Y-98725854D01*
X239466931Y-98596161D01*
X239746956Y-98596161D01*
X239746956Y-98711810D01*
X239743125Y-98765157D01*
X239731944Y-98815553D01*
X239688355Y-98907834D01*
X239617668Y-98986108D01*
X239521700Y-99046063D01*
X239404243Y-99082223D01*
X239307318Y-99090631D01*
X238988093Y-99090631D01*
X238915234Y-99086756D01*
X238846889Y-99075261D01*
X238785641Y-99057099D01*
X238729592Y-99032183D01*
X238681105Y-99002057D01*
X238638289Y-98966021D01*
X238602720Y-98925750D01*
X238573226Y-98880253D01*
X238550555Y-98830642D01*
X238534476Y-98776263D01*
X238523299Y-98670655D01*
X238523299Y-98425436D01*
G37*
G36*
X237354597Y-97163066D02*
G01*
X238272950Y-99325104D01*
X237992926Y-99325104D01*
X237077381Y-97160136D01*
X237354597Y-97163066D01*
G37*
G36*
X235442542Y-97449319D02*
G01*
X235683365Y-97449319D01*
X235900375Y-97721558D01*
X236051939Y-97916399D01*
X236125811Y-98021092D01*
X236584988Y-97449319D01*
X236825811Y-97449319D01*
X236825811Y-99075000D01*
X236540169Y-99075000D01*
X236540169Y-97931454D01*
X236207022Y-98343492D01*
X236061331Y-98343492D01*
X235728184Y-97931454D01*
X235728184Y-99075000D01*
X235442542Y-99075000D01*
X235442542Y-97449319D01*
G37*
G36*
X234945141Y-98123063D02*
G01*
X234388023Y-98123063D01*
X234331672Y-98126985D01*
X234287995Y-98138806D01*
X234261186Y-98154256D01*
X234241528Y-98175004D01*
X234221876Y-98229847D01*
X234219984Y-98260327D01*
X234219984Y-98391852D01*
X234254132Y-98365077D01*
X234310005Y-98322026D01*
X234369186Y-98283911D01*
X234433715Y-98256682D01*
X234505626Y-98246284D01*
X234726788Y-98246284D01*
X234835696Y-98261234D01*
X234938226Y-98305575D01*
X234983510Y-98337667D01*
X235023202Y-98375489D01*
X235055490Y-98417123D01*
X235080754Y-98463057D01*
X235097408Y-98509976D01*
X235106272Y-98559798D01*
X235107563Y-98587857D01*
X235107563Y-98747470D01*
X235103724Y-98800472D01*
X235092483Y-98849831D01*
X235049503Y-98936539D01*
X234980572Y-99006713D01*
X234886517Y-99057824D01*
X234768751Y-99085547D01*
X234704440Y-99089043D01*
X234485965Y-99089043D01*
X234400009Y-99074919D01*
X234303632Y-99030263D01*
X234222793Y-98974249D01*
X234222793Y-99075000D01*
X233942769Y-99075000D01*
X233942769Y-98684089D01*
X234222793Y-98684089D01*
X234222793Y-98711322D01*
X234343205Y-98806210D01*
X234380444Y-98834517D01*
X234420740Y-98849865D01*
X234463616Y-98853838D01*
X234718362Y-98855547D01*
X234758356Y-98851769D01*
X234789421Y-98840949D01*
X234809846Y-98825836D01*
X234823236Y-98806214D01*
X234830347Y-98771161D01*
X234830347Y-98594207D01*
X234826473Y-98560981D01*
X234814988Y-98532578D01*
X234797951Y-98511574D01*
X234774848Y-98496115D01*
X234718362Y-98484542D01*
X234530783Y-98484542D01*
X234489048Y-98488513D01*
X234453966Y-98500678D01*
X234399136Y-98538032D01*
X234222793Y-98684089D01*
X233942769Y-98684089D01*
X233942769Y-98257519D01*
X233946616Y-98202400D01*
X233957916Y-98149968D01*
X234001908Y-98054201D01*
X234072608Y-97974126D01*
X234117290Y-97941302D01*
X234167508Y-97914179D01*
X234223068Y-97893182D01*
X234283408Y-97878903D01*
X234376788Y-97871127D01*
X234945141Y-97871127D01*
X234945141Y-98123063D01*
G37*
G36*
X232703602Y-97879187D02*
G01*
X233031132Y-97879187D01*
X233081516Y-97882935D01*
X233126367Y-97893542D01*
X233207532Y-97934190D01*
X233312665Y-98024931D01*
X233341931Y-98052843D01*
X233341931Y-97887613D01*
X233621956Y-97887613D01*
X233621956Y-99075000D01*
X233341931Y-99075000D01*
X233341931Y-98351796D01*
X233145926Y-98173133D01*
X233096208Y-98141045D01*
X233017088Y-98134054D01*
X232703602Y-98134054D01*
X232703602Y-97879187D01*
G37*
G36*
X230291704Y-98814637D02*
G01*
X231198822Y-98814637D01*
X231174823Y-98747523D01*
X231116007Y-98674586D01*
X231006558Y-98586675D01*
X230815752Y-98465888D01*
X230632849Y-98351308D01*
X230546417Y-98289950D01*
X230467945Y-98224881D01*
X230400890Y-98155353D01*
X230348711Y-98080617D01*
X230314867Y-97999924D01*
X230302817Y-97912526D01*
X230302817Y-97803349D01*
X230317866Y-97700301D01*
X230361870Y-97607200D01*
X230432857Y-97528792D01*
X230477604Y-97496830D01*
X230527575Y-97470803D01*
X230582241Y-97451257D01*
X230641097Y-97438726D01*
X230711680Y-97433688D01*
X231109307Y-97433688D01*
X231219594Y-97448505D01*
X231318552Y-97491503D01*
X231401819Y-97560168D01*
X231463209Y-97649973D01*
X231483627Y-97700354D01*
X231496478Y-97753184D01*
X231501317Y-97811775D01*
X231501317Y-97940491D01*
X231215675Y-97940491D01*
X231215675Y-97803349D01*
X231201665Y-97752052D01*
X231161535Y-97711893D01*
X231117612Y-97699790D01*
X230692018Y-97699790D01*
X230663030Y-97703512D01*
X230638279Y-97713935D01*
X230601745Y-97752485D01*
X230588459Y-97806524D01*
X230588459Y-97907519D01*
X230603304Y-97964559D01*
X230652241Y-98028185D01*
X230753219Y-98109342D01*
X230926890Y-98219633D01*
X231126259Y-98346059D01*
X231222824Y-98416252D01*
X231311538Y-98492316D01*
X231388074Y-98575160D01*
X231448101Y-98665698D01*
X231487292Y-98764840D01*
X231501317Y-98873499D01*
X231501317Y-99075000D01*
X230291704Y-99075000D01*
X230291704Y-98814637D01*
G37*
G36*
X229580898Y-97464224D02*
G01*
X229687996Y-97507388D01*
X229778634Y-97576191D01*
X229847550Y-97666636D01*
X229872130Y-97718058D01*
X229889456Y-97772614D01*
X229901038Y-97869661D01*
X229901038Y-98654780D01*
X229886026Y-98767053D01*
X229842187Y-98869016D01*
X229771639Y-98956124D01*
X229677836Y-99022802D01*
X229623904Y-99046704D01*
X229566042Y-99063635D01*
X229461401Y-99075000D01*
X229102974Y-99075000D01*
X228984114Y-99060028D01*
X228876791Y-99016501D01*
X228786115Y-98947159D01*
X228748828Y-98904088D01*
X228717830Y-98856319D01*
X228693795Y-98804860D01*
X228676941Y-98749902D01*
X228666146Y-98654780D01*
X228666146Y-97869661D01*
X228668422Y-97852808D01*
X228946171Y-97852808D01*
X228946171Y-98671632D01*
X228960414Y-98731665D01*
X229002412Y-98784193D01*
X229031293Y-98802413D01*
X229063087Y-98812774D01*
X229083435Y-98814637D01*
X229480940Y-98814637D01*
X229538164Y-98800452D01*
X229588929Y-98758312D01*
X229607556Y-98728397D01*
X229618553Y-98695732D01*
X229621014Y-98671632D01*
X229621014Y-97852808D01*
X229606801Y-97792688D01*
X229565280Y-97741187D01*
X229536197Y-97722855D01*
X229504281Y-97712138D01*
X229480940Y-97709804D01*
X229083435Y-97709804D01*
X229027915Y-97723989D01*
X228977686Y-97766566D01*
X228959198Y-97796838D01*
X228948400Y-97829865D01*
X228946171Y-97852808D01*
X228668422Y-97852808D01*
X228681308Y-97757375D01*
X228725995Y-97653412D01*
X228758660Y-97606838D01*
X228797651Y-97564966D01*
X228842044Y-97528866D01*
X228891885Y-97498693D01*
X228945503Y-97475567D01*
X229003633Y-97459352D01*
X229102974Y-97449319D01*
X229461401Y-97449319D01*
X229580898Y-97464224D01*
G37*
G36*
X227065745Y-98814637D02*
G01*
X227972863Y-98814637D01*
X227948864Y-98747523D01*
X227890048Y-98674586D01*
X227780599Y-98586675D01*
X227589793Y-98465888D01*
X227406889Y-98351308D01*
X227320458Y-98289950D01*
X227241985Y-98224881D01*
X227174930Y-98155353D01*
X227122751Y-98080617D01*
X227088908Y-97999924D01*
X227076858Y-97912526D01*
X227076858Y-97803349D01*
X227091907Y-97700301D01*
X227135910Y-97607200D01*
X227206897Y-97528792D01*
X227251644Y-97496830D01*
X227301616Y-97470803D01*
X227356282Y-97451257D01*
X227415138Y-97438726D01*
X227485720Y-97433688D01*
X227883348Y-97433688D01*
X227993634Y-97448505D01*
X228092592Y-97491503D01*
X228175860Y-97560168D01*
X228237249Y-97649973D01*
X228257667Y-97700354D01*
X228270518Y-97753184D01*
X228275358Y-97811775D01*
X228275358Y-97940491D01*
X227989716Y-97940491D01*
X227989716Y-97803349D01*
X227975706Y-97752052D01*
X227935576Y-97711893D01*
X227891652Y-97699790D01*
X227466059Y-97699790D01*
X227437070Y-97703512D01*
X227412319Y-97713935D01*
X227375785Y-97752485D01*
X227362500Y-97806524D01*
X227362500Y-97907519D01*
X227377344Y-97964559D01*
X227426281Y-98028185D01*
X227527260Y-98109342D01*
X227700931Y-98219633D01*
X227900299Y-98346059D01*
X227996864Y-98416252D01*
X228085579Y-98492316D01*
X228162114Y-98575160D01*
X228222141Y-98665698D01*
X228261332Y-98764840D01*
X228275358Y-98873499D01*
X228275358Y-99075000D01*
X227065745Y-99075000D01*
X227065745Y-98814637D01*
G37*
G36*
X226310380Y-97448553D02*
G01*
X226422997Y-97491564D01*
X226520370Y-97560563D01*
X226598265Y-97652537D01*
X226651204Y-97762021D01*
X226666666Y-97820607D01*
X226674290Y-97880528D01*
X226675078Y-97906908D01*
X226675078Y-98675296D01*
X226659963Y-98781840D01*
X226614683Y-98884047D01*
X226581197Y-98930920D01*
X226541250Y-98973309D01*
X226495739Y-99010104D01*
X226444765Y-99040932D01*
X226390484Y-99064410D01*
X226331873Y-99080821D01*
X226235441Y-99090631D01*
X225871397Y-99090631D01*
X225806394Y-99086795D01*
X225744892Y-99075577D01*
X225686904Y-99057242D01*
X225633385Y-99032291D01*
X225584694Y-99001095D01*
X225541415Y-98964148D01*
X225504190Y-98922134D01*
X225473230Y-98875310D01*
X225449227Y-98824730D01*
X225432229Y-98770304D01*
X225420647Y-98669678D01*
X225420647Y-98432885D01*
X225422169Y-98421650D01*
X225700672Y-98421650D01*
X225700672Y-98672487D01*
X225704602Y-98717734D01*
X225716479Y-98755443D01*
X225733177Y-98781829D01*
X225755950Y-98802541D01*
X225818241Y-98826478D01*
X225865780Y-98830268D01*
X226241059Y-98830268D01*
X226281029Y-98826512D01*
X226313624Y-98815850D01*
X226358704Y-98778747D01*
X226385983Y-98719042D01*
X226397449Y-98628090D01*
X226397863Y-98599214D01*
X226397863Y-98508967D01*
X226190623Y-98328593D01*
X226153825Y-98301909D01*
X226115508Y-98285600D01*
X226053480Y-98277791D01*
X225843432Y-98277791D01*
X225807047Y-98281634D01*
X225774480Y-98292908D01*
X225747611Y-98310431D01*
X225726018Y-98334145D01*
X225710965Y-98362616D01*
X225702399Y-98396234D01*
X225700672Y-98421650D01*
X225422169Y-98421650D01*
X225435753Y-98321347D01*
X225479890Y-98220181D01*
X225550545Y-98134997D01*
X225594589Y-98100259D01*
X225643899Y-98071478D01*
X225697408Y-98049440D01*
X225755241Y-98034331D01*
X225846240Y-98025854D01*
X226078637Y-98025854D01*
X226164717Y-98040071D01*
X226246422Y-98082122D01*
X226348141Y-98166207D01*
X226395054Y-98207815D01*
X226395054Y-97913381D01*
X226380081Y-97834087D01*
X226361593Y-97797634D01*
X226336475Y-97765392D01*
X226305766Y-97738783D01*
X226269647Y-97718307D01*
X226230450Y-97705386D01*
X226187202Y-97699915D01*
X226179388Y-97699790D01*
X225865780Y-97699790D01*
X225827464Y-97703546D01*
X225795746Y-97714207D01*
X225771628Y-97730190D01*
X225754123Y-97750937D01*
X225739873Y-97803349D01*
X225739873Y-97940491D01*
X225451422Y-97940491D01*
X225451422Y-97811775D01*
X225466512Y-97711828D01*
X225511554Y-97617272D01*
X225584900Y-97535365D01*
X225630809Y-97501762D01*
X225682198Y-97474079D01*
X225737496Y-97453364D01*
X225797149Y-97439732D01*
X225874206Y-97433688D01*
X226185005Y-97433688D01*
X226310380Y-97448553D01*
G37*
G36*
X240652730Y-102180254D02*
G01*
X240885127Y-102180254D01*
X240885127Y-101064187D01*
X240652730Y-101064187D01*
X240652730Y-100809319D01*
X241403166Y-100809319D01*
X241403166Y-101064187D01*
X241167960Y-101064187D01*
X241167960Y-102180254D01*
X241403166Y-102180254D01*
X241403166Y-102435000D01*
X240652730Y-102435000D01*
X240652730Y-102180254D01*
G37*
G36*
X239413076Y-102174637D02*
G01*
X239774311Y-102174637D01*
X239833944Y-102170098D01*
X239873368Y-102153961D01*
X239898531Y-102114813D01*
X239905836Y-102046409D01*
X239905836Y-101496863D01*
X239586610Y-101496863D01*
X239586610Y-101239187D01*
X239905836Y-101239187D01*
X239905836Y-100809319D01*
X240185860Y-100809319D01*
X240185860Y-101239187D01*
X240443414Y-101239187D01*
X240443414Y-101496863D01*
X240185860Y-101496863D01*
X240185860Y-102043600D01*
X240181999Y-102110189D01*
X240170602Y-102170849D01*
X240152907Y-102223243D01*
X240128818Y-102270049D01*
X240099387Y-102310256D01*
X240064331Y-102344993D01*
X239977644Y-102398028D01*
X239866652Y-102428664D01*
X239777120Y-102435000D01*
X239413076Y-102435000D01*
X239413076Y-102174637D01*
G37*
G36*
X238868605Y-101246349D02*
G01*
X238975367Y-101289857D01*
X239022643Y-101321485D01*
X239064583Y-101358830D01*
X239100636Y-101401334D01*
X239130267Y-101448463D01*
X239152635Y-101498842D01*
X239167733Y-101552655D01*
X239175672Y-101631929D01*
X239175672Y-102055202D01*
X239171828Y-102112203D01*
X239160555Y-102166040D01*
X239116991Y-102263200D01*
X239047227Y-102343939D01*
X238953396Y-102404738D01*
X238898124Y-102426417D01*
X238838196Y-102441444D01*
X238736034Y-102450631D01*
X238153637Y-102450631D01*
X238153637Y-102198695D01*
X238755696Y-102198695D01*
X238821948Y-102184367D01*
X238851505Y-102166765D01*
X238874851Y-102143741D01*
X238889446Y-102118357D01*
X238895554Y-102090210D01*
X238895647Y-102086221D01*
X238895647Y-101959581D01*
X238002451Y-101959581D01*
X238002451Y-101631929D01*
X238005586Y-101609581D01*
X238282475Y-101609581D01*
X238282475Y-101715949D01*
X238895647Y-101715949D01*
X238895647Y-101609581D01*
X238881369Y-101560138D01*
X238837049Y-101513303D01*
X238806375Y-101497434D01*
X238772551Y-101489573D01*
X238761314Y-101489047D01*
X238408505Y-101489047D01*
X238355746Y-101503095D01*
X238305754Y-101546071D01*
X238289693Y-101574395D01*
X238282634Y-101604502D01*
X238282475Y-101609581D01*
X238005586Y-101609581D01*
X238017424Y-101525206D01*
X238061444Y-101427009D01*
X238132699Y-101342417D01*
X238177584Y-101307174D01*
X238227430Y-101277973D01*
X238281529Y-101255395D01*
X238339319Y-101239953D01*
X238428044Y-101231371D01*
X238750078Y-101231371D01*
X238868605Y-101246349D01*
G37*
G36*
X236791251Y-101239187D02*
G01*
X237118780Y-101239187D01*
X237169164Y-101242935D01*
X237214015Y-101253542D01*
X237295180Y-101294190D01*
X237400313Y-101384931D01*
X237429579Y-101412843D01*
X237429579Y-101247613D01*
X237709604Y-101247613D01*
X237709604Y-102435000D01*
X237429579Y-102435000D01*
X237429579Y-101711796D01*
X237233575Y-101533133D01*
X237183856Y-101501045D01*
X237104736Y-101494054D01*
X236791251Y-101494054D01*
X236791251Y-101239187D01*
G37*
G36*
X236274433Y-102127009D02*
G01*
X236278119Y-102112057D01*
X236288290Y-102102287D01*
X236302521Y-102099043D01*
X236582423Y-102099043D01*
X236597463Y-102102725D01*
X236607264Y-102112862D01*
X236610511Y-102127009D01*
X236610511Y-102407034D01*
X236606825Y-102422040D01*
X236596654Y-102431781D01*
X236582423Y-102435000D01*
X236302521Y-102435000D01*
X236287412Y-102431307D01*
X236277607Y-102421093D01*
X236274433Y-102407034D01*
X236274433Y-102127009D01*
G37*
G36*
X233793170Y-102174637D02*
G01*
X234700288Y-102174637D01*
X234676289Y-102107523D01*
X234617473Y-102034586D01*
X234508024Y-101946675D01*
X234317218Y-101825888D01*
X234134314Y-101711308D01*
X234047883Y-101649950D01*
X233969410Y-101584881D01*
X233902355Y-101515353D01*
X233850176Y-101440617D01*
X233816333Y-101359924D01*
X233804283Y-101272526D01*
X233804283Y-101163349D01*
X233819332Y-101060301D01*
X233863335Y-100967200D01*
X233934322Y-100888792D01*
X233979069Y-100856830D01*
X234029041Y-100830803D01*
X234083707Y-100811257D01*
X234142563Y-100798726D01*
X234213145Y-100793688D01*
X234610773Y-100793688D01*
X234721059Y-100808505D01*
X234820017Y-100851503D01*
X234903285Y-100920168D01*
X234964674Y-101009973D01*
X234985092Y-101060354D01*
X234997943Y-101113184D01*
X235002783Y-101171775D01*
X235002783Y-101300491D01*
X234717141Y-101300491D01*
X234717141Y-101163349D01*
X234703131Y-101112052D01*
X234663001Y-101071893D01*
X234619077Y-101059790D01*
X234193484Y-101059790D01*
X234164495Y-101063512D01*
X234139744Y-101073935D01*
X234103210Y-101112485D01*
X234089925Y-101166524D01*
X234089925Y-101267519D01*
X234104769Y-101324559D01*
X234153706Y-101388185D01*
X234254685Y-101469342D01*
X234428356Y-101579633D01*
X234627724Y-101706059D01*
X234724289Y-101776252D01*
X234813004Y-101852316D01*
X234889539Y-101935160D01*
X234949566Y-102025698D01*
X234988757Y-102124840D01*
X235002783Y-102233499D01*
X235002783Y-102435000D01*
X233793170Y-102435000D01*
X233793170Y-102174637D01*
G37*
G36*
X233136401Y-102127009D02*
G01*
X233140087Y-102112057D01*
X233150258Y-102102287D01*
X233164489Y-102099043D01*
X233444391Y-102099043D01*
X233459431Y-102102725D01*
X233469232Y-102112862D01*
X233472479Y-102127009D01*
X233472479Y-102407034D01*
X233468793Y-102422040D01*
X233458622Y-102431781D01*
X233444391Y-102435000D01*
X233164489Y-102435000D01*
X233149380Y-102431307D01*
X233139575Y-102421093D01*
X233136401Y-102407034D01*
X233136401Y-102127009D01*
G37*
G36*
X232496181Y-100824224D02*
G01*
X232603279Y-100867388D01*
X232693917Y-100936191D01*
X232762833Y-101026636D01*
X232787413Y-101078058D01*
X232804738Y-101132614D01*
X232816321Y-101229661D01*
X232816321Y-102014780D01*
X232801309Y-102127053D01*
X232757470Y-102229016D01*
X232686921Y-102316124D01*
X232593119Y-102382802D01*
X232539187Y-102406704D01*
X232481324Y-102423635D01*
X232376683Y-102435000D01*
X232018257Y-102435000D01*
X231899397Y-102420028D01*
X231792074Y-102376501D01*
X231701398Y-102307159D01*
X231664111Y-102264088D01*
X231633112Y-102216319D01*
X231609077Y-102164860D01*
X231592224Y-102109902D01*
X231581429Y-102014780D01*
X231581429Y-101229661D01*
X231583705Y-101212808D01*
X231861453Y-101212808D01*
X231861453Y-102031632D01*
X231875697Y-102091665D01*
X231917695Y-102144193D01*
X231946576Y-102162413D01*
X231978370Y-102172774D01*
X231998718Y-102174637D01*
X232396223Y-102174637D01*
X232453447Y-102160452D01*
X232504211Y-102118312D01*
X232522838Y-102088397D01*
X232533835Y-102055732D01*
X232536296Y-102031632D01*
X232536296Y-101212808D01*
X232522084Y-101152688D01*
X232480563Y-101101187D01*
X232451480Y-101082855D01*
X232419563Y-101072138D01*
X232396223Y-101069804D01*
X231998718Y-101069804D01*
X231943198Y-101083989D01*
X231892968Y-101126566D01*
X231874480Y-101156838D01*
X231863682Y-101189865D01*
X231861453Y-101212808D01*
X231583705Y-101212808D01*
X231596591Y-101117375D01*
X231641278Y-101013412D01*
X231673943Y-100966838D01*
X231712934Y-100924966D01*
X231757327Y-100888866D01*
X231807167Y-100858693D01*
X231860785Y-100835567D01*
X231918915Y-100819352D01*
X232018257Y-100809319D01*
X232376683Y-100809319D01*
X232496181Y-100824224D01*
G37*
G36*
X230924538Y-102127009D02*
G01*
X230928224Y-102112057D01*
X230938395Y-102102287D01*
X230952626Y-102099043D01*
X231232528Y-102099043D01*
X231247567Y-102102725D01*
X231257368Y-102112862D01*
X231260616Y-102127009D01*
X231260616Y-102407034D01*
X231256930Y-102422040D01*
X231246758Y-102431781D01*
X231232528Y-102435000D01*
X230952626Y-102435000D01*
X230937517Y-102431307D01*
X230927712Y-102421093D01*
X230924538Y-102407034D01*
X230924538Y-102127009D01*
G37*
G36*
X229394845Y-102174637D02*
G01*
X230301963Y-102174637D01*
X230277963Y-102107523D01*
X230219147Y-102034586D01*
X230109698Y-101946675D01*
X229918892Y-101825888D01*
X229735989Y-101711308D01*
X229649558Y-101649950D01*
X229571085Y-101584881D01*
X229504030Y-101515353D01*
X229451851Y-101440617D01*
X229418008Y-101359924D01*
X229405958Y-101272526D01*
X229405958Y-101163349D01*
X229421007Y-101060301D01*
X229465010Y-100967200D01*
X229535997Y-100888792D01*
X229580744Y-100856830D01*
X229630715Y-100830803D01*
X229685381Y-100811257D01*
X229744238Y-100798726D01*
X229814820Y-100793688D01*
X230212448Y-100793688D01*
X230322734Y-100808505D01*
X230421692Y-100851503D01*
X230504960Y-100920168D01*
X230566349Y-101009973D01*
X230586767Y-101060354D01*
X230599618Y-101113184D01*
X230604457Y-101171775D01*
X230604457Y-101300491D01*
X230318815Y-101300491D01*
X230318815Y-101163349D01*
X230304806Y-101112052D01*
X230264675Y-101071893D01*
X230220752Y-101059790D01*
X229795159Y-101059790D01*
X229766170Y-101063512D01*
X229741419Y-101073935D01*
X229704885Y-101112485D01*
X229691600Y-101166524D01*
X229691600Y-101267519D01*
X229706444Y-101324559D01*
X229755381Y-101388185D01*
X229856359Y-101469342D01*
X230030031Y-101579633D01*
X230229399Y-101706059D01*
X230325964Y-101776252D01*
X230414679Y-101852316D01*
X230491214Y-101935160D01*
X230551241Y-102025698D01*
X230590432Y-102124840D01*
X230604457Y-102233499D01*
X230604457Y-102435000D01*
X229394845Y-102435000D01*
X229394845Y-102174637D01*
G37*
D10*
X262086112Y-95747994D02*
X269893118Y-95747994D01*
X259293118Y-92955000D02*
X262086112Y-95747994D01*
X256243118Y-92955000D02*
X259293118Y-92955000D01*
X253123118Y-96075000D02*
X256243118Y-92955000D01*
X253123118Y-98247994D02*
X253123118Y-96075000D01*
D11*
X199753118Y-121160000D02*
X192543118Y-121160000D01*
X206923118Y-113265000D02*
X204353118Y-115835000D01*
D10*
X272373118Y-113575000D02*
X270373118Y-110845000D01*
X259858118Y-121302006D02*
X253123118Y-112075938D01*
D11*
X192543118Y-115930000D02*
X191043118Y-117430000D01*
D10*
X255623118Y-121342006D02*
X269893118Y-121342006D01*
D11*
X199663118Y-125045000D02*
X187763118Y-125045000D01*
D10*
X272393118Y-118842006D02*
X272393118Y-98247994D01*
D11*
X220213118Y-149390000D02*
X220213118Y-151620000D01*
X209253118Y-144535000D02*
X209253118Y-133965000D01*
X218713118Y-153120000D02*
X211503118Y-153120000D01*
X209253118Y-133965000D02*
X206343118Y-131055000D01*
D10*
X269893118Y-121342006D02*
X272393118Y-118842006D01*
X269893118Y-95747994D02*
X272393118Y-98247994D01*
X253123118Y-118842006D02*
X255623118Y-121342006D01*
D11*
X204353118Y-120355000D02*
X199663118Y-125045000D01*
X201253118Y-119660000D02*
X199753118Y-121160000D01*
X220543118Y-157025000D02*
X209943118Y-157025000D01*
D10*
X256898118Y-121302006D02*
X253163118Y-116175000D01*
D11*
X201253118Y-117430000D02*
X201253118Y-119660000D01*
X211503118Y-147890000D02*
X210003118Y-149390000D01*
X204903118Y-151985000D02*
X204903118Y-149405000D01*
D10*
X266252040Y-100986402D02*
X262463118Y-95765000D01*
D11*
X209943118Y-157025000D02*
X204903118Y-151985000D01*
X209423118Y-110765000D02*
X209423118Y-99935000D01*
X211503118Y-153120000D02*
X210003118Y-151620000D01*
D10*
X269018118Y-121342006D02*
X253209582Y-99572028D01*
D11*
X204353118Y-115835000D02*
X204353118Y-120355000D01*
D10*
X264943118Y-103315000D02*
X257411761Y-92955000D01*
D11*
X223773118Y-145835000D02*
X225243118Y-147305000D01*
D10*
X272318851Y-117462006D02*
X267533118Y-110885000D01*
D11*
X210003118Y-149390000D02*
X210003118Y-151620000D01*
X209423118Y-99935000D02*
X206823118Y-97335000D01*
X191043118Y-117430000D02*
X191043118Y-119660000D01*
X225243118Y-147305000D02*
X225243118Y-152325000D01*
X206823118Y-97335000D02*
X187253118Y-97335000D01*
D10*
X272413118Y-101275000D02*
X268399615Y-95747994D01*
X262938118Y-121382006D02*
X253123118Y-107752891D01*
X263615984Y-105408503D02*
X255338177Y-93982872D01*
D11*
X192543118Y-121160000D02*
X191043118Y-119660000D01*
X209423118Y-110765000D02*
X206923118Y-113265000D01*
X220213118Y-149390000D02*
X218713118Y-147890000D01*
X201253118Y-117430000D02*
X199753118Y-115930000D01*
D10*
X272373118Y-105455000D02*
X265348808Y-95747994D01*
D11*
X204903118Y-149405000D02*
X202513118Y-147015000D01*
X209253118Y-144535000D02*
X210553118Y-145835000D01*
D10*
X271143118Y-120092006D02*
X253527663Y-95833715D01*
D11*
X220213118Y-151620000D02*
X218713118Y-153120000D01*
X199753118Y-115930000D02*
X192543118Y-115930000D01*
X218713118Y-147890000D02*
X211503118Y-147890000D01*
D10*
X272250972Y-109204568D02*
X271053118Y-107555000D01*
X253123118Y-118842006D02*
X253123118Y-98247994D01*
D11*
X202513118Y-147015000D02*
X187373118Y-147015000D01*
X210553118Y-145835000D02*
X223773118Y-145835000D01*
X225243118Y-152325000D02*
X220543118Y-157025000D01*
D10*
X266028118Y-121342006D02*
X253210597Y-103690965D01*
D13*
G36*
X202986248Y-128874546D02*
G01*
X204120146Y-128874546D01*
X204090147Y-128790653D01*
X204016627Y-128699483D01*
X203879815Y-128589594D01*
X203641308Y-128438610D01*
X203412678Y-128295385D01*
X203304639Y-128218687D01*
X203206549Y-128137351D01*
X203122730Y-128050441D01*
X203057506Y-127957021D01*
X203015202Y-127856155D01*
X203000139Y-127746907D01*
X203000139Y-127610437D01*
X203018951Y-127481627D01*
X203073955Y-127365250D01*
X203162688Y-127267240D01*
X203218622Y-127227287D01*
X203281087Y-127194754D01*
X203349419Y-127170322D01*
X203422989Y-127154658D01*
X203511218Y-127148360D01*
X204008252Y-127148360D01*
X204146110Y-127166881D01*
X204269808Y-127220628D01*
X204373892Y-127306460D01*
X204450629Y-127418717D01*
X204476151Y-127481692D01*
X204492215Y-127547730D01*
X204498264Y-127620969D01*
X204498264Y-127781864D01*
X204141212Y-127781864D01*
X204141212Y-127610437D01*
X204123699Y-127546315D01*
X204073537Y-127496116D01*
X204018632Y-127480988D01*
X203486641Y-127480988D01*
X203450405Y-127485640D01*
X203419466Y-127498669D01*
X203373799Y-127546857D01*
X203357192Y-127614405D01*
X203357192Y-127740648D01*
X203375747Y-127811949D01*
X203436918Y-127891481D01*
X203563141Y-127992927D01*
X203780231Y-128130792D01*
X204029441Y-128288824D01*
X204150148Y-128376566D01*
X204261041Y-128471645D01*
X204356710Y-128575200D01*
X204431744Y-128688372D01*
X204480732Y-128812300D01*
X204498264Y-128948124D01*
X204498264Y-129200000D01*
X202986248Y-129200000D01*
X202986248Y-128874546D01*
G37*
G36*
X202497915Y-128531079D02*
G01*
X202497915Y-128783107D01*
X201451335Y-128783107D01*
X201451335Y-129200000D01*
X201094435Y-129200000D01*
X201094435Y-128783107D01*
X200807297Y-128783107D01*
X200807297Y-128457501D01*
X201094435Y-128457501D01*
X201451335Y-128457501D01*
X202011414Y-128457501D01*
X201451335Y-127753166D01*
X201451335Y-128457501D01*
X201094435Y-128457501D01*
X201094435Y-127167899D01*
X201398822Y-127167899D01*
X202497915Y-128531079D01*
G37*
G36*
X198810764Y-127167899D02*
G01*
X199171175Y-127167899D01*
X199171175Y-128360415D01*
X199177544Y-128449014D01*
X199202591Y-128504522D01*
X199227198Y-128532148D01*
X199591273Y-128907519D01*
X199955194Y-128532148D01*
X199992025Y-128485414D01*
X200008305Y-128427443D01*
X200011218Y-128360415D01*
X200011218Y-127167899D01*
X200371628Y-127167899D01*
X200371628Y-128370948D01*
X200366673Y-128462389D01*
X200351527Y-128540244D01*
X200329724Y-128599813D01*
X200299605Y-128654320D01*
X200224777Y-128746166D01*
X199752168Y-129219539D01*
X199430225Y-129219539D01*
X198957768Y-128746166D01*
X198898376Y-128676725D01*
X198854830Y-128604402D01*
X198832212Y-128544886D01*
X198817778Y-128477949D01*
X198810764Y-128370948D01*
X198810764Y-127167899D01*
G37*
G36*
X196184543Y-128888590D02*
G01*
X196513507Y-128888590D01*
X196513507Y-127167899D01*
X197185633Y-127167899D01*
X197185633Y-127482972D01*
X196863538Y-127482972D01*
X196863538Y-128888590D01*
X197185633Y-128888590D01*
X197185633Y-129200000D01*
X196184543Y-129200000D01*
X196184543Y-128888590D01*
G37*
G36*
X195295577Y-127186530D02*
G01*
X195429450Y-127240485D01*
X195542747Y-127326489D01*
X195628892Y-127439545D01*
X195659617Y-127503822D01*
X195681274Y-127572018D01*
X195695752Y-127693326D01*
X195695752Y-128674725D01*
X195676987Y-128815066D01*
X195622189Y-128942520D01*
X195534003Y-129051405D01*
X195416749Y-129134753D01*
X195349334Y-129164630D01*
X195277006Y-129185793D01*
X195146205Y-129200000D01*
X194698172Y-129200000D01*
X194549597Y-129181285D01*
X194415444Y-129126876D01*
X194302098Y-129040199D01*
X194255490Y-128986360D01*
X194216742Y-128926649D01*
X194186698Y-128862326D01*
X194165631Y-128793627D01*
X194152137Y-128674725D01*
X194152137Y-127693326D01*
X194154981Y-127672260D01*
X194502168Y-127672260D01*
X194502168Y-128695791D01*
X194519972Y-128770832D01*
X194572470Y-128836491D01*
X194608571Y-128859267D01*
X194648313Y-128872218D01*
X194673748Y-128874546D01*
X195170630Y-128874546D01*
X195242160Y-128856815D01*
X195305615Y-128804140D01*
X195328899Y-128766747D01*
X195342645Y-128725916D01*
X195345721Y-128695791D01*
X195345721Y-127672260D01*
X195327956Y-127597110D01*
X195276054Y-127532734D01*
X195239701Y-127509819D01*
X195199805Y-127496423D01*
X195170630Y-127493505D01*
X194673748Y-127493505D01*
X194604348Y-127511236D01*
X194541561Y-127564458D01*
X194518452Y-127602298D01*
X194504954Y-127643582D01*
X194502168Y-127672260D01*
X194154981Y-127672260D01*
X194171089Y-127552969D01*
X194226948Y-127423015D01*
X194267780Y-127364797D01*
X194316518Y-127312457D01*
X194372010Y-127267332D01*
X194434310Y-127229616D01*
X194501333Y-127200709D01*
X194573995Y-127180441D01*
X194698172Y-127167899D01*
X195146205Y-127167899D01*
X195295577Y-127186530D01*
G37*
G36*
X193548094Y-127580822D02*
G01*
X193600916Y-127636030D01*
X193642502Y-127693608D01*
X193695059Y-127814573D01*
X193715548Y-127957011D01*
X193716011Y-127985197D01*
X193716011Y-129200000D01*
X193362622Y-129200000D01*
X193362622Y-128560389D01*
X192494644Y-128560389D01*
X192494644Y-129200000D01*
X192141102Y-129200000D01*
X192141102Y-127995730D01*
X192494644Y-127995730D01*
X192494644Y-128252337D01*
X193362622Y-128252337D01*
X193362622Y-127995730D01*
X193356948Y-127924785D01*
X193336770Y-127867037D01*
X193282022Y-127798809D01*
X192932144Y-127468318D01*
X192575092Y-127798809D01*
X192534396Y-127844579D01*
X192509481Y-127891292D01*
X192494725Y-127985596D01*
X192494644Y-127995730D01*
X192141102Y-127995730D01*
X192141102Y-127985197D01*
X192146446Y-127891014D01*
X192164311Y-127803208D01*
X192188533Y-127739058D01*
X192223221Y-127677975D01*
X192309172Y-127580822D01*
X192774607Y-127148360D01*
X193089528Y-127148360D01*
X193548094Y-127580822D01*
G37*
X207095675Y-145251342D02*
X206952818Y-145394200D01*
X206952818Y-145394200D02*
X207095675Y-145537057D01*
X207095675Y-145537057D02*
X207238532Y-145394200D01*
X207238532Y-145394200D02*
X207095675Y-145251342D01*
X207095675Y-145251342D02*
X207095675Y-145537057D01*
X207095675Y-144394200D02*
X207238532Y-142679914D01*
X207238532Y-142679914D02*
X207095675Y-142537057D01*
X207095675Y-142537057D02*
X206952818Y-142679914D01*
X206952818Y-142679914D02*
X207095675Y-144394200D01*
X207095675Y-144394200D02*
X207095675Y-142537057D01*
G36*
X197324157Y-121970707D02*
G01*
X197372032Y-121986783D01*
X197415656Y-122014281D01*
X197477938Y-122091532D01*
X197499257Y-122181713D01*
X197499257Y-123409949D01*
X197495565Y-123446099D01*
X197479070Y-123495096D01*
X197451130Y-123539968D01*
X197374983Y-123603178D01*
X197289147Y-123624455D01*
X196692889Y-123624455D01*
X196662367Y-123621662D01*
X196614676Y-123606120D01*
X196571355Y-123578790D01*
X196508358Y-123499998D01*
X196486992Y-123409949D01*
X196486992Y-122181713D01*
X196490336Y-122147298D01*
X196506533Y-122097758D01*
X196534265Y-122052350D01*
X196609609Y-121988484D01*
X196692889Y-121967206D01*
X197289147Y-121967206D01*
X197324157Y-121970707D01*
G37*
G36*
X198252626Y-124348333D02*
G01*
X193946131Y-124348333D01*
X193946131Y-123641308D01*
X194279464Y-123641308D01*
X194279464Y-124015000D01*
X195480773Y-124015000D01*
X195480773Y-123641308D01*
X195094258Y-123641308D01*
X195094258Y-122206992D01*
X196066956Y-122206992D01*
X196066956Y-123384670D01*
X196083148Y-123527353D01*
X196108429Y-123609791D01*
X196144481Y-123686979D01*
X196190979Y-123758632D01*
X196246909Y-123823239D01*
X196382923Y-123927252D01*
X196543908Y-123992542D01*
X196722198Y-124015000D01*
X197259838Y-124015000D01*
X197416799Y-123997952D01*
X197503592Y-123972557D01*
X197584490Y-123936704D01*
X197725195Y-123836686D01*
X197831018Y-123706024D01*
X197896776Y-123553079D01*
X197919293Y-123384670D01*
X197919293Y-122206992D01*
X197901920Y-122061421D01*
X197875932Y-121979587D01*
X197839062Y-121902454D01*
X197735688Y-121766787D01*
X197599731Y-121663582D01*
X197439084Y-121598836D01*
X197259838Y-121576479D01*
X196722198Y-121576479D01*
X196573185Y-121591529D01*
X196485990Y-121615851D01*
X196405563Y-121650539D01*
X196330803Y-121695799D01*
X196264213Y-121749949D01*
X196205727Y-121812757D01*
X196156729Y-121882618D01*
X196089698Y-122038563D01*
X196070369Y-122181713D01*
X196066956Y-122206992D01*
X195094258Y-122206992D01*
X195094258Y-121954567D01*
X195480773Y-121954567D01*
X195480773Y-121576479D01*
X194674222Y-121576479D01*
X194674222Y-123641308D01*
X194279464Y-123641308D01*
X193946131Y-123641308D01*
X193946131Y-121243146D01*
X198252626Y-121243146D01*
X198252626Y-124348333D01*
G37*
G36*
X206679554Y-100931580D02*
G01*
X206835499Y-100998611D01*
X206905360Y-101047609D01*
X206968168Y-101106095D01*
X207022318Y-101172685D01*
X207067578Y-101247445D01*
X207102266Y-101327872D01*
X207126588Y-101415067D01*
X207141638Y-101564080D01*
X207141638Y-102101720D01*
X207119281Y-102280966D01*
X207054535Y-102441613D01*
X206951330Y-102577570D01*
X206815663Y-102680944D01*
X206738530Y-102717814D01*
X206656696Y-102743802D01*
X206511125Y-102761175D01*
X205333447Y-102761175D01*
X205165038Y-102738658D01*
X205012093Y-102672900D01*
X204881431Y-102567077D01*
X204781413Y-102426372D01*
X204745560Y-102345474D01*
X204720165Y-102258681D01*
X204703118Y-102101720D01*
X204703118Y-101564080D01*
X204706810Y-101534771D01*
X205093662Y-101534771D01*
X205093662Y-102131029D01*
X205114939Y-102216865D01*
X205178149Y-102293012D01*
X205223021Y-102320952D01*
X205272018Y-102337447D01*
X205308168Y-102341139D01*
X206536404Y-102341139D01*
X206626585Y-102319820D01*
X206703836Y-102257538D01*
X206731334Y-102213914D01*
X206747410Y-102166039D01*
X206750911Y-102131029D01*
X206750911Y-101534771D01*
X206729633Y-101451491D01*
X206665767Y-101376147D01*
X206620359Y-101348415D01*
X206570819Y-101332218D01*
X206536404Y-101328874D01*
X205308168Y-101328874D01*
X205218119Y-101350240D01*
X205139327Y-101413237D01*
X205111997Y-101456558D01*
X205096455Y-101504249D01*
X205093662Y-101534771D01*
X204706810Y-101534771D01*
X204725575Y-101385790D01*
X204790865Y-101224805D01*
X204894878Y-101088791D01*
X204959485Y-101032861D01*
X205031138Y-100986363D01*
X205108326Y-100950311D01*
X205190764Y-100925030D01*
X205333447Y-100908838D01*
X206511125Y-100908838D01*
X206679554Y-100931580D01*
G37*
G36*
X205076809Y-99121346D02*
G01*
X205076809Y-99516104D01*
X207141638Y-99516104D01*
X207141638Y-100322655D01*
X206763550Y-100322655D01*
X206763550Y-99936140D01*
X205076809Y-99936140D01*
X205076809Y-100322655D01*
X204703118Y-100322655D01*
X204703118Y-99121346D01*
X205076809Y-99121346D01*
G37*
G36*
X267867622Y-109984637D02*
G01*
X268774740Y-109984637D01*
X268750741Y-109917523D01*
X268691925Y-109844586D01*
X268582476Y-109756675D01*
X268391670Y-109635888D01*
X268208766Y-109521308D01*
X268122335Y-109459950D01*
X268043862Y-109394881D01*
X267976807Y-109325353D01*
X267924629Y-109250617D01*
X267890785Y-109169924D01*
X267878735Y-109082526D01*
X267878735Y-108973349D01*
X267893784Y-108870301D01*
X267937787Y-108777200D01*
X268008774Y-108698792D01*
X268053521Y-108666830D01*
X268103493Y-108640803D01*
X268158159Y-108621257D01*
X268217015Y-108608726D01*
X268287598Y-108603688D01*
X268685225Y-108603688D01*
X268795511Y-108618505D01*
X268894470Y-108661503D01*
X268977737Y-108730168D01*
X269039126Y-108819973D01*
X269059544Y-108870354D01*
X269072395Y-108923184D01*
X269077235Y-108981775D01*
X269077235Y-109110491D01*
X268791593Y-109110491D01*
X268791593Y-108973349D01*
X268777583Y-108922052D01*
X268737453Y-108881893D01*
X268693529Y-108869790D01*
X268267936Y-108869790D01*
X268238947Y-108873512D01*
X268214196Y-108883935D01*
X268177663Y-108922485D01*
X268164377Y-108976524D01*
X268164377Y-109077519D01*
X268179221Y-109134559D01*
X268228158Y-109198185D01*
X268329137Y-109279342D01*
X268502808Y-109389633D01*
X268702176Y-109516059D01*
X268798742Y-109586252D01*
X268887456Y-109662316D01*
X268963991Y-109745160D01*
X269024019Y-109835698D01*
X269063209Y-109934840D01*
X269077235Y-110043499D01*
X269077235Y-110245000D01*
X267867622Y-110245000D01*
X267867622Y-109984637D01*
G37*
G36*
X267476956Y-109709863D02*
G01*
X267476956Y-109911486D01*
X266639691Y-109911486D01*
X266639691Y-110245000D01*
X266354171Y-110245000D01*
X266354171Y-109911486D01*
X266124461Y-109911486D01*
X266124461Y-109651001D01*
X266354171Y-109651001D01*
X266639691Y-109651001D01*
X267087755Y-109651001D01*
X266639691Y-109087533D01*
X266639691Y-109651001D01*
X266354171Y-109651001D01*
X266354171Y-108619319D01*
X266597681Y-108619319D01*
X267476956Y-109709863D01*
G37*
G36*
X264527235Y-108619319D02*
G01*
X264815563Y-108619319D01*
X264815563Y-109573332D01*
X264820659Y-109644211D01*
X264840696Y-109688617D01*
X264860382Y-109710718D01*
X265151642Y-110011015D01*
X265442779Y-109710718D01*
X265472244Y-109673331D01*
X265485268Y-109626954D01*
X265487598Y-109573332D01*
X265487598Y-108619319D01*
X265775926Y-108619319D01*
X265775926Y-109581758D01*
X265771962Y-109654911D01*
X265759845Y-109717195D01*
X265742402Y-109764850D01*
X265718308Y-109808456D01*
X265658445Y-109881933D01*
X265280358Y-110260631D01*
X265022803Y-110260631D01*
X264644838Y-109881933D01*
X264597325Y-109826380D01*
X264562488Y-109768522D01*
X264544393Y-109720909D01*
X264532846Y-109667359D01*
X264527235Y-109581758D01*
X264527235Y-108619319D01*
G37*
G36*
X216724157Y-153980707D02*
G01*
X216772032Y-153996783D01*
X216815656Y-154024281D01*
X216877938Y-154101532D01*
X216899257Y-154191713D01*
X216899257Y-155419949D01*
X216895565Y-155456099D01*
X216879070Y-155505096D01*
X216851130Y-155549968D01*
X216774983Y-155613178D01*
X216689147Y-155634455D01*
X216092889Y-155634455D01*
X216062367Y-155631662D01*
X216014676Y-155616120D01*
X215971355Y-155588790D01*
X215908358Y-155509998D01*
X215886992Y-155419949D01*
X215886992Y-154191713D01*
X215890336Y-154157298D01*
X215906533Y-154107758D01*
X215934265Y-154062350D01*
X216009609Y-153998484D01*
X216092889Y-153977206D01*
X216689147Y-153977206D01*
X216724157Y-153980707D01*
G37*
G36*
X217652626Y-156358333D02*
G01*
X212733021Y-156358333D01*
X212733021Y-155634455D01*
X213066354Y-155634455D01*
X213066354Y-156025000D01*
X214880773Y-156025000D01*
X214880773Y-155722749D01*
X214859735Y-155559760D01*
X214800949Y-155411047D01*
X214710908Y-155275240D01*
X214596105Y-155150974D01*
X214463033Y-155036879D01*
X214318185Y-154931588D01*
X214019133Y-154741950D01*
X213758626Y-154576513D01*
X213607158Y-154454777D01*
X213533753Y-154359338D01*
X213511486Y-154273778D01*
X213511486Y-154122287D01*
X213531414Y-154041228D01*
X213586215Y-153983402D01*
X213623342Y-153967769D01*
X213666825Y-153962185D01*
X214305214Y-153962185D01*
X214371100Y-153980340D01*
X214431295Y-154040578D01*
X214452310Y-154117524D01*
X214452310Y-154323237D01*
X214880773Y-154323237D01*
X214880773Y-154216992D01*
X215466956Y-154216992D01*
X215466956Y-155394670D01*
X215483148Y-155537353D01*
X215508429Y-155619791D01*
X215544481Y-155696979D01*
X215590979Y-155768632D01*
X215646909Y-155833239D01*
X215782923Y-155937252D01*
X215943908Y-156002542D01*
X216122198Y-156025000D01*
X216659838Y-156025000D01*
X216816799Y-156007952D01*
X216903592Y-155982557D01*
X216984490Y-155946704D01*
X217125195Y-155846686D01*
X217231018Y-155716024D01*
X217296776Y-155563079D01*
X217319293Y-155394670D01*
X217319293Y-154216992D01*
X217301920Y-154071421D01*
X217275932Y-153989587D01*
X217239062Y-153912454D01*
X217135688Y-153776787D01*
X216999731Y-153673582D01*
X216839084Y-153608836D01*
X216659838Y-153586479D01*
X216122198Y-153586479D01*
X215973185Y-153601529D01*
X215885990Y-153625851D01*
X215805563Y-153660539D01*
X215730803Y-153705799D01*
X215664213Y-153759949D01*
X215605727Y-153822757D01*
X215556729Y-153892618D01*
X215489698Y-154048563D01*
X215470369Y-154191713D01*
X215466956Y-154216992D01*
X214880773Y-154216992D01*
X214880773Y-154130163D01*
X214873514Y-154042277D01*
X214854237Y-153963031D01*
X214823610Y-153887460D01*
X214731526Y-153752752D01*
X214606625Y-153649754D01*
X214458188Y-153585258D01*
X214292758Y-153563032D01*
X213696317Y-153563032D01*
X213590443Y-153570590D01*
X213502159Y-153589386D01*
X213420160Y-153618705D01*
X213345203Y-153657745D01*
X213278082Y-153705688D01*
X213171602Y-153823301D01*
X213105597Y-153962952D01*
X213083023Y-154117524D01*
X213083023Y-154281289D01*
X213101098Y-154412386D01*
X213151864Y-154533425D01*
X213230132Y-154645529D01*
X213330714Y-154749822D01*
X213448423Y-154847425D01*
X213578070Y-154939462D01*
X213852425Y-155111332D01*
X214138634Y-155292513D01*
X214302808Y-155424379D01*
X214391032Y-155533784D01*
X214427031Y-155634455D01*
X213066354Y-155634455D01*
X212733021Y-155634455D01*
X212733021Y-153229699D01*
X217652626Y-153229699D01*
X217652626Y-156358333D01*
G37*
D14*
G36*
X263734389Y-84466479D02*
G01*
X264095624Y-84466479D01*
X264421139Y-84874838D01*
X264648485Y-85167099D01*
X264759293Y-85324138D01*
X265448058Y-84466479D01*
X265809293Y-84466479D01*
X265809293Y-86905000D01*
X265380830Y-86905000D01*
X265380830Y-85189682D01*
X264881109Y-85807739D01*
X264662573Y-85807739D01*
X264162852Y-85189682D01*
X264162852Y-86905000D01*
X263734389Y-86905000D01*
X263734389Y-84466479D01*
G37*
G36*
X261325178Y-86039830D02*
G01*
X261347337Y-85896862D01*
X261413572Y-85760716D01*
X261484730Y-85678778D01*
X261431882Y-85617487D01*
X261387384Y-85547722D01*
X261354083Y-85473386D01*
X261332692Y-85394537D01*
X261325178Y-85313330D01*
X261325178Y-85036175D01*
X261330956Y-84949282D01*
X261347953Y-84867233D01*
X261375562Y-84790882D01*
X261413320Y-84720578D01*
X261517315Y-84600544D01*
X261582818Y-84551892D01*
X261656537Y-84511823D01*
X261738489Y-84480801D01*
X261827733Y-84459733D01*
X261967781Y-84448161D01*
X262543156Y-84443032D01*
X262720419Y-84465588D01*
X262802733Y-84493251D01*
X262878627Y-84530907D01*
X262947007Y-84577772D01*
X263007033Y-84633208D01*
X263056829Y-84695209D01*
X263096733Y-84764128D01*
X263125120Y-84836974D01*
X263142490Y-84915119D01*
X263148023Y-84993311D01*
X263148023Y-85203237D01*
X262727987Y-85203237D01*
X262727987Y-84968032D01*
X262706372Y-84896336D01*
X262645541Y-84846620D01*
X262580891Y-84833759D01*
X261934075Y-84833759D01*
X261878250Y-84839507D01*
X261831702Y-84856292D01*
X261797145Y-84881106D01*
X261771132Y-84914267D01*
X261745797Y-85004222D01*
X261745214Y-85022803D01*
X261745214Y-85342822D01*
X261766539Y-85411558D01*
X261830551Y-85469311D01*
X261900553Y-85486437D01*
X262530516Y-85486437D01*
X262530516Y-85868738D01*
X261892127Y-85868738D01*
X261817046Y-85890353D01*
X261784346Y-85917211D01*
X261760082Y-85952589D01*
X261745214Y-86016933D01*
X261745214Y-86360033D01*
X261766779Y-86439043D01*
X261830754Y-86506003D01*
X261875023Y-86527400D01*
X261924566Y-86537419D01*
X261938288Y-86537903D01*
X262538943Y-86537903D01*
X262629107Y-86517019D01*
X262700548Y-86458196D01*
X262720803Y-86420667D01*
X262727987Y-86381282D01*
X262727987Y-86203412D01*
X263148023Y-86203412D01*
X263148023Y-86360033D01*
X263125722Y-86511632D01*
X263060442Y-86649344D01*
X262953841Y-86768743D01*
X262809715Y-86861416D01*
X262726110Y-86894449D01*
X262637844Y-86916699D01*
X262509634Y-86928447D01*
X261963568Y-86928447D01*
X261783062Y-86905894D01*
X261698912Y-86878189D01*
X261621024Y-86840468D01*
X261550015Y-86793229D01*
X261487105Y-86737314D01*
X261433759Y-86674217D01*
X261390065Y-86604027D01*
X261357536Y-86529284D01*
X261335846Y-86449072D01*
X261325178Y-86336402D01*
X261325178Y-86039830D01*
G37*
D13*
G36*
X206889554Y-135661580D02*
G01*
X207045499Y-135728611D01*
X207115360Y-135777609D01*
X207178168Y-135836095D01*
X207232318Y-135902685D01*
X207277578Y-135977445D01*
X207312266Y-136057872D01*
X207336588Y-136145067D01*
X207351638Y-136294080D01*
X207351638Y-136831720D01*
X207329281Y-137010966D01*
X207264535Y-137171613D01*
X207161330Y-137307570D01*
X207025663Y-137410944D01*
X206948530Y-137447814D01*
X206866696Y-137473802D01*
X206721125Y-137491175D01*
X205543447Y-137491175D01*
X205375038Y-137468658D01*
X205222093Y-137402900D01*
X205091431Y-137297077D01*
X204991413Y-137156372D01*
X204955560Y-137075474D01*
X204930165Y-136988681D01*
X204913118Y-136831720D01*
X204913118Y-136294080D01*
X204916810Y-136264771D01*
X205303662Y-136264771D01*
X205303662Y-136861029D01*
X205324939Y-136946865D01*
X205388149Y-137023012D01*
X205433021Y-137050952D01*
X205482018Y-137067447D01*
X205518168Y-137071139D01*
X206746404Y-137071139D01*
X206836585Y-137049820D01*
X206913836Y-136987538D01*
X206941334Y-136943914D01*
X206957410Y-136896039D01*
X206960911Y-136861029D01*
X206960911Y-136264771D01*
X206939633Y-136181491D01*
X206875767Y-136106147D01*
X206830359Y-136078415D01*
X206780819Y-136062218D01*
X206746404Y-136058874D01*
X205518168Y-136058874D01*
X205428119Y-136080240D01*
X205349327Y-136143237D01*
X205321997Y-136186558D01*
X205306455Y-136234249D01*
X205303662Y-136264771D01*
X204916810Y-136264771D01*
X204935575Y-136115790D01*
X205000865Y-135954805D01*
X205104878Y-135818791D01*
X205169485Y-135762861D01*
X205241138Y-135716363D01*
X205318326Y-135680311D01*
X205400764Y-135655030D01*
X205543447Y-135638838D01*
X206721125Y-135638838D01*
X206889554Y-135661580D01*
G37*
G36*
X205303662Y-133238236D02*
G01*
X205303662Y-134598913D01*
X205404333Y-134562914D01*
X205513738Y-134474690D01*
X205645604Y-134310516D01*
X205826785Y-134024307D01*
X205998655Y-133749952D01*
X206090692Y-133620305D01*
X206188295Y-133502596D01*
X206292588Y-133402014D01*
X206404692Y-133323746D01*
X206525731Y-133272980D01*
X206656828Y-133254905D01*
X206820593Y-133254905D01*
X206975165Y-133277479D01*
X207114816Y-133343484D01*
X207232429Y-133449964D01*
X207280372Y-133517085D01*
X207319412Y-133592042D01*
X207348731Y-133674041D01*
X207367527Y-133762325D01*
X207375085Y-133868199D01*
X207375085Y-134464640D01*
X207352859Y-134630070D01*
X207288363Y-134778507D01*
X207185365Y-134903408D01*
X207050657Y-134995492D01*
X206975086Y-135026119D01*
X206895840Y-135045396D01*
X206807954Y-135052655D01*
X206614880Y-135052655D01*
X206614880Y-134624192D01*
X206820593Y-134624192D01*
X206897539Y-134603177D01*
X206957777Y-134542982D01*
X206975932Y-134477096D01*
X206975932Y-133838707D01*
X206970348Y-133795224D01*
X206954715Y-133758097D01*
X206896889Y-133703296D01*
X206815830Y-133683368D01*
X206664339Y-133683368D01*
X206578779Y-133705635D01*
X206483340Y-133779040D01*
X206361604Y-133930508D01*
X206196167Y-134191015D01*
X206006529Y-134490067D01*
X205901238Y-134634915D01*
X205787143Y-134767987D01*
X205662877Y-134882790D01*
X205527070Y-134972831D01*
X205378357Y-135031617D01*
X205215368Y-135052655D01*
X204913118Y-135052655D01*
X204913118Y-133238236D01*
X205303662Y-133238236D01*
G37*
X206465675Y-108651342D02*
X206322818Y-108794200D01*
X206322818Y-108794200D02*
X206465675Y-108937057D01*
X206465675Y-108937057D02*
X206608532Y-108794200D01*
X206608532Y-108794200D02*
X206465675Y-108651342D01*
X206465675Y-108651342D02*
X206465675Y-108937057D01*
X206465675Y-107794200D02*
X206608532Y-106079914D01*
X206608532Y-106079914D02*
X206465675Y-105937057D01*
X206465675Y-105937057D02*
X206322818Y-106079914D01*
X206322818Y-106079914D02*
X206465675Y-107794200D01*
X206465675Y-107794200D02*
X206465675Y-105937057D01*
D15*
X240785975Y-107279819D02*
X241119308Y-106803628D01*
X241357403Y-107279819D02*
X241357403Y-106279819D01*
X241357403Y-106279819D02*
X240976451Y-106279819D01*
X240976451Y-106279819D02*
X240881213Y-106327438D01*
X240881213Y-106327438D02*
X240833594Y-106375057D01*
X240833594Y-106375057D02*
X240785975Y-106470295D01*
X240785975Y-106470295D02*
X240785975Y-106613152D01*
X240785975Y-106613152D02*
X240833594Y-106708390D01*
X240833594Y-106708390D02*
X240881213Y-106756009D01*
X240881213Y-106756009D02*
X240976451Y-106803628D01*
X240976451Y-106803628D02*
X241357403Y-106803628D01*
X239833594Y-107279819D02*
X240405022Y-107279819D01*
X240119308Y-107279819D02*
X240119308Y-106279819D01*
X240119308Y-106279819D02*
X240214546Y-106422676D01*
X240214546Y-106422676D02*
X240309784Y-106517914D01*
X240309784Y-106517914D02*
X240405022Y-106565533D01*
X238928832Y-106279819D02*
X239405022Y-106279819D01*
X239405022Y-106279819D02*
X239452641Y-106756009D01*
X239452641Y-106756009D02*
X239405022Y-106708390D01*
X239405022Y-106708390D02*
X239309784Y-106660771D01*
X239309784Y-106660771D02*
X239071689Y-106660771D01*
X239071689Y-106660771D02*
X238976451Y-106708390D01*
X238976451Y-106708390D02*
X238928832Y-106756009D01*
X238928832Y-106756009D02*
X238881213Y-106851247D01*
X238881213Y-106851247D02*
X238881213Y-107089342D01*
X238881213Y-107089342D02*
X238928832Y-107184580D01*
X238928832Y-107184580D02*
X238976451Y-107232200D01*
X238976451Y-107232200D02*
X239071689Y-107279819D01*
X239071689Y-107279819D02*
X239309784Y-107279819D01*
X239309784Y-107279819D02*
X239405022Y-107232200D01*
X239405022Y-107232200D02*
X239452641Y-107184580D01*
X240805975Y-138479819D02*
X241139308Y-138003628D01*
X241377403Y-138479819D02*
X241377403Y-137479819D01*
X241377403Y-137479819D02*
X240996451Y-137479819D01*
X240996451Y-137479819D02*
X240901213Y-137527438D01*
X240901213Y-137527438D02*
X240853594Y-137575057D01*
X240853594Y-137575057D02*
X240805975Y-137670295D01*
X240805975Y-137670295D02*
X240805975Y-137813152D01*
X240805975Y-137813152D02*
X240853594Y-137908390D01*
X240853594Y-137908390D02*
X240901213Y-137956009D01*
X240901213Y-137956009D02*
X240996451Y-138003628D01*
X240996451Y-138003628D02*
X241377403Y-138003628D01*
X239853594Y-138479819D02*
X240425022Y-138479819D01*
X240139308Y-138479819D02*
X240139308Y-137479819D01*
X240139308Y-137479819D02*
X240234546Y-137622676D01*
X240234546Y-137622676D02*
X240329784Y-137717914D01*
X240329784Y-137717914D02*
X240425022Y-137765533D01*
X238996451Y-137813152D02*
X238996451Y-138479819D01*
X239234546Y-137432200D02*
X239472641Y-138146485D01*
X239472641Y-138146485D02*
X238853594Y-138146485D01*
X235997937Y-136352142D02*
X235521746Y-136018809D01*
X235997937Y-135780714D02*
X234997937Y-135780714D01*
X234997937Y-135780714D02*
X234997937Y-136161666D01*
X234997937Y-136161666D02*
X235045556Y-136256904D01*
X235045556Y-136256904D02*
X235093175Y-136304523D01*
X235093175Y-136304523D02*
X235188413Y-136352142D01*
X235188413Y-136352142D02*
X235331270Y-136352142D01*
X235331270Y-136352142D02*
X235426508Y-136304523D01*
X235426508Y-136304523D02*
X235474127Y-136256904D01*
X235474127Y-136256904D02*
X235521746Y-136161666D01*
X235521746Y-136161666D02*
X235521746Y-135780714D01*
X235997937Y-137304523D02*
X235997937Y-136733095D01*
X235997937Y-137018809D02*
X234997937Y-137018809D01*
X234997937Y-137018809D02*
X235140794Y-136923571D01*
X235140794Y-136923571D02*
X235236032Y-136828333D01*
X235236032Y-136828333D02*
X235283651Y-136733095D01*
X234997937Y-137637857D02*
X234997937Y-138256904D01*
X234997937Y-138256904D02*
X235378889Y-137923571D01*
X235378889Y-137923571D02*
X235378889Y-138066428D01*
X235378889Y-138066428D02*
X235426508Y-138161666D01*
X235426508Y-138161666D02*
X235474127Y-138209285D01*
X235474127Y-138209285D02*
X235569365Y-138256904D01*
X235569365Y-138256904D02*
X235807460Y-138256904D01*
X235807460Y-138256904D02*
X235902698Y-138209285D01*
X235902698Y-138209285D02*
X235950318Y-138161666D01*
X235950318Y-138161666D02*
X235997937Y-138066428D01*
X235997937Y-138066428D02*
X235997937Y-137780714D01*
X235997937Y-137780714D02*
X235950318Y-137685476D01*
X235950318Y-137685476D02*
X235902698Y-137637857D01*
X236097937Y-105182142D02*
X235621746Y-104848809D01*
X236097937Y-104610714D02*
X235097937Y-104610714D01*
X235097937Y-104610714D02*
X235097937Y-104991666D01*
X235097937Y-104991666D02*
X235145556Y-105086904D01*
X235145556Y-105086904D02*
X235193175Y-105134523D01*
X235193175Y-105134523D02*
X235288413Y-105182142D01*
X235288413Y-105182142D02*
X235431270Y-105182142D01*
X235431270Y-105182142D02*
X235526508Y-105134523D01*
X235526508Y-105134523D02*
X235574127Y-105086904D01*
X235574127Y-105086904D02*
X235621746Y-104991666D01*
X235621746Y-104991666D02*
X235621746Y-104610714D01*
X236097937Y-106134523D02*
X236097937Y-105563095D01*
X236097937Y-105848809D02*
X235097937Y-105848809D01*
X235097937Y-105848809D02*
X235240794Y-105753571D01*
X235240794Y-105753571D02*
X235336032Y-105658333D01*
X235336032Y-105658333D02*
X235383651Y-105563095D01*
X235097937Y-106991666D02*
X235097937Y-106801190D01*
X235097937Y-106801190D02*
X235145556Y-106705952D01*
X235145556Y-106705952D02*
X235193175Y-106658333D01*
X235193175Y-106658333D02*
X235336032Y-106563095D01*
X235336032Y-106563095D02*
X235526508Y-106515476D01*
X235526508Y-106515476D02*
X235907460Y-106515476D01*
X235907460Y-106515476D02*
X236002698Y-106563095D01*
X236002698Y-106563095D02*
X236050318Y-106610714D01*
X236050318Y-106610714D02*
X236097937Y-106705952D01*
X236097937Y-106705952D02*
X236097937Y-106896428D01*
X236097937Y-106896428D02*
X236050318Y-106991666D01*
X236050318Y-106991666D02*
X236002698Y-107039285D01*
X236002698Y-107039285D02*
X235907460Y-107086904D01*
X235907460Y-107086904D02*
X235669365Y-107086904D01*
X235669365Y-107086904D02*
X235574127Y-107039285D01*
X235574127Y-107039285D02*
X235526508Y-106991666D01*
X235526508Y-106991666D02*
X235478889Y-106896428D01*
X235478889Y-106896428D02*
X235478889Y-106705952D01*
X235478889Y-106705952D02*
X235526508Y-106610714D01*
X235526508Y-106610714D02*
X235574127Y-106563095D01*
X235574127Y-106563095D02*
X235669365Y-106515476D01*
D16*
G36*
X267042034Y-102018405D02*
G01*
X267119293Y-102018944D01*
X267191198Y-102019893D01*
X267255242Y-102021256D01*
X267308916Y-102023036D01*
X267349713Y-102025238D01*
X267375125Y-102027866D01*
X267382305Y-102029874D01*
X267389659Y-102036321D01*
X267393342Y-102044601D01*
X267392680Y-102057784D01*
X267386996Y-102078942D01*
X267375614Y-102111145D01*
X267357857Y-102157464D01*
X267349502Y-102178883D01*
X267336777Y-102211676D01*
X267320126Y-102254888D01*
X267302638Y-102300497D01*
X267298225Y-102312048D01*
X267281398Y-102356029D01*
X267264941Y-102398878D01*
X267251757Y-102433042D01*
X267248947Y-102440281D01*
X267238635Y-102466975D01*
X267223377Y-102506712D01*
X267205242Y-102554094D01*
X267186560Y-102603038D01*
X267151429Y-102695167D01*
X267122582Y-102770695D01*
X267099303Y-102831463D01*
X267080877Y-102879314D01*
X267066586Y-102916091D01*
X267055717Y-102943636D01*
X267047552Y-102963792D01*
X267041375Y-102978402D01*
X267036509Y-102989228D01*
X267026735Y-103012160D01*
X267022091Y-103026890D01*
X267022031Y-103027698D01*
X267018544Y-103038845D01*
X267008871Y-103065191D01*
X266994196Y-103103631D01*
X266975699Y-103151064D01*
X266957914Y-103195988D01*
X266937118Y-103248518D01*
X266919137Y-103294589D01*
X266905150Y-103331125D01*
X266896338Y-103355050D01*
X266893797Y-103363173D01*
X266890156Y-103375639D01*
X266881264Y-103397724D01*
X266880028Y-103400538D01*
X266869020Y-103426891D01*
X266854851Y-103462760D01*
X266844185Y-103490805D01*
X266831244Y-103525225D01*
X266820044Y-103554538D01*
X266814081Y-103569718D01*
X266807843Y-103585522D01*
X266795969Y-103616011D01*
X266779906Y-103657456D01*
X266761101Y-103706129D01*
X266750942Y-103732475D01*
X266728953Y-103789471D01*
X266706706Y-103847004D01*
X266686423Y-103899339D01*
X266670323Y-103940743D01*
X266666582Y-103950324D01*
X266652987Y-103985969D01*
X266642754Y-104014452D01*
X266637619Y-104030887D01*
X266637331Y-104032678D01*
X266633556Y-104046003D01*
X266624338Y-104068507D01*
X266623073Y-104071295D01*
X266607809Y-104106358D01*
X266590875Y-104148074D01*
X266573938Y-104191960D01*
X266558664Y-104233531D01*
X266546721Y-104268303D01*
X266539776Y-104291794D01*
X266538691Y-104298255D01*
X266543984Y-104312253D01*
X266549316Y-104314456D01*
X266560077Y-104309654D01*
X266585492Y-104296136D01*
X266623239Y-104275234D01*
X266670995Y-104248278D01*
X266726436Y-104216599D01*
X266787239Y-104181529D01*
X266851081Y-104144399D01*
X266915638Y-104106541D01*
X266978589Y-104069284D01*
X267012166Y-104049244D01*
X267037981Y-104034288D01*
X267058412Y-104023301D01*
X267061487Y-104021825D01*
X267073321Y-104015367D01*
X267100052Y-104000162D01*
X267139556Y-103977438D01*
X267189709Y-103948423D01*
X267248388Y-103914345D01*
X267313468Y-103876431D01*
X267357409Y-103850772D01*
X267464492Y-103788199D01*
X267555831Y-103734895D01*
X267632706Y-103690167D01*
X267696402Y-103653321D01*
X267748200Y-103623664D01*
X267789384Y-103600502D01*
X267821236Y-103583142D01*
X267845040Y-103570892D01*
X267862077Y-103563056D01*
X267873630Y-103558943D01*
X267880982Y-103557858D01*
X267885416Y-103559108D01*
X267888215Y-103562000D01*
X267889101Y-103563361D01*
X267891606Y-103581222D01*
X267887170Y-103610474D01*
X267883966Y-103622546D01*
X267877787Y-103645263D01*
X267867876Y-103683767D01*
X267855084Y-103734657D01*
X267840263Y-103794532D01*
X267824263Y-103859991D01*
X267815730Y-103895232D01*
X267798129Y-103968123D01*
X267780105Y-104042680D01*
X267762829Y-104114070D01*
X267747470Y-104177462D01*
X267735197Y-104228023D01*
X267732168Y-104240475D01*
X267675975Y-104471141D01*
X267623507Y-104686127D01*
X267575031Y-104884349D01*
X267530811Y-105064718D01*
X267521265Y-105103582D01*
X267502273Y-105181017D01*
X267482992Y-105259872D01*
X267464481Y-105335796D01*
X267447800Y-105404438D01*
X267434007Y-105461450D01*
X267426375Y-105493213D01*
X267414701Y-105541790D01*
X267399254Y-105605707D01*
X267380966Y-105681142D01*
X267360766Y-105764276D01*
X267339585Y-105851288D01*
X267318353Y-105938357D01*
X267298001Y-106021664D01*
X267279458Y-106097387D01*
X267263656Y-106161707D01*
X267258378Y-106183110D01*
X267249344Y-106221206D01*
X267242566Y-106252661D01*
X267239209Y-106271969D01*
X267239040Y-106274353D01*
X267246109Y-106285442D01*
X267267626Y-106284556D01*
X267304062Y-106271634D01*
X267321933Y-106263547D01*
X267359909Y-106245866D01*
X267403992Y-106225679D01*
X267431390Y-106213306D01*
X267472537Y-106194711D01*
X267515464Y-106175068D01*
X267539895Y-106163747D01*
X267568107Y-106151011D01*
X267583192Y-106146498D01*
X267589787Y-106149846D01*
X267592356Y-106159650D01*
X267588791Y-106178296D01*
X267576214Y-106204857D01*
X267566281Y-106220602D01*
X267547819Y-106247834D01*
X267522950Y-106285429D01*
X267495825Y-106327087D01*
X267483363Y-106346456D01*
X267455010Y-106390588D01*
X267420799Y-106443633D01*
X267385646Y-106497978D01*
X267362359Y-106533873D01*
X267305081Y-106622021D01*
X267257233Y-106695663D01*
X267217493Y-106756838D01*
X267184543Y-106807583D01*
X267157063Y-106849935D01*
X267133731Y-106885932D01*
X267113229Y-106917611D01*
X267094237Y-106947009D01*
X267075434Y-106976165D01*
X267055500Y-107007114D01*
X267033116Y-107041896D01*
X267017264Y-107066533D01*
X266958741Y-107157183D01*
X266910221Y-107231646D01*
X266871314Y-107290504D01*
X266841627Y-107334336D01*
X266820769Y-107363724D01*
X266808349Y-107379249D01*
X266804549Y-107382184D01*
X266792949Y-107375559D01*
X266786933Y-107369364D01*
X266779006Y-107352128D01*
X266771788Y-107324139D01*
X266769805Y-107312646D01*
X266764166Y-107280524D01*
X266755593Y-107238339D01*
X266745933Y-107195170D01*
X266745838Y-107194766D01*
X266734542Y-107145871D01*
X266722036Y-107090103D01*
X266711532Y-107041873D01*
X266701359Y-106994562D01*
X266690658Y-106945421D01*
X266681694Y-106904845D01*
X266681455Y-106903776D01*
X266673391Y-106867217D01*
X266663001Y-106819370D01*
X266652022Y-106768251D01*
X266647274Y-106745951D01*
X266637252Y-106699240D01*
X266627625Y-106655271D01*
X266619827Y-106620554D01*
X266616860Y-106607854D01*
X266609016Y-106573051D01*
X266600639Y-106532754D01*
X266597967Y-106519077D01*
X266591716Y-106488371D01*
X266582404Y-106445110D01*
X266571480Y-106395946D01*
X266564049Y-106363313D01*
X266552744Y-106313584D01*
X266541957Y-106265040D01*
X266533186Y-106224471D01*
X266529253Y-106205488D01*
X266522228Y-106171083D01*
X266512822Y-106125909D01*
X266502811Y-106078483D01*
X266500533Y-106067795D01*
X266492079Y-106025852D01*
X266488350Y-105999706D01*
X266489161Y-105986049D01*
X266494325Y-105981571D01*
X266495684Y-105981485D01*
X266507882Y-105987800D01*
X266531163Y-106005011D01*
X266562224Y-106030516D01*
X266597758Y-106061712D01*
X266599030Y-106062863D01*
X266639170Y-106099226D01*
X266678998Y-106135259D01*
X266713473Y-106166404D01*
X266734519Y-106185373D01*
X266753137Y-106202185D01*
X266767993Y-106214239D01*
X266779749Y-106219875D01*
X266789069Y-106217435D01*
X266796614Y-106205257D01*
X266803048Y-106181684D01*
X266809033Y-106145054D01*
X266815231Y-106093709D01*
X266822305Y-106025989D01*
X266830425Y-105945132D01*
X266837237Y-105877948D01*
X266844925Y-105802942D01*
X266852549Y-105729256D01*
X266859166Y-105666028D01*
X266859187Y-105665834D01*
X266865615Y-105604084D01*
X266873054Y-105531302D01*
X266880629Y-105456096D01*
X266887468Y-105387070D01*
X266888182Y-105379776D01*
X266893713Y-105324529D01*
X266899005Y-105274118D01*
X266903593Y-105232791D01*
X266907015Y-105204798D01*
X266908115Y-105197291D01*
X266910803Y-105177458D01*
X266914943Y-105142140D01*
X266920074Y-105095486D01*
X266925734Y-105041645D01*
X266928966Y-105009873D01*
X266939195Y-104908147D01*
X266947581Y-104824327D01*
X266954200Y-104756684D01*
X266959128Y-104703489D01*
X266962442Y-104663015D01*
X266964217Y-104633532D01*
X266964531Y-104613311D01*
X266963460Y-104600624D01*
X266961080Y-104593743D01*
X266957468Y-104590938D01*
X266952699Y-104590482D01*
X266947492Y-104590650D01*
X266936892Y-104595522D01*
X266911426Y-104609336D01*
X266873145Y-104630887D01*
X266824102Y-104658972D01*
X266766348Y-104692384D01*
X266701938Y-104729921D01*
X266632922Y-104770378D01*
X266561352Y-104812551D01*
X266489283Y-104855234D01*
X266418764Y-104897224D01*
X266351850Y-104937317D01*
X266290592Y-104974308D01*
X266237042Y-105006993D01*
X266218016Y-105018730D01*
X266199157Y-105030406D01*
X266183271Y-105040196D01*
X266167713Y-105049675D01*
X266149837Y-105060423D01*
X266126995Y-105074018D01*
X266096543Y-105092037D01*
X266055833Y-105116059D01*
X266002220Y-105147662D01*
X265966574Y-105168669D01*
X265913392Y-105200241D01*
X265864116Y-105229921D01*
X265822054Y-105255684D01*
X265790516Y-105275502D01*
X265773107Y-105287131D01*
X265745445Y-105304108D01*
X265718799Y-105315540D01*
X265716388Y-105316203D01*
X265697597Y-105318629D01*
X265691023Y-105309168D01*
X265690380Y-105295859D01*
X265693456Y-105270030D01*
X265701199Y-105236615D01*
X265705200Y-105223275D01*
X265713073Y-105196633D01*
X265724307Y-105155579D01*
X265737676Y-105104891D01*
X265751954Y-105049343D01*
X265765915Y-104993712D01*
X265778335Y-104942774D01*
X265787987Y-104901306D01*
X265789068Y-104896436D01*
X265792965Y-104880187D01*
X265801229Y-104846820D01*
X265813357Y-104798335D01*
X265828844Y-104736729D01*
X265847187Y-104664003D01*
X265867883Y-104582157D01*
X265890428Y-104493188D01*
X265914318Y-104399098D01*
X265917028Y-104388436D01*
X265946778Y-104271392D01*
X265972096Y-104171743D01*
X265993413Y-104087763D01*
X266011162Y-104017728D01*
X266025772Y-103959914D01*
X266037676Y-103912596D01*
X266047305Y-103874048D01*
X266055092Y-103842547D01*
X266061466Y-103816368D01*
X266066860Y-103793785D01*
X266071706Y-103773075D01*
X266076434Y-103752512D01*
X266079555Y-103738819D01*
X266087901Y-103704017D01*
X266095187Y-103676917D01*
X266099882Y-103663204D01*
X266099983Y-103663032D01*
X266104960Y-103649011D01*
X266111473Y-103623481D01*
X266113923Y-103612299D01*
X266117813Y-103595692D01*
X266125898Y-103562658D01*
X266137497Y-103515888D01*
X266151934Y-103458070D01*
X266168529Y-103391896D01*
X266186604Y-103320055D01*
X266205481Y-103245238D01*
X266224479Y-103170135D01*
X266242922Y-103097435D01*
X266260131Y-103029828D01*
X266275426Y-102970006D01*
X266288130Y-102920657D01*
X266296347Y-102889096D01*
X266300815Y-102871435D01*
X266308679Y-102839744D01*
X266318668Y-102799161D01*
X266325629Y-102770727D01*
X266338865Y-102717420D01*
X266353384Y-102660300D01*
X266366718Y-102609039D01*
X266370943Y-102593174D01*
X266383288Y-102546232D01*
X266395693Y-102497412D01*
X266405577Y-102456880D01*
X266405999Y-102455077D01*
X266422717Y-102384992D01*
X266440143Y-102314397D01*
X266457546Y-102246014D01*
X266474199Y-102182565D01*
X266489370Y-102126775D01*
X266502329Y-102081365D01*
X266512348Y-102049058D01*
X266518696Y-102032578D01*
X266519579Y-102031294D01*
X266532169Y-102028334D01*
X266561975Y-102025746D01*
X266606491Y-102023535D01*
X266663207Y-102021705D01*
X266729617Y-102020259D01*
X266803213Y-102019202D01*
X266881486Y-102018538D01*
X266961929Y-102018271D01*
X267042034Y-102018405D01*
G37*
G36*
X267098483Y-100299355D02*
G01*
X267226451Y-100327298D01*
X267347518Y-100373163D01*
X267460740Y-100436371D01*
X267565172Y-100516342D01*
X267659870Y-100612497D01*
X267743890Y-100724256D01*
X267786264Y-100794047D01*
X267795705Y-100810638D01*
X267813153Y-100841082D01*
X267836747Y-100882148D01*
X267864625Y-100930604D01*
X267894927Y-100983222D01*
X267925791Y-101036769D01*
X267955355Y-101088016D01*
X267981759Y-101133732D01*
X268003140Y-101170687D01*
X268017639Y-101195650D01*
X268018665Y-101197407D01*
X268079016Y-101300759D01*
X268130065Y-101388307D01*
X268172509Y-101461256D01*
X268207045Y-101520808D01*
X268234369Y-101568168D01*
X268255178Y-101604539D01*
X268270168Y-101631125D01*
X268279745Y-101648585D01*
X268298364Y-101682084D01*
X268316936Y-101713536D01*
X268324243Y-101725135D01*
X268339300Y-101749381D01*
X268349828Y-101768457D01*
X268350326Y-101769524D01*
X268356688Y-101781283D01*
X268371134Y-101806924D01*
X268391837Y-101843276D01*
X268416969Y-101887162D01*
X268444703Y-101935410D01*
X268473210Y-101984846D01*
X268500661Y-102032296D01*
X268525231Y-102074587D01*
X268545089Y-102108544D01*
X268558408Y-102130994D01*
X268560538Y-102134494D01*
X268570110Y-102151187D01*
X268584973Y-102178247D01*
X268595925Y-102198611D01*
X268613036Y-102228957D01*
X268628660Y-102253772D01*
X268635911Y-102263504D01*
X268647055Y-102278726D01*
X268649603Y-102285129D01*
X268654315Y-102295457D01*
X268667193Y-102319363D01*
X268686356Y-102353447D01*
X268709919Y-102394314D01*
X268713734Y-102400849D01*
X268740516Y-102446771D01*
X268765939Y-102490584D01*
X268787122Y-102527308D01*
X268801116Y-102551845D01*
X268820123Y-102585573D01*
X268837387Y-102616034D01*
X268854685Y-102646306D01*
X268873797Y-102679469D01*
X268896499Y-102718599D01*
X268924569Y-102766776D01*
X268959786Y-102827076D01*
X268984674Y-102869651D01*
X269020168Y-102930491D01*
X269054197Y-102989060D01*
X269084865Y-103042077D01*
X269110275Y-103086260D01*
X269128532Y-103118328D01*
X269134324Y-103128682D01*
X269143591Y-103145300D01*
X269155599Y-103166552D01*
X269171069Y-103193685D01*
X269190721Y-103227945D01*
X269215276Y-103270581D01*
X269245453Y-103322838D01*
X269281972Y-103385966D01*
X269325555Y-103461210D01*
X269376921Y-103549819D01*
X269436790Y-103653039D01*
X269502912Y-103766999D01*
X269538028Y-103827583D01*
X269571232Y-103884998D01*
X269600779Y-103936218D01*
X269624926Y-103978217D01*
X269641927Y-104007969D01*
X269647890Y-104018533D01*
X269665216Y-104049189D01*
X269690221Y-104092915D01*
X269720617Y-104145756D01*
X269754117Y-104203758D01*
X269788432Y-104262964D01*
X269821277Y-104319421D01*
X269850362Y-104369171D01*
X269868443Y-104399891D01*
X269888112Y-104433782D01*
X269903199Y-104460966D01*
X269911384Y-104477208D01*
X269912205Y-104479717D01*
X269917886Y-104491057D01*
X269925606Y-104501096D01*
X269936820Y-104517254D01*
X269953666Y-104545054D01*
X269972620Y-104578662D01*
X269973774Y-104580786D01*
X269989115Y-104608396D01*
X270012433Y-104649488D01*
X270041702Y-104700539D01*
X270074900Y-104758024D01*
X270110003Y-104818419D01*
X270123131Y-104840903D01*
X270155753Y-104896833D01*
X270184762Y-104946820D01*
X270208762Y-104988438D01*
X270226359Y-105019264D01*
X270236158Y-105036873D01*
X270237720Y-105040065D01*
X270242500Y-105049046D01*
X270256026Y-105072929D01*
X270277070Y-105109587D01*
X270304410Y-105156898D01*
X270336819Y-105212739D01*
X270373074Y-105274985D01*
X270385681Y-105296584D01*
X270422941Y-105360504D01*
X270456760Y-105418745D01*
X270485912Y-105469180D01*
X270509171Y-105509679D01*
X270525312Y-105538115D01*
X270533109Y-105552357D01*
X270533642Y-105553579D01*
X270538355Y-105562520D01*
X270551381Y-105585611D01*
X270571054Y-105619982D01*
X270595709Y-105662767D01*
X270623677Y-105711096D01*
X270653294Y-105762101D01*
X270682891Y-105812916D01*
X270710804Y-105860670D01*
X270735365Y-105902497D01*
X270754907Y-105935527D01*
X270767765Y-105956894D01*
X270770808Y-105961757D01*
X270783308Y-105983559D01*
X270787147Y-105991349D01*
X270793712Y-106003536D01*
X270808339Y-106029579D01*
X270829183Y-106066268D01*
X270854401Y-106110399D01*
X270882147Y-106158763D01*
X270910579Y-106208155D01*
X270937852Y-106255368D01*
X270962122Y-106297194D01*
X270981546Y-106330428D01*
X270994278Y-106351861D01*
X270997025Y-106356320D01*
X271006965Y-106372819D01*
X271022591Y-106399571D01*
X271034596Y-106420436D01*
X271061321Y-106467140D01*
X271085381Y-106509071D01*
X271110048Y-106551914D01*
X271138593Y-106601353D01*
X271168022Y-106652242D01*
X271221182Y-106747558D01*
X271263006Y-106831255D01*
X271294650Y-106906984D01*
X271317267Y-106978399D01*
X271332011Y-107049151D01*
X271340036Y-107122894D01*
X271342496Y-107203279D01*
X271342497Y-107204476D01*
X271333110Y-107337567D01*
X271305734Y-107465244D01*
X271261549Y-107586059D01*
X271201732Y-107698559D01*
X271127462Y-107801295D01*
X271039917Y-107892816D01*
X270940275Y-107971672D01*
X270829715Y-108036412D01*
X270709416Y-108085585D01*
X270604203Y-108113298D01*
X270595615Y-108114940D01*
X270586262Y-108116482D01*
X270575530Y-108117926D01*
X270562804Y-108119276D01*
X270547469Y-108120535D01*
X270528911Y-108121705D01*
X270506516Y-108122790D01*
X270479668Y-108123792D01*
X270447753Y-108124714D01*
X270410156Y-108125560D01*
X270366262Y-108126332D01*
X270315458Y-108127033D01*
X270257128Y-108127666D01*
X270190658Y-108128234D01*
X270115432Y-108128740D01*
X270030837Y-108129186D01*
X269936258Y-108129576D01*
X269831080Y-108129913D01*
X269714688Y-108130200D01*
X269586468Y-108130438D01*
X269445805Y-108130633D01*
X269292084Y-108130785D01*
X269124691Y-108130899D01*
X268943012Y-108130977D01*
X268746431Y-108131022D01*
X268534334Y-108131037D01*
X268306106Y-108131025D01*
X268061132Y-108130989D01*
X267798799Y-108130932D01*
X267518491Y-108130856D01*
X267219593Y-108130765D01*
X266949562Y-108130678D01*
X266620281Y-108130556D01*
X266310225Y-108130412D01*
X266018889Y-108130246D01*
X265745771Y-108130054D01*
X265490366Y-108129835D01*
X265252171Y-108129587D01*
X265030682Y-108129308D01*
X264825396Y-108128997D01*
X264635808Y-108128651D01*
X264461416Y-108128269D01*
X264301715Y-108127849D01*
X264156202Y-108127388D01*
X264024374Y-108126886D01*
X263905726Y-108126340D01*
X263799755Y-108125748D01*
X263705957Y-108125109D01*
X263623829Y-108124420D01*
X263552866Y-108123680D01*
X263492566Y-108122887D01*
X263442425Y-108122039D01*
X263401938Y-108121135D01*
X263370603Y-108120171D01*
X263347916Y-108119147D01*
X263333372Y-108118061D01*
X263327933Y-108117297D01*
X263219968Y-108090238D01*
X263127758Y-108056578D01*
X263092465Y-108039969D01*
X262973482Y-107969295D01*
X262868815Y-107885104D01*
X262778680Y-107787680D01*
X262703292Y-107677301D01*
X262642866Y-107554251D01*
X262597618Y-107418809D01*
X262588355Y-107381554D01*
X262578600Y-107320208D01*
X262573887Y-107246999D01*
X262574044Y-107199698D01*
X263091471Y-107199698D01*
X263091967Y-107252920D01*
X263093873Y-107291428D01*
X263097868Y-107320225D01*
X263104631Y-107344314D01*
X263114237Y-107367388D01*
X263160309Y-107446495D01*
X263219156Y-107513701D01*
X263288240Y-107566607D01*
X263362458Y-107601935D01*
X263367757Y-107603312D01*
X263375889Y-107604606D01*
X263387450Y-107605820D01*
X263403035Y-107606957D01*
X263423241Y-107608019D01*
X263448663Y-107609009D01*
X263479899Y-107609930D01*
X263517543Y-107610784D01*
X263562192Y-107611575D01*
X263614442Y-107612304D01*
X263674889Y-107612975D01*
X263744129Y-107613590D01*
X263822759Y-107614152D01*
X263911373Y-107614664D01*
X264010569Y-107615128D01*
X264120942Y-107615547D01*
X264243089Y-107615923D01*
X264377605Y-107616260D01*
X264525087Y-107616560D01*
X264686130Y-107616826D01*
X264861331Y-107617060D01*
X265051286Y-107617265D01*
X265256591Y-107617444D01*
X265477842Y-107617599D01*
X265715634Y-107617734D01*
X265970565Y-107617850D01*
X266243229Y-107617951D01*
X266534224Y-107618040D01*
X266844145Y-107618118D01*
X266955694Y-107618143D01*
X267270101Y-107618210D01*
X267565390Y-107618268D01*
X267842169Y-107618314D01*
X268101049Y-107618344D01*
X268342640Y-107618355D01*
X268567550Y-107618344D01*
X268776390Y-107618308D01*
X268969769Y-107618245D01*
X269148297Y-107618150D01*
X269312583Y-107618021D01*
X269463238Y-107617855D01*
X269600869Y-107617648D01*
X269726088Y-107617398D01*
X269839504Y-107617101D01*
X269941726Y-107616755D01*
X270033365Y-107616355D01*
X270115029Y-107615900D01*
X270187328Y-107615386D01*
X270250872Y-107614810D01*
X270306271Y-107614169D01*
X270354133Y-107613460D01*
X270395070Y-107612679D01*
X270429690Y-107611824D01*
X270458603Y-107610891D01*
X270482418Y-107609878D01*
X270501746Y-107608781D01*
X270517195Y-107607597D01*
X270529376Y-107606323D01*
X270538898Y-107604956D01*
X270546370Y-107603494D01*
X270552403Y-107601932D01*
X270557606Y-107600267D01*
X270558793Y-107599854D01*
X270629960Y-107565190D01*
X270696014Y-107514608D01*
X270752991Y-107451885D01*
X270796923Y-107380800D01*
X270803330Y-107366975D01*
X270824045Y-107298828D01*
X270832104Y-107222018D01*
X270827715Y-107142837D01*
X270811087Y-107067578D01*
X270791812Y-107019668D01*
X270778421Y-106994416D01*
X270756892Y-106955556D01*
X270729134Y-106906456D01*
X270697059Y-106850486D01*
X270662577Y-106791015D01*
X270648514Y-106766960D01*
X270615820Y-106711043D01*
X270586746Y-106661060D01*
X270562690Y-106619436D01*
X270545047Y-106588593D01*
X270535215Y-106570954D01*
X270533642Y-106567738D01*
X270528883Y-106558684D01*
X270515525Y-106535010D01*
X270494948Y-106499115D01*
X270468530Y-106453398D01*
X270437652Y-106400258D01*
X270416643Y-106364244D01*
X270382115Y-106305016D01*
X270349734Y-106249244D01*
X270321237Y-106199933D01*
X270298358Y-106160090D01*
X270282832Y-106132722D01*
X270278293Y-106124514D01*
X270259409Y-106090465D01*
X270239907Y-106056519D01*
X270236368Y-106050533D01*
X270225259Y-106031702D01*
X270206057Y-105998949D01*
X270180590Y-105955404D01*
X270150690Y-105904194D01*
X270118184Y-105848450D01*
X270109487Y-105833524D01*
X270076592Y-105777107D01*
X270045811Y-105724409D01*
X270018975Y-105678557D01*
X269997917Y-105642682D01*
X269984469Y-105619913D01*
X269982437Y-105616514D01*
X269967461Y-105590713D01*
X269956486Y-105570285D01*
X269955011Y-105567193D01*
X269948305Y-105554740D01*
X269933123Y-105527847D01*
X269910951Y-105489101D01*
X269883273Y-105441093D01*
X269851576Y-105386409D01*
X269831710Y-105352269D01*
X269796708Y-105292100D01*
X269763318Y-105234518D01*
X269733407Y-105182757D01*
X269708842Y-105140048D01*
X269691490Y-105109626D01*
X269686369Y-105100515D01*
X269672347Y-105075742D01*
X269650461Y-105037599D01*
X269622820Y-104989738D01*
X269591533Y-104935810D01*
X269558709Y-104879466D01*
X269557098Y-104876708D01*
X269524120Y-104820091D01*
X269492458Y-104765469D01*
X269464255Y-104716562D01*
X269441657Y-104677090D01*
X269426807Y-104650770D01*
X269426410Y-104650054D01*
X269412805Y-104625891D01*
X269391113Y-104587880D01*
X269363174Y-104539220D01*
X269330828Y-104483113D01*
X269295914Y-104422759D01*
X269276007Y-104388436D01*
X269198310Y-104254585D01*
X269130083Y-104136996D01*
X269070869Y-104034882D01*
X269020212Y-103947455D01*
X268977659Y-103873928D01*
X268942751Y-103813513D01*
X268915036Y-103765423D01*
X268894056Y-103728869D01*
X268879355Y-103703065D01*
X268872397Y-103690687D01*
X268859765Y-103668417D01*
X268839023Y-103632347D01*
X268812035Y-103585696D01*
X268780664Y-103531684D01*
X268746776Y-103473532D01*
X268733206Y-103450298D01*
X268700796Y-103394716D01*
X268672007Y-103345093D01*
X268648242Y-103303869D01*
X268630904Y-103273483D01*
X268621396Y-103256373D01*
X268620011Y-103253519D01*
X268615228Y-103244552D01*
X268601694Y-103220688D01*
X268580637Y-103184051D01*
X268553283Y-103136764D01*
X268520857Y-103080950D01*
X268484586Y-103018733D01*
X268472050Y-102997275D01*
X268434781Y-102933405D01*
X268400955Y-102875227D01*
X268371800Y-102824867D01*
X268348540Y-102784451D01*
X268332404Y-102756105D01*
X268324617Y-102741955D01*
X268324089Y-102740765D01*
X268319317Y-102731666D01*
X268305940Y-102708010D01*
X268285367Y-102672239D01*
X268259005Y-102626795D01*
X268228263Y-102574119D01*
X268210652Y-102544065D01*
X268178152Y-102488518D01*
X268149286Y-102438880D01*
X268125464Y-102397597D01*
X268108094Y-102367119D01*
X268098585Y-102349892D01*
X268097215Y-102346972D01*
X268092357Y-102337513D01*
X268079307Y-102315199D01*
X268060352Y-102283889D01*
X268047895Y-102263682D01*
X268026599Y-102228903D01*
X268009925Y-102200830D01*
X268000166Y-102183366D01*
X267998574Y-102179670D01*
X267993835Y-102170159D01*
X267980629Y-102146307D01*
X267960476Y-102110788D01*
X267934892Y-102066275D01*
X267905398Y-102015442D01*
X267901841Y-102009342D01*
X267871455Y-101957090D01*
X267844271Y-101910046D01*
X267821949Y-101871107D01*
X267806149Y-101843170D01*
X267798532Y-101829133D01*
X267798331Y-101828708D01*
X267786710Y-101806972D01*
X267781844Y-101799116D01*
X267773604Y-101785577D01*
X267757078Y-101757655D01*
X267733839Y-101718056D01*
X267705456Y-101669486D01*
X267673503Y-101614651D01*
X267639550Y-101556256D01*
X267605170Y-101497009D01*
X267571934Y-101439614D01*
X267541413Y-101386777D01*
X267515180Y-101341206D01*
X267494806Y-101305605D01*
X267481861Y-101282681D01*
X267481070Y-101281252D01*
X267427428Y-101185309D01*
X267380930Y-101105316D01*
X267340169Y-101039443D01*
X267303736Y-100985863D01*
X267270221Y-100942747D01*
X267238215Y-100908267D01*
X267206310Y-100880595D01*
X267173096Y-100857903D01*
X267141324Y-100840430D01*
X267112738Y-100826547D01*
X267089231Y-100817285D01*
X267065562Y-100811711D01*
X267036489Y-100808891D01*
X266996769Y-100807892D01*
X266957914Y-100807776D01*
X266907190Y-100808020D01*
X266870911Y-100809393D01*
X266843795Y-100812854D01*
X266820560Y-100819366D01*
X266795923Y-100829888D01*
X266772245Y-100841542D01*
X266720201Y-100872928D01*
X266672167Y-100913783D01*
X266625849Y-100966659D01*
X266578953Y-101034103D01*
X266539471Y-101100276D01*
X266515103Y-101143065D01*
X266483351Y-101198412D01*
X266446793Y-101261847D01*
X266408006Y-101328900D01*
X266369568Y-101395101D01*
X266359451Y-101412477D01*
X266326556Y-101469078D01*
X266297251Y-101519770D01*
X266272914Y-101562146D01*
X266254922Y-101593804D01*
X266244653Y-101612338D01*
X266242768Y-101616188D01*
X266237984Y-101625270D01*
X266224515Y-101649062D01*
X266203684Y-101685271D01*
X266176815Y-101731607D01*
X266145231Y-101785776D01*
X266114535Y-101838196D01*
X266079861Y-101897524D01*
X266048742Y-101951199D01*
X266022508Y-101996897D01*
X266002484Y-102032292D01*
X265989999Y-102055060D01*
X265986302Y-102062796D01*
X265980612Y-102074332D01*
X265972902Y-102084397D01*
X265961936Y-102100295D01*
X265945135Y-102128165D01*
X265925799Y-102162494D01*
X265922257Y-102169019D01*
X265905063Y-102200104D01*
X265880230Y-102243946D01*
X265850176Y-102296327D01*
X265817318Y-102353033D01*
X265787697Y-102403684D01*
X265757676Y-102455005D01*
X265731414Y-102500341D01*
X265710437Y-102537022D01*
X265696272Y-102562374D01*
X265690446Y-102573725D01*
X265690380Y-102574012D01*
X265685513Y-102583894D01*
X265672441Y-102606564D01*
X265653456Y-102638106D01*
X265641060Y-102658245D01*
X265619780Y-102692917D01*
X265603113Y-102720762D01*
X265593345Y-102737923D01*
X265591739Y-102741440D01*
X265587087Y-102750583D01*
X265574447Y-102773331D01*
X265555792Y-102806259D01*
X265533096Y-102845945D01*
X265508333Y-102888965D01*
X265483477Y-102931894D01*
X265460501Y-102971309D01*
X265441379Y-103003788D01*
X265428084Y-103025905D01*
X265424162Y-103032126D01*
X265413571Y-103049741D01*
X265398708Y-103076203D01*
X265393183Y-103086378D01*
X265382242Y-103106009D01*
X265363025Y-103139730D01*
X265337224Y-103184608D01*
X265306527Y-103237707D01*
X265272627Y-103296092D01*
X265251136Y-103332980D01*
X265216263Y-103392801D01*
X265183669Y-103448784D01*
X265155013Y-103498074D01*
X265131954Y-103537816D01*
X265116152Y-103565155D01*
X265110712Y-103574650D01*
X265070651Y-103645107D01*
X265035303Y-103706883D01*
X265001210Y-103765966D01*
X264964913Y-103828342D01*
X264922952Y-103900000D01*
X264909674Y-103922614D01*
X264879695Y-103973826D01*
X264853468Y-104018954D01*
X264832517Y-104055349D01*
X264818368Y-104080361D01*
X264812544Y-104091340D01*
X264812477Y-104091585D01*
X264807724Y-104100732D01*
X264794407Y-104124436D01*
X264773938Y-104160233D01*
X264747729Y-104205660D01*
X264717192Y-104258253D01*
X264700931Y-104286144D01*
X264668275Y-104342213D01*
X264638774Y-104393114D01*
X264613957Y-104436189D01*
X264595354Y-104468778D01*
X264584494Y-104488222D01*
X264582525Y-104492009D01*
X264575566Y-104504796D01*
X264560222Y-104531696D01*
X264538154Y-104569841D01*
X264511020Y-104616365D01*
X264480481Y-104668401D01*
X264476893Y-104674494D01*
X264442177Y-104733686D01*
X264407019Y-104794070D01*
X264374147Y-104850932D01*
X264346289Y-104899559D01*
X264328550Y-104930960D01*
X264306770Y-104969764D01*
X264287833Y-105003130D01*
X264274273Y-105026615D01*
X264269507Y-105034533D01*
X264260689Y-105049082D01*
X264244230Y-105076945D01*
X264221695Y-105115417D01*
X264194651Y-105161797D01*
X264164662Y-105213379D01*
X264133297Y-105267459D01*
X264102120Y-105321335D01*
X264072697Y-105372301D01*
X264046595Y-105417654D01*
X264025380Y-105454690D01*
X264010618Y-105480706D01*
X264003875Y-105492997D01*
X264003623Y-105493596D01*
X263998927Y-105502495D01*
X263985948Y-105525560D01*
X263966346Y-105559921D01*
X263941783Y-105602707D01*
X263913921Y-105651045D01*
X263884422Y-105702064D01*
X263854946Y-105752894D01*
X263827155Y-105800663D01*
X263802711Y-105842500D01*
X263783275Y-105875533D01*
X263770508Y-105896891D01*
X263766964Y-105902572D01*
X263756395Y-105920188D01*
X263741548Y-105946650D01*
X263736026Y-105956825D01*
X263724935Y-105976736D01*
X263705626Y-106010630D01*
X263679848Y-106055465D01*
X263649354Y-106108202D01*
X263615894Y-106165798D01*
X263599711Y-106193562D01*
X263566545Y-106250537D01*
X263536530Y-106302354D01*
X263511167Y-106346402D01*
X263491954Y-106380074D01*
X263480392Y-106400758D01*
X263477843Y-106405640D01*
X263466243Y-106427374D01*
X263461378Y-106435232D01*
X263450303Y-106453108D01*
X263431939Y-106483867D01*
X263407822Y-106524848D01*
X263379487Y-106573385D01*
X263348470Y-106626817D01*
X263316305Y-106682479D01*
X263284527Y-106737708D01*
X263254671Y-106789841D01*
X263228273Y-106836215D01*
X263206866Y-106874166D01*
X263191987Y-106901030D01*
X263185170Y-106914144D01*
X263184904Y-106914940D01*
X263179012Y-106927150D01*
X263170822Y-106937524D01*
X263159441Y-106953855D01*
X263142925Y-106981960D01*
X263124773Y-107015873D01*
X263124089Y-107017213D01*
X263110218Y-107045366D01*
X263100961Y-107068533D01*
X263095390Y-107091920D01*
X263092572Y-107120732D01*
X263091579Y-107160176D01*
X263091471Y-107199698D01*
X262574044Y-107199698D01*
X262574146Y-107169115D01*
X262579301Y-107093746D01*
X262589280Y-107028079D01*
X262592086Y-107015765D01*
X262604105Y-106969412D01*
X262616908Y-106926599D01*
X262631685Y-106884819D01*
X262649627Y-106841564D01*
X262671923Y-106794327D01*
X262699762Y-106740600D01*
X262734336Y-106677874D01*
X262776832Y-106603643D01*
X262828442Y-106515398D01*
X262833766Y-106506358D01*
X262863384Y-106455850D01*
X262889213Y-106411346D01*
X262909699Y-106375560D01*
X262923289Y-106351206D01*
X262928430Y-106340999D01*
X262928438Y-106340923D01*
X262933261Y-106330454D01*
X262945412Y-106309653D01*
X262951820Y-106299390D01*
X262963398Y-106280344D01*
X262983026Y-106247132D01*
X263008973Y-106202724D01*
X263039509Y-106150087D01*
X263072903Y-106092188D01*
X263091161Y-106060397D01*
X263153297Y-105952186D01*
X263223156Y-105830779D01*
X263298517Y-105700022D01*
X263377161Y-105563758D01*
X263456868Y-105425834D01*
X263535420Y-105290094D01*
X263610597Y-105160382D01*
X263629245Y-105128242D01*
X263665203Y-105066196D01*
X263699278Y-105007234D01*
X263729768Y-104954316D01*
X263754970Y-104910400D01*
X263773181Y-104878447D01*
X263781006Y-104864512D01*
X263793585Y-104842244D01*
X263814280Y-104806176D01*
X263841229Y-104759528D01*
X263872571Y-104705520D01*
X263906443Y-104647371D01*
X263920020Y-104624123D01*
X263952431Y-104568538D01*
X263981220Y-104518910D01*
X264004986Y-104477677D01*
X264022323Y-104447281D01*
X264031831Y-104430161D01*
X264033215Y-104427300D01*
X264037915Y-104418426D01*
X264050907Y-104395388D01*
X264070528Y-104361054D01*
X264095117Y-104318293D01*
X264123011Y-104269973D01*
X264152549Y-104218963D01*
X264182067Y-104168131D01*
X264209903Y-104120347D01*
X264234396Y-104078478D01*
X264253884Y-104045392D01*
X264266703Y-104023960D01*
X264270078Y-104018533D01*
X264279777Y-104002274D01*
X264295177Y-103975159D01*
X264309409Y-103949485D01*
X264326734Y-103918317D01*
X264341386Y-103892706D01*
X264348792Y-103880436D01*
X264357634Y-103865938D01*
X264373960Y-103838321D01*
X264396115Y-103800456D01*
X264422441Y-103755211D01*
X264451281Y-103705455D01*
X264480978Y-103654060D01*
X264509877Y-103603894D01*
X264536319Y-103557826D01*
X264558648Y-103518727D01*
X264575207Y-103489466D01*
X264584339Y-103472912D01*
X264585603Y-103470285D01*
X264590353Y-103461096D01*
X264603477Y-103437868D01*
X264623289Y-103403533D01*
X264648101Y-103361022D01*
X264665810Y-103330907D01*
X264761122Y-103167685D01*
X264861759Y-102992215D01*
X264883912Y-102953213D01*
X264894717Y-102934388D01*
X264913646Y-102901648D01*
X264938886Y-102858119D01*
X264968623Y-102806927D01*
X265001043Y-102751200D01*
X265009776Y-102736203D01*
X265043265Y-102678594D01*
X265075143Y-102623547D01*
X265103432Y-102574498D01*
X265126152Y-102534879D01*
X265141323Y-102508125D01*
X265143401Y-102504397D01*
X265155722Y-102482593D01*
X265176334Y-102446599D01*
X265203591Y-102399268D01*
X265235848Y-102343451D01*
X265271459Y-102282003D01*
X265305581Y-102223271D01*
X265374703Y-102104434D01*
X265434598Y-102001435D01*
X265485967Y-101913060D01*
X265529507Y-101838098D01*
X265565920Y-101775336D01*
X265595903Y-101723563D01*
X265620157Y-101681565D01*
X265639380Y-101648131D01*
X265654272Y-101622048D01*
X265665533Y-101602104D01*
X265673860Y-101587087D01*
X265679955Y-101575785D01*
X265684515Y-101566984D01*
X265686817Y-101562378D01*
X265693515Y-101550346D01*
X265708879Y-101523569D01*
X265731590Y-101484317D01*
X265760332Y-101434860D01*
X265793786Y-101377468D01*
X265830637Y-101314411D01*
X265840486Y-101297583D01*
X265878758Y-101232123D01*
X265914654Y-101170558D01*
X265946709Y-101115413D01*
X265973461Y-101069213D01*
X265993443Y-101034480D01*
X266005192Y-101013741D01*
X266006408Y-101011525D01*
X266021142Y-100984890D01*
X266033203Y-100963969D01*
X266035216Y-100960669D01*
X266043303Y-100947099D01*
X266059187Y-100919946D01*
X266080823Y-100882726D01*
X266106163Y-100838954D01*
X266115623Y-100822572D01*
X266166068Y-100738294D01*
X266212347Y-100668643D01*
X266257578Y-100609912D01*
X266304882Y-100558394D01*
X266357379Y-100510383D01*
X266418187Y-100462173D01*
X266420322Y-100460573D01*
X266521724Y-100396570D01*
X266634844Y-100346725D01*
X266756781Y-100311947D01*
X266884634Y-100293147D01*
X266964560Y-100289914D01*
X267098483Y-100299355D01*
G37*
D17*
X240400182Y-104060000D02*
X239946054Y-104060000D01*
X240400182Y-105530000D02*
X239946054Y-105530000D01*
X240390182Y-135240000D02*
X239936054Y-135240000D01*
X240390182Y-136710000D02*
X239936054Y-136710000D01*
X236568118Y-136767936D02*
X236568118Y-137222064D01*
X238038118Y-136767936D02*
X238038118Y-137222064D01*
D16*
G36*
X212150788Y-118655908D02*
G01*
X212218128Y-118656429D01*
X212277635Y-118657311D01*
X212327439Y-118658509D01*
X212365669Y-118659973D01*
X212390455Y-118661658D01*
X212399926Y-118663514D01*
X212400248Y-118670775D01*
X212400614Y-118694636D01*
X212400981Y-118734525D01*
X212401349Y-118789829D01*
X212401717Y-118859935D01*
X212402083Y-118944231D01*
X212402446Y-119042105D01*
X212402804Y-119152943D01*
X212403156Y-119276134D01*
X212403502Y-119411065D01*
X212403838Y-119557124D01*
X212404165Y-119713698D01*
X212404481Y-119880174D01*
X212404784Y-120055940D01*
X212405073Y-120240384D01*
X212405347Y-120432893D01*
X212405605Y-120632854D01*
X212405844Y-120839655D01*
X212406065Y-121052684D01*
X212406265Y-121271328D01*
X212406443Y-121494974D01*
X212406597Y-121723011D01*
X212406743Y-121944597D01*
X212406953Y-122222349D01*
X212407184Y-122483545D01*
X212407437Y-122728545D01*
X212407713Y-122957705D01*
X212408014Y-123171386D01*
X212408342Y-123369946D01*
X212408697Y-123553742D01*
X212409081Y-123723134D01*
X212409496Y-123878480D01*
X212409942Y-124020138D01*
X212410421Y-124148468D01*
X212410935Y-124263826D01*
X212411484Y-124366573D01*
X212412071Y-124457065D01*
X212412697Y-124535663D01*
X212413362Y-124602724D01*
X212414069Y-124658606D01*
X212414818Y-124703669D01*
X212415611Y-124738271D01*
X212416450Y-124762770D01*
X212417336Y-124777524D01*
X212418269Y-124782893D01*
X212419542Y-124783207D01*
X212434709Y-124784137D01*
X212466533Y-124784993D01*
X212514616Y-124785774D01*
X212578557Y-124786479D01*
X212657958Y-124787107D01*
X212752420Y-124787656D01*
X212861543Y-124788125D01*
X212984928Y-124788513D01*
X213122175Y-124788818D01*
X213272887Y-124789039D01*
X213436662Y-124789175D01*
X213613103Y-124789224D01*
X213801809Y-124789186D01*
X214002382Y-124789058D01*
X214214422Y-124788839D01*
X216000798Y-124786671D01*
X216005094Y-123751251D01*
X216009390Y-122715832D01*
X216316579Y-122713575D01*
X216623768Y-122711318D01*
X216623768Y-124060145D01*
X216623768Y-125408972D01*
X216548582Y-125411455D01*
X216542353Y-125411549D01*
X216518725Y-125411691D01*
X216478745Y-125411824D01*
X216422922Y-125411946D01*
X216351771Y-125412058D01*
X216265803Y-125412160D01*
X216165531Y-125412252D01*
X216051467Y-125412333D01*
X215924122Y-125412404D01*
X215784010Y-125412464D01*
X215631643Y-125412514D01*
X215467532Y-125412554D01*
X215292190Y-125412583D01*
X215106130Y-125412601D01*
X214909864Y-125412609D01*
X214703904Y-125412606D01*
X214488762Y-125412592D01*
X214264950Y-125412568D01*
X214032982Y-125412533D01*
X213793368Y-125412487D01*
X213546622Y-125412430D01*
X213293255Y-125412362D01*
X213033781Y-125412283D01*
X212768710Y-125412193D01*
X212498556Y-125412092D01*
X212223831Y-125411980D01*
X211945047Y-125411856D01*
X211785248Y-125411783D01*
X211507838Y-125411655D01*
X211234501Y-125411530D01*
X210965760Y-125411406D01*
X210702141Y-125411285D01*
X210444168Y-125411167D01*
X210192366Y-125411051D01*
X209947258Y-125410939D01*
X209709370Y-125410829D01*
X209479227Y-125410724D01*
X209257351Y-125410622D01*
X209044269Y-125410524D01*
X208840505Y-125410431D01*
X208646582Y-125410342D01*
X208463026Y-125410258D01*
X208290362Y-125410179D01*
X208129113Y-125410105D01*
X207979804Y-125410036D01*
X207842960Y-125409974D01*
X207719106Y-125409917D01*
X207608765Y-125409867D01*
X207512462Y-125409823D01*
X207430722Y-125409785D01*
X207364069Y-125409755D01*
X207313029Y-125409732D01*
X207278124Y-125409716D01*
X207259881Y-125409708D01*
X207103064Y-125409641D01*
X207103064Y-124060480D01*
X207103064Y-122711318D01*
X207410253Y-122713575D01*
X207717442Y-122715832D01*
X207721738Y-123751251D01*
X207726034Y-124786671D01*
X209736724Y-124789018D01*
X209876631Y-124789170D01*
X210058267Y-124789334D01*
X210234905Y-124789454D01*
X210405783Y-124789532D01*
X210570140Y-124789570D01*
X210727213Y-124789567D01*
X210876242Y-124789524D01*
X211016464Y-124789443D01*
X211147118Y-124789325D01*
X211267442Y-124789169D01*
X211376674Y-124788978D01*
X211474053Y-124788752D01*
X211558816Y-124788491D01*
X211630203Y-124788198D01*
X211687452Y-124787871D01*
X211729800Y-124787513D01*
X211756486Y-124787125D01*
X211766748Y-124786706D01*
X211786082Y-124782047D01*
X211786082Y-121732507D01*
X211786093Y-121532126D01*
X211786132Y-121307903D01*
X211786199Y-121088581D01*
X211786293Y-120874772D01*
X211786412Y-120667091D01*
X211786555Y-120466152D01*
X211786721Y-120272571D01*
X211786909Y-120086960D01*
X211787119Y-119909935D01*
X211787349Y-119742110D01*
X211787598Y-119584098D01*
X211787865Y-119436515D01*
X211788149Y-119299974D01*
X211788449Y-119175090D01*
X211788764Y-119062477D01*
X211789093Y-118962749D01*
X211789434Y-118876521D01*
X211789787Y-118804407D01*
X211790151Y-118747021D01*
X211790525Y-118704978D01*
X211790907Y-118678892D01*
X211791297Y-118669376D01*
X211794084Y-118665848D01*
X211800791Y-118662883D01*
X211813028Y-118660554D01*
X211832461Y-118658787D01*
X211860755Y-118657508D01*
X211899574Y-118656642D01*
X211950583Y-118656116D01*
X212015447Y-118655855D01*
X212095831Y-118655784D01*
X212150788Y-118655908D01*
G37*
G36*
X210389756Y-116696013D02*
G01*
X210626215Y-116696015D01*
X210865926Y-116696018D01*
X211108272Y-116696022D01*
X211352632Y-116696026D01*
X211598389Y-116696032D01*
X211844925Y-116696038D01*
X212091621Y-116696045D01*
X212337858Y-116696053D01*
X212583018Y-116696062D01*
X212826482Y-116696071D01*
X213067633Y-116696081D01*
X213305851Y-116696092D01*
X213540517Y-116696103D01*
X213771015Y-116696115D01*
X213996724Y-116696128D01*
X214217026Y-116696141D01*
X214431304Y-116696155D01*
X214638938Y-116696170D01*
X214839310Y-116696185D01*
X215031802Y-116696201D01*
X215215795Y-116696217D01*
X215390670Y-116696234D01*
X215555809Y-116696251D01*
X215710594Y-116696269D01*
X215854406Y-116696288D01*
X215986626Y-116696306D01*
X216106636Y-116696326D01*
X216213818Y-116696345D01*
X216307554Y-116696365D01*
X216387223Y-116696386D01*
X216452209Y-116696407D01*
X216501892Y-116696428D01*
X216535655Y-116696450D01*
X216552878Y-116696471D01*
X216623768Y-116696650D01*
X216623768Y-118045812D01*
X216623768Y-119394973D01*
X216316579Y-119392716D01*
X216009390Y-119390460D01*
X216005094Y-118355040D01*
X216000798Y-117319621D01*
X215309086Y-117319621D01*
X214617374Y-117319621D01*
X214615214Y-120367878D01*
X214613054Y-123416136D01*
X213719589Y-123416136D01*
X212826125Y-123416136D01*
X212821409Y-123396803D01*
X212820923Y-123393262D01*
X212819927Y-123373582D01*
X212819183Y-123339935D01*
X212818709Y-123294593D01*
X212818525Y-123239825D01*
X212818648Y-123177902D01*
X212819097Y-123111096D01*
X212821501Y-122844722D01*
X213405804Y-122840426D01*
X213990107Y-122836129D01*
X213990107Y-120077875D01*
X213990107Y-117319621D01*
X211704897Y-117317456D01*
X211519171Y-117317303D01*
X211326313Y-117317191D01*
X211138601Y-117317130D01*
X210956743Y-117317120D01*
X210781448Y-117317158D01*
X210613424Y-117317244D01*
X210453378Y-117317375D01*
X210302020Y-117317550D01*
X210160057Y-117317769D01*
X210028197Y-117318029D01*
X209907149Y-117318330D01*
X209797621Y-117318669D01*
X209700321Y-117319046D01*
X209615957Y-117319458D01*
X209545237Y-117319905D01*
X209488870Y-117320385D01*
X209447564Y-117320897D01*
X209422027Y-117321440D01*
X209412967Y-117322011D01*
X209412808Y-117322780D01*
X209412245Y-117336310D01*
X209411739Y-117366096D01*
X209411291Y-117411402D01*
X209410902Y-117471494D01*
X209410571Y-117545637D01*
X209410300Y-117633097D01*
X209410087Y-117733139D01*
X209409935Y-117845029D01*
X209409843Y-117968032D01*
X209409812Y-118101413D01*
X209409842Y-118244438D01*
X209409934Y-118396373D01*
X209410087Y-118556482D01*
X209410303Y-118724031D01*
X209410582Y-118898286D01*
X209410923Y-119078512D01*
X209411328Y-119263974D01*
X209411798Y-119453938D01*
X209412398Y-119678617D01*
X209413012Y-119895926D01*
X209413619Y-120097086D01*
X209414222Y-120282626D01*
X209414827Y-120453073D01*
X209415436Y-120608957D01*
X209416054Y-120750805D01*
X209416685Y-120879147D01*
X209417333Y-120994510D01*
X209418003Y-121097424D01*
X209418697Y-121188415D01*
X209419421Y-121268013D01*
X209420178Y-121336747D01*
X209420972Y-121395144D01*
X209421808Y-121443733D01*
X209422689Y-121483043D01*
X209423619Y-121513601D01*
X209424603Y-121535936D01*
X209425645Y-121550577D01*
X209426748Y-121558052D01*
X209427916Y-121558890D01*
X209428787Y-121557157D01*
X209437218Y-121537395D01*
X209448457Y-121507836D01*
X209460321Y-121474188D01*
X209461985Y-121469295D01*
X209476523Y-121427438D01*
X209493350Y-121380133D01*
X209509152Y-121336704D01*
X209512516Y-121327565D01*
X209527260Y-121286807D01*
X209541210Y-121247279D01*
X209551737Y-121216407D01*
X209556744Y-121201444D01*
X209573042Y-121154911D01*
X209589627Y-121110207D01*
X209603819Y-121074627D01*
X209607327Y-121065640D01*
X209616072Y-121041807D01*
X209627779Y-121009000D01*
X209640904Y-120971515D01*
X209653152Y-120936416D01*
X209677558Y-120867289D01*
X209704551Y-120791648D01*
X209731969Y-120715536D01*
X209757653Y-120644993D01*
X209765801Y-120622489D01*
X209780127Y-120582026D01*
X209792480Y-120546177D01*
X209794600Y-120539942D01*
X209806364Y-120506316D01*
X209820896Y-120465820D01*
X209835540Y-120425879D01*
X209838932Y-120416715D01*
X209853774Y-120375964D01*
X209867849Y-120336445D01*
X209878504Y-120305581D01*
X209880614Y-120299342D01*
X209892334Y-120265716D01*
X209906836Y-120225223D01*
X209921467Y-120185284D01*
X209924863Y-120176103D01*
X209939662Y-120135357D01*
X209953648Y-120095845D01*
X209964186Y-120064986D01*
X209969193Y-120050023D01*
X209985491Y-120003490D01*
X210002076Y-119958786D01*
X210016268Y-119923207D01*
X210019776Y-119914219D01*
X210028521Y-119890387D01*
X210040229Y-119857579D01*
X210053353Y-119820094D01*
X210065601Y-119784995D01*
X210090008Y-119715868D01*
X210117000Y-119640227D01*
X210144418Y-119564115D01*
X210170102Y-119493572D01*
X210178250Y-119471068D01*
X210192577Y-119430605D01*
X210204929Y-119394756D01*
X210207049Y-119388521D01*
X210218813Y-119354895D01*
X210233346Y-119314400D01*
X210247990Y-119274458D01*
X210251381Y-119265294D01*
X210266224Y-119224544D01*
X210280298Y-119185025D01*
X210290953Y-119154160D01*
X210293063Y-119147921D01*
X210304783Y-119114296D01*
X210319285Y-119073802D01*
X210333917Y-119033863D01*
X210337312Y-119024682D01*
X210352111Y-118983936D01*
X210366097Y-118944424D01*
X210376636Y-118913565D01*
X210379089Y-118906160D01*
X210391867Y-118868854D01*
X210406273Y-118829182D01*
X210424754Y-118780378D01*
X210429559Y-118767333D01*
X210438686Y-118741741D01*
X210449224Y-118711637D01*
X210467103Y-118660081D01*
X210715701Y-118657798D01*
X210784319Y-118657300D01*
X210845923Y-118657231D01*
X210893282Y-118657727D01*
X210927943Y-118658839D01*
X210951452Y-118660619D01*
X210965356Y-118663119D01*
X210971202Y-118666391D01*
X210971528Y-118668984D01*
X210972164Y-118686653D01*
X210972766Y-118720240D01*
X210973336Y-118768896D01*
X210973872Y-118831772D01*
X210974376Y-118908020D01*
X210974846Y-118996790D01*
X210975284Y-119097234D01*
X210975689Y-119208504D01*
X210976060Y-119329749D01*
X210976399Y-119460122D01*
X210976705Y-119598773D01*
X210976977Y-119744854D01*
X210977217Y-119897517D01*
X210977424Y-120055911D01*
X210977597Y-120219189D01*
X210977738Y-120386502D01*
X210977846Y-120557000D01*
X210977920Y-120729836D01*
X210977962Y-120904159D01*
X210977971Y-121079123D01*
X210977946Y-121253876D01*
X210977889Y-121427572D01*
X210977799Y-121599361D01*
X210977675Y-121768394D01*
X210977519Y-121933822D01*
X210977330Y-122094797D01*
X210977107Y-122250470D01*
X210976852Y-122399992D01*
X210976563Y-122542514D01*
X210976242Y-122677187D01*
X210975887Y-122803164D01*
X210975500Y-122919594D01*
X210975079Y-123025629D01*
X210974626Y-123120420D01*
X210974139Y-123203119D01*
X210973619Y-123272876D01*
X210973067Y-123328844D01*
X210972481Y-123370172D01*
X210971862Y-123396012D01*
X210971211Y-123405516D01*
X210970084Y-123406650D01*
X210961922Y-123409514D01*
X210945380Y-123411704D01*
X210918991Y-123413266D01*
X210881289Y-123414243D01*
X210830807Y-123414680D01*
X210766078Y-123414621D01*
X210685635Y-123414109D01*
X210406955Y-123411840D01*
X210402658Y-121938193D01*
X210402645Y-121933743D01*
X210402106Y-121745841D01*
X210401617Y-121574413D01*
X210401157Y-121418763D01*
X210400704Y-121278196D01*
X210400237Y-121152017D01*
X210399733Y-121039531D01*
X210399170Y-120940041D01*
X210398528Y-120852853D01*
X210397783Y-120777271D01*
X210396914Y-120712599D01*
X210395900Y-120658143D01*
X210394719Y-120613206D01*
X210393348Y-120577093D01*
X210391766Y-120549110D01*
X210389951Y-120528559D01*
X210387882Y-120514747D01*
X210385536Y-120506977D01*
X210382892Y-120504554D01*
X210379928Y-120506783D01*
X210376622Y-120512968D01*
X210372952Y-120522414D01*
X210368897Y-120534425D01*
X210364434Y-120548307D01*
X210359542Y-120563362D01*
X210357448Y-120569609D01*
X210345796Y-120603234D01*
X210331344Y-120643724D01*
X210316731Y-120683660D01*
X210313340Y-120692824D01*
X210298497Y-120733574D01*
X210284423Y-120773093D01*
X210273768Y-120803958D01*
X210271662Y-120810187D01*
X210259949Y-120843813D01*
X210245462Y-120884311D01*
X210230850Y-120924255D01*
X210229515Y-120927863D01*
X210212798Y-120974093D01*
X210194907Y-121025045D01*
X210179493Y-121070331D01*
X210173016Y-121089681D01*
X210152070Y-121150287D01*
X210133566Y-121200752D01*
X210118661Y-121237889D01*
X210117954Y-121239577D01*
X210111058Y-121257979D01*
X210101081Y-121286430D01*
X210089927Y-121319519D01*
X210088291Y-121324447D01*
X210074005Y-121366299D01*
X210057361Y-121413590D01*
X210041631Y-121457002D01*
X210038271Y-121466125D01*
X210023484Y-121506888D01*
X210009445Y-121546423D01*
X209998802Y-121577300D01*
X209996692Y-121583539D01*
X209984971Y-121617165D01*
X209970470Y-121657658D01*
X209955838Y-121697598D01*
X209952447Y-121706760D01*
X209937600Y-121747511D01*
X209923516Y-121787031D01*
X209912848Y-121817895D01*
X209906622Y-121836336D01*
X209891325Y-121880858D01*
X209876033Y-121924448D01*
X209862116Y-121963265D01*
X209850943Y-121993472D01*
X209843882Y-122011231D01*
X209843161Y-122012916D01*
X209836178Y-122031317D01*
X209826139Y-122059769D01*
X209814961Y-122092861D01*
X209813324Y-122097790D01*
X209799039Y-122139642D01*
X209782395Y-122186932D01*
X209766665Y-122230345D01*
X209763305Y-122239467D01*
X209748518Y-122280230D01*
X209734479Y-122319765D01*
X209723835Y-122350642D01*
X209721726Y-122356882D01*
X209710005Y-122390507D01*
X209695504Y-122431001D01*
X209680872Y-122470940D01*
X209677481Y-122480104D01*
X209662638Y-122520855D01*
X209648564Y-122560373D01*
X209637909Y-122591238D01*
X209635802Y-122597467D01*
X209624090Y-122631093D01*
X209609603Y-122671591D01*
X209594991Y-122711535D01*
X209593656Y-122715143D01*
X209576939Y-122761373D01*
X209559047Y-122812325D01*
X209543633Y-122857611D01*
X209537157Y-122876961D01*
X209516211Y-122937568D01*
X209497707Y-122988032D01*
X209482801Y-123025169D01*
X209482094Y-123026858D01*
X209475198Y-123045259D01*
X209465221Y-123073710D01*
X209454068Y-123106799D01*
X209452443Y-123111694D01*
X209438173Y-123153551D01*
X209421563Y-123200855D01*
X209405881Y-123244282D01*
X209401949Y-123254992D01*
X209387852Y-123293753D01*
X209374990Y-123329621D01*
X209365737Y-123355987D01*
X209361560Y-123367543D01*
X209351645Y-123391168D01*
X209343662Y-123405525D01*
X209339010Y-123408228D01*
X209326033Y-123410894D01*
X209303650Y-123412816D01*
X209270306Y-123414047D01*
X209224447Y-123414639D01*
X209164518Y-123414646D01*
X209088964Y-123414118D01*
X208843084Y-123411840D01*
X208838788Y-120365730D01*
X208834492Y-117319621D01*
X208280263Y-117319621D01*
X207726034Y-117319621D01*
X207721738Y-118355040D01*
X207717442Y-119390460D01*
X207410253Y-119392716D01*
X207103064Y-119394973D01*
X207103064Y-118045812D01*
X207103064Y-116696650D01*
X207264177Y-116696214D01*
X207270763Y-116696203D01*
X207296051Y-116696183D01*
X207337579Y-116696164D01*
X207394730Y-116696146D01*
X207466884Y-116696129D01*
X207553424Y-116696114D01*
X207653730Y-116696099D01*
X207767185Y-116696086D01*
X207893169Y-116696074D01*
X208031064Y-116696063D01*
X208180253Y-116696053D01*
X208340115Y-116696045D01*
X208510033Y-116696037D01*
X208689389Y-116696030D01*
X208877563Y-116696025D01*
X209073938Y-116696020D01*
X209277894Y-116696017D01*
X209488814Y-116696014D01*
X209706079Y-116696012D01*
X209929069Y-116696012D01*
X210157168Y-116696012D01*
X210389756Y-116696013D01*
G37*
D17*
X236588118Y-105567936D02*
X236588118Y-106022064D01*
X238058118Y-105567936D02*
X238058118Y-106022064D01*
D16*
G36*
X267779259Y-84355663D02*
G01*
X267787013Y-84358954D01*
X267800563Y-84365956D01*
X267818441Y-84375861D01*
X267839180Y-84387862D01*
X267861313Y-84401151D01*
X267863174Y-84402286D01*
X267876899Y-84410432D01*
X267887233Y-84416188D01*
X267892061Y-84418369D01*
X267892187Y-84418377D01*
X267897611Y-84420930D01*
X267906579Y-84426667D01*
X267913799Y-84431356D01*
X267927788Y-84439758D01*
X267943205Y-84448483D01*
X267956687Y-84456006D01*
X267975548Y-84466728D01*
X267997163Y-84479150D01*
X268019022Y-84491839D01*
X268023164Y-84494255D01*
X268041689Y-84504991D01*
X268056899Y-84513700D01*
X268067318Y-84519542D01*
X268071468Y-84521676D01*
X268073061Y-84522442D01*
X268080853Y-84526912D01*
X268093542Y-84534484D01*
X268109395Y-84544134D01*
X268118887Y-84549927D01*
X268133162Y-84558500D01*
X268143292Y-84564398D01*
X268147532Y-84566592D01*
X268148799Y-84567138D01*
X268156221Y-84571187D01*
X268168643Y-84578323D01*
X268184258Y-84587517D01*
X268188663Y-84590126D01*
X268208497Y-84601661D01*
X268227951Y-84612695D01*
X268243374Y-84621150D01*
X268253677Y-84626802D01*
X268268819Y-84635676D01*
X268280000Y-84642896D01*
X268281343Y-84643844D01*
X268290087Y-84649586D01*
X268294785Y-84651932D01*
X268295110Y-84652026D01*
X268300940Y-84654989D01*
X268312700Y-84661496D01*
X268328885Y-84670704D01*
X268347990Y-84681770D01*
X268369595Y-84694311D01*
X268391227Y-84706745D01*
X268410134Y-84717495D01*
X268423807Y-84725125D01*
X268435181Y-84731511D01*
X268449904Y-84740213D01*
X268460433Y-84746942D01*
X268460963Y-84747309D01*
X268469827Y-84752922D01*
X268474951Y-84755239D01*
X268475183Y-84755276D01*
X268480820Y-84757972D01*
X268491697Y-84764091D01*
X268505699Y-84772452D01*
X268521337Y-84781894D01*
X268539419Y-84792584D01*
X268554063Y-84801012D01*
X268560029Y-84804364D01*
X268567363Y-84808501D01*
X268575034Y-84812860D01*
X268584284Y-84818155D01*
X268596352Y-84825096D01*
X268612477Y-84834397D01*
X268633901Y-84846769D01*
X268661861Y-84862925D01*
X268667446Y-84866151D01*
X268689173Y-84878687D01*
X268709182Y-84890210D01*
X268725456Y-84899559D01*
X268735973Y-84905571D01*
X268741775Y-84908884D01*
X268756689Y-84917461D01*
X268775124Y-84928116D01*
X268794364Y-84939277D01*
X268805084Y-84945500D01*
X268824206Y-84956555D01*
X268841001Y-84966213D01*
X268852755Y-84972910D01*
X268856017Y-84974752D01*
X268871972Y-84983790D01*
X268886442Y-84992028D01*
X268889358Y-84993694D01*
X268904743Y-85002443D01*
X268920129Y-85011150D01*
X268925181Y-85014125D01*
X268935688Y-85021200D01*
X268941395Y-85026379D01*
X268941460Y-85026612D01*
X268941838Y-85033101D01*
X268942204Y-85047991D01*
X268942555Y-85070784D01*
X268942890Y-85100982D01*
X268943205Y-85138088D01*
X268943498Y-85181603D01*
X268943768Y-85231030D01*
X268944010Y-85285872D01*
X268944223Y-85345631D01*
X268944405Y-85409810D01*
X268944552Y-85477910D01*
X268944663Y-85549434D01*
X268944734Y-85623884D01*
X268944764Y-85700764D01*
X268944832Y-86370055D01*
X268934726Y-86376381D01*
X268928015Y-86380393D01*
X268914874Y-86387913D01*
X268899916Y-86396224D01*
X268897940Y-86397310D01*
X268881001Y-86406833D01*
X268860884Y-86418405D01*
X268841526Y-86429766D01*
X268838896Y-86431326D01*
X268819180Y-86442866D01*
X268799280Y-86454292D01*
X268783135Y-86463342D01*
X268771751Y-86469747D01*
X268757033Y-86478459D01*
X268746509Y-86485191D01*
X268745933Y-86485590D01*
X268737214Y-86491182D01*
X268732370Y-86493489D01*
X268732120Y-86493538D01*
X268726536Y-86496289D01*
X268715678Y-86502415D01*
X268701622Y-86510752D01*
X268685570Y-86520350D01*
X268667470Y-86530965D01*
X268652878Y-86539312D01*
X268647615Y-86542257D01*
X268635720Y-86548945D01*
X268622696Y-86556324D01*
X268606324Y-86565654D01*
X268584381Y-86578197D01*
X268576963Y-86582459D01*
X268562518Y-86590792D01*
X268544397Y-86601267D01*
X268524868Y-86612573D01*
X268508994Y-86621762D01*
X268490727Y-86632317D01*
X268475820Y-86640909D01*
X268466477Y-86646265D01*
X268459082Y-86650521D01*
X268444626Y-86658953D01*
X268429224Y-86668034D01*
X268418046Y-86674519D01*
X268407992Y-86680021D01*
X268403301Y-86682136D01*
X268402078Y-86682538D01*
X268395017Y-86686289D01*
X268384409Y-86692703D01*
X268383968Y-86692981D01*
X268369391Y-86701976D01*
X268352153Y-86712332D01*
X268333980Y-86723048D01*
X268316596Y-86733125D01*
X268301727Y-86741561D01*
X268291099Y-86747356D01*
X268286437Y-86749510D01*
X268284006Y-86750529D01*
X268275788Y-86755417D01*
X268264355Y-86762985D01*
X268256714Y-86768122D01*
X268247159Y-86774121D01*
X268242470Y-86776459D01*
X268242239Y-86776513D01*
X268236663Y-86779280D01*
X268225117Y-86785630D01*
X268209134Y-86794707D01*
X268190243Y-86805655D01*
X268187119Y-86807480D01*
X268168683Y-86818176D01*
X268153481Y-86826871D01*
X268143016Y-86832713D01*
X268138790Y-86834850D01*
X268138337Y-86835005D01*
X268132390Y-86838207D01*
X268121232Y-86844698D01*
X268106802Y-86853356D01*
X268106403Y-86853598D01*
X268088347Y-86864420D01*
X268070192Y-86875076D01*
X268055813Y-86883290D01*
X268050381Y-86886317D01*
X268038782Y-86892811D01*
X268027407Y-86899242D01*
X268014658Y-86906527D01*
X267998938Y-86915580D01*
X267978647Y-86927317D01*
X267952189Y-86942653D01*
X267946963Y-86945682D01*
X267924906Y-86958438D01*
X267904293Y-86970315D01*
X267887233Y-86980101D01*
X267875831Y-86986584D01*
X267864065Y-86993302D01*
X267846144Y-87003728D01*
X267828615Y-87014095D01*
X267808636Y-87025940D01*
X267793898Y-87034235D01*
X267783882Y-87038963D01*
X267777085Y-87040696D01*
X267772005Y-87040004D01*
X267767140Y-87037457D01*
X267766935Y-87037329D01*
X267756283Y-87030898D01*
X267743837Y-87023641D01*
X267715945Y-87007681D01*
X267681602Y-86987982D01*
X267652993Y-86971505D01*
X267628892Y-86957538D01*
X267608068Y-86945371D01*
X267589294Y-86934293D01*
X267578137Y-86927775D01*
X267568368Y-86922296D01*
X267564049Y-86920191D01*
X267563767Y-86920094D01*
X267558146Y-86917125D01*
X267546568Y-86910623D01*
X267530515Y-86901429D01*
X267511471Y-86890385D01*
X267509990Y-86889522D01*
X267489296Y-86877475D01*
X267470120Y-86866345D01*
X267454540Y-86857335D01*
X267444638Y-86851653D01*
X267439920Y-86848949D01*
X267426874Y-86841393D01*
X267408839Y-86830898D01*
X267387541Y-86818466D01*
X267364704Y-86805102D01*
X267349022Y-86795941D01*
X267329484Y-86784615D01*
X267313743Y-86775594D01*
X267303114Y-86769631D01*
X267298912Y-86767476D01*
X267298453Y-86767322D01*
X267292485Y-86764121D01*
X267281310Y-86757630D01*
X267266873Y-86748971D01*
X267266474Y-86748729D01*
X267248417Y-86737906D01*
X267230263Y-86727251D01*
X267215883Y-86719036D01*
X267214224Y-86718112D01*
X267192951Y-86706220D01*
X267176297Y-86696781D01*
X267161207Y-86688048D01*
X267144626Y-86678272D01*
X267133395Y-86671889D01*
X267122440Y-86666315D01*
X267116553Y-86664169D01*
X267115533Y-86664040D01*
X267112259Y-86659678D01*
X267112138Y-86658612D01*
X267108027Y-86655186D01*
X267104611Y-86653840D01*
X267094393Y-86648613D01*
X267078861Y-86640143D01*
X267059373Y-86629170D01*
X267037284Y-86616440D01*
X267036130Y-86615768D01*
X267003738Y-86596907D01*
X266977602Y-86581716D01*
X266956269Y-86569357D01*
X266938288Y-86558992D01*
X266922205Y-86549786D01*
X266906568Y-86540899D01*
X266889925Y-86531496D01*
X266884120Y-86528200D01*
X266869206Y-86519650D01*
X266850772Y-86509016D01*
X266831534Y-86497863D01*
X266820819Y-86491641D01*
X266801695Y-86480574D01*
X266784898Y-86470897D01*
X266773144Y-86464176D01*
X266767783Y-86461124D01*
X266752993Y-86452654D01*
X266734647Y-86442104D01*
X266715521Y-86431070D01*
X266703652Y-86424266D01*
X266688810Y-86415949D01*
X266678231Y-86410258D01*
X266673660Y-86408148D01*
X266671678Y-86407357D01*
X266663833Y-86402890D01*
X266652606Y-86395796D01*
X266646539Y-86391861D01*
X266633893Y-86383881D01*
X266624847Y-86378463D01*
X266623659Y-86377684D01*
X266622568Y-86376444D01*
X266621584Y-86374326D01*
X266620699Y-86370902D01*
X266619907Y-86365746D01*
X266619203Y-86358432D01*
X266618579Y-86348534D01*
X266618030Y-86335623D01*
X266617549Y-86319275D01*
X266617130Y-86299063D01*
X266616767Y-86274559D01*
X266616453Y-86245338D01*
X266616182Y-86210972D01*
X266615947Y-86171036D01*
X266615743Y-86125102D01*
X266615562Y-86072745D01*
X266615400Y-86013537D01*
X266615249Y-85947053D01*
X266615102Y-85872864D01*
X266614955Y-85790546D01*
X266614800Y-85699671D01*
X266614755Y-85672628D01*
X266614622Y-85580753D01*
X266614532Y-85497398D01*
X266614490Y-85422198D01*
X266614497Y-85354790D01*
X266614555Y-85294811D01*
X266614667Y-85241897D01*
X266614836Y-85195685D01*
X266615064Y-85155812D01*
X266615353Y-85121914D01*
X266615705Y-85093628D01*
X266616124Y-85070590D01*
X266616611Y-85052437D01*
X266617169Y-85038805D01*
X266617800Y-85029332D01*
X266618507Y-85023654D01*
X266619292Y-85021407D01*
X266622360Y-85019260D01*
X266632336Y-85013098D01*
X266645133Y-85005761D01*
X266653800Y-85000902D01*
X266670262Y-84991546D01*
X266689947Y-84980264D01*
X266710261Y-84968538D01*
X266726136Y-84959346D01*
X266744402Y-84948790D01*
X266759309Y-84940198D01*
X266768652Y-84934842D01*
X266776704Y-84930197D01*
X266791274Y-84921662D01*
X266806831Y-84912445D01*
X266811309Y-84909778D01*
X266830432Y-84898506D01*
X266847953Y-84888447D01*
X266867052Y-84877795D01*
X266890911Y-84864747D01*
X266892143Y-84864075D01*
X266908697Y-84854801D01*
X266923432Y-84846141D01*
X266933289Y-84839889D01*
X266933755Y-84839566D01*
X266942813Y-84833927D01*
X266948316Y-84831597D01*
X266948466Y-84831588D01*
X266954234Y-84828986D01*
X266963343Y-84823139D01*
X266965224Y-84821817D01*
X266971967Y-84817306D01*
X266980416Y-84812085D01*
X266992113Y-84805247D01*
X267008598Y-84795886D01*
X267031411Y-84783096D01*
X267044510Y-84775614D01*
X267062468Y-84765102D01*
X267080154Y-84754536D01*
X267082402Y-84753179D01*
X267095985Y-84745114D01*
X267105950Y-84739426D01*
X267110275Y-84737273D01*
X267113714Y-84735668D01*
X267122941Y-84730561D01*
X267135643Y-84723166D01*
X267145588Y-84717311D01*
X267163834Y-84706723D01*
X267179633Y-84697723D01*
X267194079Y-84689612D01*
X267211112Y-84679999D01*
X267224512Y-84672339D01*
X267236819Y-84665175D01*
X267250574Y-84657052D01*
X267261805Y-84650669D01*
X267272759Y-84645095D01*
X267278646Y-84642949D01*
X267279534Y-84642863D01*
X267282940Y-84638982D01*
X267284166Y-84636460D01*
X267290800Y-84632441D01*
X267293533Y-84631370D01*
X267304026Y-84626195D01*
X267316627Y-84619071D01*
X267324408Y-84614446D01*
X267340111Y-84605221D01*
X267359915Y-84593657D01*
X267381707Y-84580981D01*
X267403376Y-84568422D01*
X267422811Y-84557207D01*
X267437900Y-84548564D01*
X267445296Y-84544308D01*
X267459751Y-84535876D01*
X267475154Y-84526795D01*
X267486335Y-84520315D01*
X267496438Y-84514809D01*
X267501196Y-84512693D01*
X267505404Y-84510704D01*
X267515111Y-84505034D01*
X267528035Y-84496972D01*
X267540234Y-84489329D01*
X267550073Y-84483487D01*
X267554572Y-84481252D01*
X267558164Y-84479657D01*
X267567538Y-84474550D01*
X267580311Y-84467149D01*
X267590939Y-84460854D01*
X267604571Y-84452816D01*
X267617851Y-84445054D01*
X267632817Y-84436382D01*
X267651506Y-84425617D01*
X267675955Y-84411575D01*
X267691522Y-84402636D01*
X267710435Y-84391760D01*
X267726239Y-84382658D01*
X267736592Y-84376675D01*
X267738423Y-84375616D01*
X267751996Y-84367906D01*
X267763541Y-84361548D01*
X267772110Y-84357472D01*
X267778382Y-84355515D01*
X267779259Y-84355663D01*
G37*
M02*
